<?xml version="1.0" ?><svg id="Layer_1" style="enable-background:new 0 0 52 52;" version="1.1" viewBox="0 0 52 52" xml:space="preserve" xmlns="http://www.w3.org/2000/svg" xmlns:xlink="http://www.w3.org/1999/xlink"><style type="text/css">
	.st0{fill:#231F20;}
</style><g><g><path class="st0" d="M36.8948135,15.676589c6.2816772-0.7729721,11.9264603,1.3103895,11.8238792,8.5192671    c-0.1223145,8.5957317-9.6390114,7.1376991-15.4007301,7.2494049c-8.5895081,0.1665287-28.233654,3.7631321-29.8674736-8.4273357    c-0.3052306-2.2774296-0.2730494-6.8363876,1.2523205-8.4934988c2.6026378-2.8274164,6.4328852-1.3576717,9.6084738-1.8316412    c2.4106054-0.3597927,2.6534204-1.1822147,3.6828814-3.1930971c2.1788406-4.2560105,7.5580521-9.0235357,12.921896-6.8664718    c4.1994896,1.6888208,2.8416443,9.3531914,4.6597862,12.9948864c0.6468582,1.2956381,2.588356,0.1573963,1.9428101-1.1356182    c-2.6666412-5.3412189,0.373867-13.2149315-7.5472107-14.3141413c-4.9622269-0.6886093-10.2861271,1.9761543-12.929945,6.183598    c-1.4180346,2.2566962-0.7928314,3.2244506-4.4367237,4.0607324c-1.7156162,0.3937378-3.6093731-0.1120348-5.3780723,0.3532686    c-2.0006261,0.5263195-4.0332794,1.5801983-5.1376543,3.4141359c-1.4898481,2.4740591-1.01057,6.1039-0.8885616,8.8278475    c0.116313,2.5967884,0.4060138,4.4745636,2.3154721,6.3367081c5.2599015,5.12957,13.0210571,4.665966,19.7710438,4.5351028    c4.5595245-0.088398,9.1190529-0.176796,13.6785774-0.2651939c3.0086403-0.0583305,6.6869583,0.3388824,9.4992256-1.0366745    c4.6808968-2.2895603,5.3236618-8.5925331,3.7027626-13.0258331c-2.1957588-6.0055952-7.5495071-6.8397026-13.2727585-6.1354456    C35.4762039,13.6011515,35.4586906,15.8533068,36.8948135,15.676589L36.8948135,15.676589z"/></g><g><path class="st0" d="M43.3314285,42.5278473c0.2238464,0.9959221-0.1207466,1.6623573-1.0960312,1.9902649    c-0.4691391,0.1577339-1.2500725,0.3537598-1.6739006-0.0007782c-0.3725357-0.3116341-0.3348961-1.0347366-0.3358002-1.4670715    c-0.0017509-0.8348923,0.6965828-1.7626686,1.592144-1.8743591c0.9270897-0.1156235,1.838707,0.8507385,1.9770851,1.6976318    c0.232914,1.4254684,2.4014511,0.8206482,2.1696281-0.5981407c-0.3237114-1.981163-2.6036644-3.6679192-4.5984764-3.3134918    c-1.1078262,0.1968346-2.0267715,0.978611-2.7213516,1.8306656c-0.718502,0.8814011-0.7385101,1.9862099-0.6189003,3.074791    c0.2805824,2.5536842,2.2952156,3.4430084,4.6288452,2.8630638c2.294178-0.5701332,3.3492661-2.5633469,2.846386-4.8007164    C45.1836586,40.5175667,43.013916,41.1152,43.3314285,42.5278473L43.3314285,42.5278473z"/></g><g><path class="st0" d="M32.719471,33.3187943c0.1707916,2.3931541-0.1337166,5.456501,0.7401543,7.713829    c0.8198891,2.1178932,2.9546165,1.7569046,4.4861755,2.9388466c1.145443,0.8839645,2.2669754-1.0697136,1.1356201-1.9428101    c-0.6094475-0.4703217-1.1803665-0.6567307-1.8983002-0.8890266c-1.1897736-0.3849678-1.5084038-0.6621475-1.7927361-1.9228592    c-0.4165955-1.8471603-0.2858925-4.0060501-0.4209137-5.8979797C34.8669891,31.8827915,32.616188,31.8715305,32.719471,33.3187943    L32.719471,33.3187943z"/></g><g><path class="st0" d="M25.9626617,46.3848572c0.6867714,0.4590149,1.4056854,1.1903954,1.3118229,2.0920601    c-0.1168652,1.1226425-1.2192078,1.2067108-2.1321201,1.1980362c-0.3625221-0.0034447-1.112072,0.0353928-1.3725014-0.3021202    c-0.1825638-0.2366028-0.0772362-1.1699333,0.0500965-1.4214325c0.2803364-0.5536995,1.7528858-1.2033195,2.3756924-1.2589684    c1.4307728-0.1278419,1.444231-2.3790436,0-2.25c-1.6455021,0.1470299-4.2359543,1.2600594-4.6309547,3.0483437    c-0.1992302,0.9019737-0.2093697,2.2218895,0.2570992,3.046627c0.5126286,0.9063454,1.6042023,1.2289391,2.568903,1.3399544    c1.9890785,0.2289009,4.2025509-0.2466736,4.9268055-2.33358c0.7185955-2.0705986-0.5414581-3.9803619-2.2192249-5.1017303    C25.8910732,43.6351891,24.7633648,45.5832825,25.9626617,46.3848572L25.9626617,46.3848572z"/></g><g><path class="st0" d="M24.4850445,33.3235359c0.0712433,3.8891106,0.1424866,7.7782211,0.213728,11.6673317    c0.0264912,1.4461403,2.276577,1.4508247,2.25,0c-0.0712414-3.8891106-0.1424847-7.7782211-0.213728-11.6673317    C26.7085552,31.8773956,24.4584694,31.8727112,24.4850445,33.3235359L24.4850445,33.3235359z"/></g><g><path class="st0" d="M10.9169331,42.9542847c0.2453985,0.3852844,0.1780319,0.8659554,0.1108522,1.3024979    c-0.0353518,0.2297249-0.1194191,1.0815353-0.2800884,1.2230377c-0.25315,0.22295-0.8895111,0.0455093-1.109787-0.1044235    c-0.3348675-0.227932-0.5579653-0.6463203-0.8975124-0.8934212c-0.3092785-0.2250748-0.7880945-0.333477-0.8597617-0.7360916    c-0.065187-0.3662071,0.3778234-1.034565,0.7051749-1.1868439c0.6260462-0.2912254,1.9152346,0.1349449,2.3967838,0.5606461    c1.0813513,0.9559402,2.6784878-0.6296158,1.5909901-1.5909882c-1.2284908-1.0860138-3.8623838-1.9015007-5.3205085-0.8183479    c-1.5773916,1.1717491-2.4118924,3.8604622-0.5508308,5.1778259c0.3749576,0.2654152,0.733057,0.4345665,1.0641141,0.761116    c0.3542166,0.3493958,0.6190348,0.6687393,1.0761089,0.8928185c0.8014355,0.3929062,1.9763603,0.3374863,2.7888184-0.0063362    c1.7884293-0.7568359,2.1800938-4.2230034,1.2284555-5.7171097    C12.0840769,40.6008453,10.1359844,41.7281685,10.9169331,42.9542847L10.9169331,42.9542847z"/></g><g><path class="st0" d="M16.4138145,33.4082146c-0.1357803,1.8670769,0.3566151,3.9298439-0.1689243,5.7444115    c-0.5360603,1.8508911-2.0938835,2.9257965-3.8590279,3.4699516c-1.3795338,0.4252777-0.7910595,2.5978851,0.5981398,2.1696281    c2.0109797-0.6199417,3.8434782-1.7725945,4.8792791-3.6606178c1.3108292-2.3893356,0.6126881-5.1403465,0.8005333-7.7233734    C18.7688751,31.9635525,16.5183907,31.9702091,16.4138145,33.4082146L16.4138145,33.4082146z"/></g></g></svg>