  0
SECTION
  2
HEADER
  9
$ACADVER
  1
AC1009
  9
$DWGCODEPAGE
  3
ansi_1252
  9
$INSBASE
 10
0.0
 20
0.0
 30
0.0
  9
$EXTMIN
 10
0.0
 20
0.0
 30
0.0
  9
$EXTMAX
 10
500.0
 20
500.0
 30
0.0
  9
$LIMMIN
 10
0.0
 20
0.0
  9
$LIMMAX
 10
500.0
 20
500.0
  9
$ORTHOMODE
 70
     0
  9
$REGENMODE
 70
     1
  9
$FILLMODE
 70
     1
  9
$QTEXTMODE
 70
     0
  9
$MIRRTEXT
 70
     1
  9
$DRAGMODE
 70
     2
  9
$LTSCALE
 40
1.0
  9
$OSMODE
 70
    37
  9
$ATTMODE
 70
     1
  9
$TEXTSIZE
 40
3.5
  9
$TRACEWID
 40
1.0
  9
$TEXTSTYLE
  7
STANDARD
  9
$CLAYER
  8
0
  9
$CELTYPE
  6
BYLAYER
  9
$CECOLOR
 62
   256
  9
$DIMSCALE
 40
1.0
  9
$DIMASZ
 40
3.302
  9
$DIMEXO
 40
1.0
  9
$DIMDLI
 40
3.75
  9
$DIMRND
 40
0.0
  9
$DIMDLE
 40
0.0
  9
$DIMEXE
 40
1.0
  9
$DIMTP
 40
0.0
  9
$DIMTM
 40
0.0
  9
$DIMTXT
 40
3.5
  9
$DIMCEN
 40
2.5
  9
$DIMTSZ
 40
0.0
  9
$DIMTOL
 70
     0
  9
$DIMLIM
 70
     0
  9
$DIMTIH
 70
     1
  9
$DIMTOH
 70
     1
  9
$DIMSE1
 70
     0
  9
$DIMSE2
 70
     0
  9
$DIMTAD
 70
     1
  9
$DIMZIN
 70
     0
  9
$DIMBLK
  1

  9
$DIMASO
 70
     1
  9
$DIMSHO
 70
     1
  9
$DIMPOST
  1

  9
$DIMAPOST
  1

  9
$DIMALT
 70
     0
  9
$DIMALTD
 70
     3
  9
$DIMALTF
 40
0.0393700787
  9
$DIMLFAC
 40
1.0
  9
$DIMTOFL
 70
     1
  9
$DIMTVP
 40
0.0
  9
$DIMTIX
 70
     0
  9
$DIMSOXD
 70
     0
  9
$DIMSAH
 70
     0
  9
$DIMBLK1
  1

  9
$DIMBLK2
  1

  9
$DIMSTYLE
  2
ISO-25
  9
$DIMCLRD
 70
     0
  9
$DIMCLRE
 70
     0
  9
$DIMCLRT
 70
     0
  9
$DIMTFAC
 40
1.0
  9
$DIMGAP
 40
1.524
  9
$LUNITS
 70
     2
  9
$LUPREC
 70
     2
  9
$SKETCHINC
 40
1.0
  9
$FILLETRAD
 40
10.0
  9
$AUNITS
 70
     0
  9
$AUPREC
 70
     2
  9
$MENU
  1
.
  9
$ELEVATION
 40
0.0
  9
$PELEVATION
 40
0.0
  9
$THICKNESS
 40
0.0
  9
$LIMCHECK
 70
     0
  9
$CHAMFERA
 40
0.0
  9
$CHAMFERB
 40
0.0
  9
$SKPOLY
 70
     0
  9
$TDCREATE
 40
2458193.446838692
  9
$TDUPDATE
 40
2458193.446839734
  9
$TDINDWG
 40
0.0000000116
  9
$TDUSRTIMER
 40
0.0000000116
  9
$USRTIMER
 70
     1
  9
$ANGBASE
 50
0.0
  9
$ANGDIR
 70
     0
  9
$PDMODE
 70
     0
  9
$PDSIZE
 40
-1.0
  9
$PLINEWID
 40
0.0
  9
$COORDS
 70
     1
  9
$SPLFRAME
 70
     0
  9
$SPLINETYPE
 70
     6
  9
$SPLINESEGS
 70
     8
  9
$ATTDIA
 70
     0
  9
$ATTREQ
 70
     1
  9
$HANDLING
 70
     1
  9
$HANDSEED
  5
3EB
  9
$SURFTAB1
 70
     6
  9
$SURFTAB2
 70
     6
  9
$SURFTYPE
 70
     6
  9
$SURFU
 70
     6
  9
$SURFV
 70
     6
  9
$UCSNAME
  2

  9
$UCSORG
 10
0.0
 20
0.0
 30
0.0
  9
$UCSXDIR
 10
1.0
 20
0.0
 30
0.0
  9
$UCSYDIR
 10
0.0
 20
1.0
 30
0.0
  9
$PUCSNAME
  2

  9
$PUCSORG
 10
0.0
 20
0.0
 30
0.0
  9
$PUCSXDIR
 10
1.0
 20
0.0
 30
0.0
  9
$PUCSYDIR
 10
0.0
 20
1.0
 30
0.0
  9
$USERI1
 70
     0
  9
$USERI2
 70
     0
  9
$USERI3
 70
     0
  9
$USERI4
 70
     0
  9
$USERI5
 70
     0
  9
$USERR1
 40
0.0
  9
$USERR2
 40
0.0
  9
$USERR3
 40
0.0
  9
$USERR4
 40
0.0
  9
$USERR5
 40
0.0
  9
$WORLDVIEW
 70
     1
  9
$SHADEDGE
 70
     3
  9
$SHADEDIF
 70
    70
  9
$TILEMODE
 70
     1
  9
$MAXACTVP
 70
    64
  9
$PLIMCHECK
 70
     0
  9
$PEXTMIN
 10
1.0000000000E+20
 20
1.0000000000E+20
 30
1.0000000000E+20
  9
$PEXTMAX
 10
-1.0000000000E+20
 20
-1.0000000000E+20
 30
-1.0000000000E+20
  9
$PLIMMIN
 10
0.0
 20
0.0
  9
$PLIMMAX
 10
420.0
 20
297.0
  9
$UNITMODE
 70
     0
  9
$VISRETAIN
 70
     1
  9
$PLINEGEN
 70
     0
  9
$PSLTSCALE
 70
     1
  0
ENDSEC
  0
SECTION
  2
TABLES
  0
TABLE
  2
VPORT
 70
     1
  0
VPORT
  2
*ACTIVE
 70
     0
 10
0.0
 20
0.0
 11
1.0
 21
1.0
 12
250.0
 22
250.0
 13
0.0
 23
0.0
 14
10.0
 24
10.0
 15
10.0
 25
10.0
 16
0.0
 26
0.0
 36
1.0
 17
0.0
 27
0.0
 37
0.0
 40
500.0
 41
1.0
 42
50.0
 43
0.0
 44
0.0
 50
0.0
 51
0.0
 71
     0
 72
  2000
 73
     1
 74
     3
 75
     0
 76
     0
 77
     0
 78
     0
  0
ENDTAB
  0
TABLE
  2
LTYPE
 70
     6
  0
LTYPE
  2
CONTINUOUS
 70
     0
  3
Solid line
 72
    65
 73
     0
 40
0.0
  0
LTYPE
  2
HIDDEN
 70
     0
  3
Hidden __ __ __ __ __ __ __ __ __ __ __ __ __ __
 72
    65
 73
     2
 40
1.905
 49
1.27
 49
-0.635
  0
LTYPE
  2
PHANTOM
 70
     0
  3
Phantom ______  __  __  ______  __  __  ______
 72
    65
 73
     6
 40
12.7
 49
6.35
 49
-1.27
 49
1.27
 49
-1.27
 49
1.27
 49
-1.27
  0
LTYPE
  2
CENTER
 70
     0
  3
Center ____ _ ____ _ ____ _ ____ _ ____ _ ____
 72
    65
 73
     4
 40
10.16
 49
6.35
 49
-1.27
 49
1.27
 49
-1.27
  0
LTYPE
  2
CENTERX2
 70
     0
  3
Center (2x) ________  __  ________  __  _____
 72
    65
 73
     4
 40
20.32
 49
12.7
 49
-2.54
 49
2.54
 49
-2.54
  0
LTYPE
  2
DOT2
 70
     0
  3
Dot (.5x) ........................................
 72
    65
 73
     2
 40
0.635
 49
0.0
 49
-0.635
  0
ENDTAB
  0
TABLE
  2
LAYER
 70
     1
  0
LAYER
  2
0
 70
     0
 62
     7
  6
CONTINUOUS
  0
ENDTAB
  0
TABLE
  2
STYLE
 70
     1
  0
STYLE
  2
STANDARD
 70
     0
 40
0.0
 41
1.0
 50
0.0
 71
     0
 42
3.5
  3
txt
  4

  0
ENDTAB
  0
TABLE
  2
VIEW
 70
     0
  0
ENDTAB
  0
TABLE
  2
UCS
 70
     0
  0
ENDTAB
  0
TABLE
  2
APPID
 70
     1
  0
APPID
  2
ACAD
 70
     0
  0
ENDTAB
  0
TABLE
  2
DIMSTYLE
 70
     1
  0
DIMSTYLE
  2
ISO-25
 70
     0
  3

  4

  5

  6

  7

 40
1.0
 41
2.5
 42
0.625
 43
3.75
 44
1.25
 45
0.0
 46
0.0
 47
0.0
 48
0.0
140
2.5
141
2.5
142
0.0
143
0.0393700787
144
1.0
145
0.0
146
1.0
147
0.625
 71
     0
 72
     0
 73
     0
 74
     0
 75
     0
 76
     0
 77
     1
 78
     8
170
     0
171
     3
172
     1
173
     0
174
     0
175
     0
176
     0
177
     0
178
     0
  0
ENDTAB
  0
ENDSEC
  0
SECTION
  2
BLOCKS
  0
BLOCK
  8
0
  2
$MODEL_SPACE
 70
     0
 10
0.0
 20
0.0
 30
0.0
  3
$MODEL_SPACE
  1

  0
ENDBLK
  5
21
  8
0
  0
BLOCK
 67
     1
  8
0
  2
$PAPER_SPACE
 70
     0
 10
0.0
 20
0.0
 30
0.0
  3
$PAPER_SPACE
  1

  0
ENDBLK
  5
1D
 67
     1
  8
0
  0
ENDSEC
  0
SECTION
  2
ENTITIES
  0
LINE
  5
73
  8
0
  6
CONTINUOUS
 62
     7
 10
237.9056640994
 20
493.0200039395
 30
0.0
 11
237.9056640994
 21
458.0200037905
 31
0.0
  0
LINE
  5
74
  8
0
  6
CONTINUOUS
 62
     7
 10
173.9056610596
 20
493.0200039395
 30
0.0
 11
178.4056608659
 21
493.0200039395
 31
0.0
  0
LINE
  5
75
  8
0
  6
CONTINUOUS
 62
     7
 10
178.4056608659
 20
493.0200039395
 30
0.0
 11
178.4056608659
 21
490.0200053104
 31
0.0
  0
LINE
  5
76
  8
0
  6
CONTINUOUS
 62
     7
 10
178.4056608659
 20
490.0200053104
 30
0.0
 11
198.4056604188
 21
490.0200053104
 31
0.0
  0
LINE
  5
77
  8
0
  6
CONTINUOUS
 62
     7
 10
198.4056604188
 20
493.0200039395
 30
0.0
 11
198.4056604188
 21
490.0200053104
 31
0.0
  0
LINE
  5
78
  8
0
  6
CONTINUOUS
 62
     7
 10
198.4056604188
 20
493.0200039395
 30
0.0
 11
213.4056628775
 21
493.0200039395
 31
0.0
  0
LINE
  5
79
  8
0
  6
CONTINUOUS
 62
     7
 10
213.4056628775
 20
493.0200039395
 30
0.0
 11
213.4056628775
 21
490.0200053104
 31
0.0
  0
LINE
  5
7A
  8
0
  6
CONTINUOUS
 62
     7
 10
213.4056628775
 20
490.0200053104
 30
0.0
 11
233.4056624305
 21
490.0200053104
 31
0.0
  0
LINE
  5
7B
  8
0
  6
CONTINUOUS
 62
     7
 10
233.4056624305
 20
493.0200039395
 30
0.0
 11
233.4056624305
 21
490.0200053104
 31
0.0
  0
LINE
  5
7C
  8
0
  6
CONTINUOUS
 62
     7
 10
233.4056624305
 20
493.0200039395
 30
0.0
 11
237.9056640994
 21
493.0200039395
 31
0.0
  0
LINE
  5
7D
  8
0
  6
CONTINUOUS
 62
     7
 10
233.4056624305
 20
458.0200037905
 30
0.0
 11
237.9056640994
 21
458.0200037905
 31
0.0
  0
LINE
  5
7E
  8
0
  6
CONTINUOUS
 62
     7
 10
233.4056624305
 20
458.0200037905
 30
0.0
 11
233.4056624305
 21
455.0200037644
 31
0.0
  0
LINE
  5
7F
  8
0
  6
CONTINUOUS
 62
     7
 10
213.4056628775
 20
455.0200037644
 30
0.0
 11
233.4056624305
 21
455.0200037644
 31
0.0
  0
LINE
  5
80
  8
0
  6
CONTINUOUS
 62
     7
 10
213.4056628775
 20
458.0200037905
 30
0.0
 11
213.4056628775
 21
455.0200037644
 31
0.0
  0
LINE
  5
81
  8
0
  6
CONTINUOUS
 62
     7
 10
198.4056604188
 20
458.0200037905
 30
0.0
 11
213.4056628775
 21
458.0200037905
 31
0.0
  0
LINE
  5
82
  8
0
  6
CONTINUOUS
 62
     7
 10
198.4056604188
 20
458.0200037905
 30
0.0
 11
198.4056604188
 21
455.0200037644
 31
0.0
  0
LINE
  5
83
  8
0
  6
CONTINUOUS
 62
     7
 10
178.4056608659
 20
455.0200037644
 30
0.0
 11
198.4056604188
 21
455.0200037644
 31
0.0
  0
LINE
  5
84
  8
0
  6
CONTINUOUS
 62
     7
 10
178.4056608659
 20
458.0200037905
 30
0.0
 11
178.4056608659
 21
455.0200037644
 31
0.0
  0
LINE
  5
85
  8
0
  6
CONTINUOUS
 62
     7
 10
173.9056610596
 20
458.0200037905
 30
0.0
 11
178.4056608659
 21
458.0200037905
 31
0.0
  0
LINE
  5
86
  8
0
  6
CONTINUOUS
 62
     7
 10
173.9056610596
 20
458.0200037905
 30
0.0
 11
173.9056610596
 21
493.0200039395
 31
0.0
  0
LINE
  5
87
  8
0
  6
CONTINUOUS
 62
     7
 10
101.2362145634
 20
267.4242147887
 30
0.0
 11
113.2362146677
 21
267.4242147887
 31
0.0
  0
LINE
  5
88
  8
0
  6
CONTINUOUS
 62
     7
 10
113.2362146677
 20
267.4242147887
 30
0.0
 11
113.2362146677
 21
270.4242134178
 31
0.0
  0
LINE
  5
89
  8
0
  6
CONTINUOUS
 62
     7
 10
113.2362146677
 20
270.4242134178
 30
0.0
 11
133.2362160833
 21
270.4242134178
 31
0.0
  0
LINE
  5
8A
  8
0
  6
CONTINUOUS
 62
     7
 10
133.2362160833
 20
267.4242147887
 30
0.0
 11
133.2362160833
 21
270.4242134178
 31
0.0
  0
LINE
  5
8B
  8
0
  6
CONTINUOUS
 62
     7
 10
133.2362160833
 20
267.4242147887
 30
0.0
 11
148.2362129541
 21
267.4242147887
 31
0.0
  0
LINE
  5
8C
  8
0
  6
CONTINUOUS
 62
     7
 10
148.2362129541
 20
267.4242147887
 30
0.0
 11
148.2362129541
 21
270.4242134178
 31
0.0
  0
LINE
  5
8D
  8
0
  6
CONTINUOUS
 62
     7
 10
148.2362129541
 20
270.4242134178
 30
0.0
 11
168.2362162323
 21
270.4242134178
 31
0.0
  0
LINE
  5
8E
  8
0
  6
CONTINUOUS
 62
     7
 10
168.2362162323
 20
267.4242147887
 30
0.0
 11
168.2362162323
 21
270.4242134178
 31
0.0
  0
LINE
  5
8F
  8
0
  6
CONTINUOUS
 62
     7
 10
168.2362162323
 20
267.4242147887
 30
0.0
 11
183.2362168284
 21
267.4242147887
 31
0.0
  0
LINE
  5
90
  8
0
  6
CONTINUOUS
 62
     7
 10
183.2362168284
 20
267.4242147887
 30
0.0
 11
183.2362168284
 21
270.4242134178
 31
0.0
  0
LINE
  5
91
  8
0
  6
CONTINUOUS
 62
     7
 10
183.2362168284
 20
270.4242134178
 30
0.0
 11
203.236212656
 21
270.4242134178
 31
0.0
  0
LINE
  5
92
  8
0
  6
CONTINUOUS
 62
     7
 10
203.236212656
 20
267.4242147887
 30
0.0
 11
203.236212656
 21
270.4242134178
 31
0.0
  0
LINE
  5
93
  8
0
  6
CONTINUOUS
 62
     7
 10
203.236212656
 20
267.4242147887
 30
0.0
 11
218.2362132521
 21
267.4242147887
 31
0.0
  0
LINE
  5
94
  8
0
  6
CONTINUOUS
 62
     7
 10
218.2362132521
 20
267.4242147887
 30
0.0
 11
218.2362132521
 21
270.4242134178
 31
0.0
  0
LINE
  5
95
  8
0
  6
CONTINUOUS
 62
     7
 10
218.2362132521
 20
270.4242134178
 30
0.0
 11
238.2362090798
 21
270.4242134178
 31
0.0
  0
LINE
  5
96
  8
0
  6
CONTINUOUS
 62
     7
 10
238.2362090798
 20
267.4242147887
 30
0.0
 11
238.2362090798
 21
270.4242134178
 31
0.0
  0
LINE
  5
97
  8
0
  6
CONTINUOUS
 62
     7
 10
238.2362090798
 20
267.4242147887
 30
0.0
 11
253.2362096758
 21
267.4242147887
 31
0.0
  0
LINE
  5
98
  8
0
  6
CONTINUOUS
 62
     7
 10
253.2362096758
 20
267.4242147887
 30
0.0
 11
253.2362096758
 21
270.4242134178
 31
0.0
  0
LINE
  5
99
  8
0
  6
CONTINUOUS
 62
     7
 10
253.2362096758
 20
270.4242134178
 30
0.0
 11
273.2362204047
 21
270.4242134178
 31
0.0
  0
LINE
  5
9A
  8
0
  6
CONTINUOUS
 62
     7
 10
273.2362204047
 20
267.4242147887
 30
0.0
 11
273.2362204047
 21
270.4242134178
 31
0.0
  0
LINE
  5
9B
  8
0
  6
CONTINUOUS
 62
     7
 10
273.2362204047
 20
267.4242147887
 30
0.0
 11
285.236214921
 21
267.4242147887
 31
0.0
  0
LINE
  5
9C
  8
0
  6
CONTINUOUS
 62
     7
 10
285.236214921
 20
302.4242149377
 30
0.0
 11
285.236214921
 21
267.4242147887
 31
0.0
  0
LINE
  5
9D
  8
0
  6
CONTINUOUS
 62
     7
 10
273.2362204047
 20
302.4242149377
 30
0.0
 11
285.236214921
 21
302.4242149377
 31
0.0
  0
LINE
  5
9E
  8
0
  6
CONTINUOUS
 62
     7
 10
273.2362204047
 20
302.4242149377
 30
0.0
 11
273.2362204047
 21
305.4242149638
 31
0.0
  0
LINE
  5
9F
  8
0
  6
CONTINUOUS
 62
     7
 10
253.2362096758
 20
305.4242149638
 30
0.0
 11
273.2362204047
 21
305.4242149638
 31
0.0
  0
LINE
  5
A0
  8
0
  6
CONTINUOUS
 62
     7
 10
253.2362096758
 20
302.4242149377
 30
0.0
 11
253.2362096758
 21
305.4242149638
 31
0.0
  0
LINE
  5
A1
  8
0
  6
CONTINUOUS
 62
     7
 10
238.2362090798
 20
302.4242149377
 30
0.0
 11
253.2362096758
 21
302.4242149377
 31
0.0
  0
LINE
  5
A2
  8
0
  6
CONTINUOUS
 62
     7
 10
238.2362090798
 20
302.4242149377
 30
0.0
 11
238.2362090798
 21
305.4242149638
 31
0.0
  0
LINE
  5
A3
  8
0
  6
CONTINUOUS
 62
     7
 10
218.2362132521
 20
305.4242149638
 30
0.0
 11
238.2362090798
 21
305.4242149638
 31
0.0
  0
LINE
  5
A4
  8
0
  6
CONTINUOUS
 62
     7
 10
218.2362132521
 20
302.4242149377
 30
0.0
 11
218.2362132521
 21
305.4242149638
 31
0.0
  0
LINE
  5
A5
  8
0
  6
CONTINUOUS
 62
     7
 10
203.236212656
 20
302.4242149377
 30
0.0
 11
218.2362132521
 21
302.4242149377
 31
0.0
  0
LINE
  5
A6
  8
0
  6
CONTINUOUS
 62
     7
 10
203.236212656
 20
302.4242149377
 30
0.0
 11
203.236212656
 21
305.4242149638
 31
0.0
  0
LINE
  5
A7
  8
0
  6
CONTINUOUS
 62
     7
 10
183.2362168284
 20
305.4242149638
 30
0.0
 11
203.236212656
 21
305.4242149638
 31
0.0
  0
LINE
  5
A8
  8
0
  6
CONTINUOUS
 62
     7
 10
183.2362168284
 20
302.4242149377
 30
0.0
 11
183.2362168284
 21
305.4242149638
 31
0.0
  0
LINE
  5
A9
  8
0
  6
CONTINUOUS
 62
     7
 10
168.2362162323
 20
302.4242149377
 30
0.0
 11
183.2362168284
 21
302.4242149377
 31
0.0
  0
LINE
  5
AA
  8
0
  6
CONTINUOUS
 62
     7
 10
168.2362162323
 20
302.4242149377
 30
0.0
 11
168.2362162323
 21
305.4242149638
 31
0.0
  0
LINE
  5
AB
  8
0
  6
CONTINUOUS
 62
     7
 10
148.2362129541
 20
305.4242149638
 30
0.0
 11
168.2362162323
 21
305.4242149638
 31
0.0
  0
LINE
  5
AC
  8
0
  6
CONTINUOUS
 62
     7
 10
148.2362129541
 20
302.4242149377
 30
0.0
 11
148.2362129541
 21
305.4242149638
 31
0.0
  0
LINE
  5
AD
  8
0
  6
CONTINUOUS
 62
     7
 10
133.2362160833
 20
302.4242149377
 30
0.0
 11
148.2362129541
 21
302.4242149377
 31
0.0
  0
LINE
  5
AE
  8
0
  6
CONTINUOUS
 62
     7
 10
133.2362160833
 20
302.4242149377
 30
0.0
 11
133.2362160833
 21
305.4242149638
 31
0.0
  0
LINE
  5
AF
  8
0
  6
CONTINUOUS
 62
     7
 10
113.2362146677
 20
305.4242149638
 30
0.0
 11
133.2362160833
 21
305.4242149638
 31
0.0
  0
LINE
  5
B0
  8
0
  6
CONTINUOUS
 62
     7
 10
113.2362146677
 20
302.4242149377
 30
0.0
 11
113.2362146677
 21
305.4242149638
 31
0.0
  0
LINE
  5
B1
  8
0
  6
CONTINUOUS
 62
     7
 10
101.2362145634
 20
302.4242149377
 30
0.0
 11
113.2362146677
 21
302.4242149377
 31
0.0
  0
LINE
  5
B2
  8
0
  6
CONTINUOUS
 62
     7
 10
101.2362145634
 20
302.4242149377
 30
0.0
 11
101.2362145634
 21
267.4242147887
 31
0.0
  0
LINE
  5
B3
  8
0
  6
CONTINUOUS
 62
     7
 10
241.2228584193
 20
359.3771118665
 30
0.0
 11
241.2228584193
 21
324.3771117175
 31
0.0
  0
LINE
  5
B4
  8
0
  6
CONTINUOUS
 62
     7
 10
177.2228553795
 20
359.3771118665
 30
0.0
 11
181.7228551858
 21
359.3771118665
 31
0.0
  0
LINE
  5
B5
  8
0
  6
CONTINUOUS
 62
     7
 10
181.7228551858
 20
359.3771118665
 30
0.0
 11
181.7228551858
 21
356.3771132374
 31
0.0
  0
LINE
  5
B6
  8
0
  6
CONTINUOUS
 62
     7
 10
181.7228551858
 20
356.3771132374
 30
0.0
 11
201.7228547388
 21
356.3771132374
 31
0.0
  0
LINE
  5
B7
  8
0
  6
CONTINUOUS
 62
     7
 10
201.7228547388
 20
359.3771118665
 30
0.0
 11
201.7228547388
 21
356.3771132374
 31
0.0
  0
LINE
  5
B8
  8
0
  6
CONTINUOUS
 62
     7
 10
201.7228547388
 20
359.3771118665
 30
0.0
 11
216.7228571974
 21
359.3771118665
 31
0.0
  0
LINE
  5
B9
  8
0
  6
CONTINUOUS
 62
     7
 10
216.7228571974
 20
359.3771118665
 30
0.0
 11
216.7228571974
 21
356.3771132374
 31
0.0
  0
LINE
  5
BA
  8
0
  6
CONTINUOUS
 62
     7
 10
216.7228571974
 20
356.3771132374
 30
0.0
 11
236.7228567504
 21
356.3771132374
 31
0.0
  0
LINE
  5
BB
  8
0
  6
CONTINUOUS
 62
     7
 10
236.7228567504
 20
359.3771118665
 30
0.0
 11
236.7228567504
 21
356.3771132374
 31
0.0
  0
LINE
  5
BC
  8
0
  6
CONTINUOUS
 62
     7
 10
236.7228567504
 20
359.3771118665
 30
0.0
 11
241.2228584193
 21
359.3771118665
 31
0.0
  0
LINE
  5
BD
  8
0
  6
CONTINUOUS
 62
     7
 10
236.7228567504
 20
324.3771117175
 30
0.0
 11
241.2228584193
 21
324.3771117175
 31
0.0
  0
LINE
  5
BE
  8
0
  6
CONTINUOUS
 62
     7
 10
236.7228567504
 20
324.3771117175
 30
0.0
 11
236.7228567504
 21
321.3771116914
 31
0.0
  0
LINE
  5
BF
  8
0
  6
CONTINUOUS
 62
     7
 10
216.7228571974
 20
321.3771116914
 30
0.0
 11
236.7228567504
 21
321.3771116914
 31
0.0
  0
LINE
  5
C0
  8
0
  6
CONTINUOUS
 62
     7
 10
216.7228571974
 20
324.3771117175
 30
0.0
 11
216.7228571974
 21
321.3771116914
 31
0.0
  0
LINE
  5
C1
  8
0
  6
CONTINUOUS
 62
     7
 10
201.7228547388
 20
324.3771117175
 30
0.0
 11
216.7228571974
 21
324.3771117175
 31
0.0
  0
LINE
  5
C2
  8
0
  6
CONTINUOUS
 62
     7
 10
201.7228547388
 20
324.3771117175
 30
0.0
 11
201.7228547388
 21
321.3771116914
 31
0.0
  0
LINE
  5
C3
  8
0
  6
CONTINUOUS
 62
     7
 10
181.7228551858
 20
321.3771116914
 30
0.0
 11
201.7228547388
 21
321.3771116914
 31
0.0
  0
LINE
  5
C4
  8
0
  6
CONTINUOUS
 62
     7
 10
181.7228551858
 20
324.3771117175
 30
0.0
 11
181.7228551858
 21
321.3771116914
 31
0.0
  0
LINE
  5
C5
  8
0
  6
CONTINUOUS
 62
     7
 10
177.2228553795
 20
324.3771117175
 30
0.0
 11
181.7228551858
 21
324.3771117175
 31
0.0
  0
LINE
  5
C6
  8
0
  6
CONTINUOUS
 62
     7
 10
177.2228553795
 20
324.3771117175
 30
0.0
 11
177.2228553795
 21
359.3771118665
 31
0.0
  0
LINE
  5
C7
  8
0
  6
CONTINUOUS
 62
     7
 10
240.9122134303
 20
447.2173089334
 30
0.0
 11
240.9122134303
 21
412.2173087844
 31
0.0
  0
LINE
  5
C8
  8
0
  6
CONTINUOUS
 62
     7
 10
176.9122103905
 20
447.2173089334
 30
0.0
 11
181.4122101967
 21
447.2173089334
 31
0.0
  0
LINE
  5
C9
  8
0
  6
CONTINUOUS
 62
     7
 10
181.4122101967
 20
447.2173089334
 30
0.0
 11
181.4122101967
 21
444.2173103043
 31
0.0
  0
LINE
  5
CA
  8
0
  6
CONTINUOUS
 62
     7
 10
181.4122101967
 20
444.2173103043
 30
0.0
 11
201.4122097497
 21
444.2173103043
 31
0.0
  0
LINE
  5
CB
  8
0
  6
CONTINUOUS
 62
     7
 10
201.4122097497
 20
447.2173089334
 30
0.0
 11
201.4122097497
 21
444.2173103043
 31
0.0
  0
LINE
  5
CC
  8
0
  6
CONTINUOUS
 62
     7
 10
201.4122097497
 20
447.2173089334
 30
0.0
 11
216.4122122084
 21
447.2173089334
 31
0.0
  0
LINE
  5
CD
  8
0
  6
CONTINUOUS
 62
     7
 10
216.4122122084
 20
447.2173089334
 30
0.0
 11
216.4122122084
 21
444.2173103043
 31
0.0
  0
LINE
  5
CE
  8
0
  6
CONTINUOUS
 62
     7
 10
216.4122122084
 20
444.2173103043
 30
0.0
 11
236.4122117614
 21
444.2173103043
 31
0.0
  0
LINE
  5
CF
  8
0
  6
CONTINUOUS
 62
     7
 10
236.4122117614
 20
447.2173089334
 30
0.0
 11
236.4122117614
 21
444.2173103043
 31
0.0
  0
LINE
  5
D0
  8
0
  6
CONTINUOUS
 62
     7
 10
236.4122117614
 20
447.2173089334
 30
0.0
 11
240.9122134303
 21
447.2173089334
 31
0.0
  0
LINE
  5
D1
  8
0
  6
CONTINUOUS
 62
     7
 10
236.4122117614
 20
412.2173087844
 30
0.0
 11
240.9122134303
 21
412.2173087844
 31
0.0
  0
LINE
  5
D2
  8
0
  6
CONTINUOUS
 62
     7
 10
236.4122117614
 20
412.2173087844
 30
0.0
 11
236.4122117614
 21
409.2173087583
 31
0.0
  0
LINE
  5
D3
  8
0
  6
CONTINUOUS
 62
     7
 10
216.4122122084
 20
409.2173087583
 30
0.0
 11
236.4122117614
 21
409.2173087583
 31
0.0
  0
LINE
  5
D4
  8
0
  6
CONTINUOUS
 62
     7
 10
216.4122122084
 20
412.2173087844
 30
0.0
 11
216.4122122084
 21
409.2173087583
 31
0.0
  0
LINE
  5
D5
  8
0
  6
CONTINUOUS
 62
     7
 10
201.4122097497
 20
412.2173087844
 30
0.0
 11
216.4122122084
 21
412.2173087844
 31
0.0
  0
LINE
  5
D6
  8
0
  6
CONTINUOUS
 62
     7
 10
201.4122097497
 20
412.2173087844
 30
0.0
 11
201.4122097497
 21
409.2173087583
 31
0.0
  0
LINE
  5
D7
  8
0
  6
CONTINUOUS
 62
     7
 10
181.4122101967
 20
409.2173087583
 30
0.0
 11
201.4122097497
 21
409.2173087583
 31
0.0
  0
LINE
  5
D8
  8
0
  6
CONTINUOUS
 62
     7
 10
181.4122101967
 20
412.2173087844
 30
0.0
 11
181.4122101967
 21
409.2173087583
 31
0.0
  0
LINE
  5
D9
  8
0
  6
CONTINUOUS
 62
     7
 10
176.9122103905
 20
412.2173087844
 30
0.0
 11
181.4122101967
 21
412.2173087844
 31
0.0
  0
LINE
  5
DA
  8
0
  6
CONTINUOUS
 62
     7
 10
176.9122103905
 20
412.2173087844
 30
0.0
 11
176.9122103905
 21
447.2173089334
 31
0.0
  0
LINE
  5
DB
  8
0
  6
CONTINUOUS
 62
     7
 10
240.9469194453
 20
403.6205769152
 30
0.0
 11
240.9469194453
 21
368.6205767661
 31
0.0
  0
LINE
  5
DC
  8
0
  6
CONTINUOUS
 62
     7
 10
176.9469164055
 20
403.6205769152
 30
0.0
 11
181.4469162118
 21
403.6205769152
 31
0.0
  0
LINE
  5
DD
  8
0
  6
CONTINUOUS
 62
     7
 10
181.4469162118
 20
403.6205769152
 30
0.0
 11
181.4469162118
 21
400.6205782861
 31
0.0
  0
LINE
  5
DE
  8
0
  6
CONTINUOUS
 62
     7
 10
181.4469162118
 20
400.6205782861
 30
0.0
 11
201.4469157647
 21
400.6205782861
 31
0.0
  0
LINE
  5
DF
  8
0
  6
CONTINUOUS
 62
     7
 10
201.4469157647
 20
403.6205769152
 30
0.0
 11
201.4469157647
 21
400.6205782861
 31
0.0
  0
LINE
  5
E0
  8
0
  6
CONTINUOUS
 62
     7
 10
201.4469157647
 20
403.6205769152
 30
0.0
 11
216.4469182234
 21
403.6205769152
 31
0.0
  0
LINE
  5
E1
  8
0
  6
CONTINUOUS
 62
     7
 10
216.4469182234
 20
403.6205769152
 30
0.0
 11
216.4469182234
 21
400.6205782861
 31
0.0
  0
LINE
  5
E2
  8
0
  6
CONTINUOUS
 62
     7
 10
216.4469182234
 20
400.6205782861
 30
0.0
 11
236.4469177764
 21
400.6205782861
 31
0.0
  0
LINE
  5
E3
  8
0
  6
CONTINUOUS
 62
     7
 10
236.4469177764
 20
403.6205769152
 30
0.0
 11
236.4469177764
 21
400.6205782861
 31
0.0
  0
LINE
  5
E4
  8
0
  6
CONTINUOUS
 62
     7
 10
236.4469177764
 20
403.6205769152
 30
0.0
 11
240.9469194453
 21
403.6205769152
 31
0.0
  0
LINE
  5
E5
  8
0
  6
CONTINUOUS
 62
     7
 10
236.4469177764
 20
368.6205767661
 30
0.0
 11
240.9469194453
 21
368.6205767661
 31
0.0
  0
LINE
  5
E6
  8
0
  6
CONTINUOUS
 62
     7
 10
236.4469177764
 20
368.6205767661
 30
0.0
 11
236.4469177764
 21
365.6205767401
 31
0.0
  0
LINE
  5
E7
  8
0
  6
CONTINUOUS
 62
     7
 10
216.4469182234
 20
365.6205767401
 30
0.0
 11
236.4469177764
 21
365.6205767401
 31
0.0
  0
LINE
  5
E8
  8
0
  6
CONTINUOUS
 62
     7
 10
216.4469182234
 20
368.6205767661
 30
0.0
 11
216.4469182234
 21
365.6205767401
 31
0.0
  0
LINE
  5
E9
  8
0
  6
CONTINUOUS
 62
     7
 10
201.4469157647
 20
368.6205767661
 30
0.0
 11
216.4469182234
 21
368.6205767661
 31
0.0
  0
LINE
  5
EA
  8
0
  6
CONTINUOUS
 62
     7
 10
201.4469157647
 20
368.6205767661
 30
0.0
 11
201.4469157647
 21
365.6205767401
 31
0.0
  0
LINE
  5
EB
  8
0
  6
CONTINUOUS
 62
     7
 10
181.4469162118
 20
365.6205767401
 30
0.0
 11
201.4469157647
 21
365.6205767401
 31
0.0
  0
LINE
  5
EC
  8
0
  6
CONTINUOUS
 62
     7
 10
181.4469162118
 20
368.6205767661
 30
0.0
 11
181.4469162118
 21
365.6205767401
 31
0.0
  0
LINE
  5
ED
  8
0
  6
CONTINUOUS
 62
     7
 10
176.9469164055
 20
368.6205767661
 30
0.0
 11
181.4469162118
 21
368.6205767661
 31
0.0
  0
LINE
  5
EE
  8
0
  6
CONTINUOUS
 62
     7
 10
176.9469164055
 20
368.6205767661
 30
0.0
 11
176.9469164055
 21
403.6205769152
 31
0.0
  0
LINE
  5
EF
  8
0
  6
CONTINUOUS
 62
     7
 10
311.5162836635
 20
485.6434479608
 30
0.0
 11
311.5162836635
 21
482.6434567823
 31
0.0
  0
LINE
  5
F0
  8
0
  6
CONTINUOUS
 62
     7
 10
311.5162836635
 20
482.6434567823
 30
0.0
 11
331.5162832164
 21
482.6434567823
 31
0.0
  0
LINE
  5
F1
  8
0
  6
CONTINUOUS
 62
     7
 10
331.5162832164
 20
482.6434567823
 30
0.0
 11
331.5162832164
 21
485.6434479608
 31
0.0
  0
LINE
  5
F2
  8
0
  6
CONTINUOUS
 62
     7
 10
331.5162832164
 20
485.6434479608
 30
0.0
 11
311.5162836635
 21
485.6434479608
 31
0.0
  0
LINE
  5
F3
  8
0
  6
CONTINUOUS
 62
     7
 10
296.5162839987
 20
476.6434744253
 30
0.0
 11
296.5162839987
 21
456.6434636965
 31
0.0
  0
LINE
  5
F4
  8
0
  6
CONTINUOUS
 62
     7
 10
296.5162839987
 20
456.6434636965
 30
0.0
 11
299.5162844905
 21
456.6434636965
 31
0.0
  0
LINE
  5
F5
  8
0
  6
CONTINUOUS
 62
     7
 10
299.5162844905
 20
456.6434636965
 30
0.0
 11
299.5162844905
 21
476.6434744253
 31
0.0
  0
LINE
  5
F6
  8
0
  6
CONTINUOUS
 62
     7
 10
299.5162844905
 20
476.6434744253
 30
0.0
 11
296.5162839987
 21
476.6434744253
 31
0.0
  0
LINE
  5
F7
  8
0
  6
CONTINUOUS
 62
     7
 10
311.5162836635
 20
411.1434534445
 30
0.0
 11
331.5162832164
 21
411.1434534445
 31
0.0
  0
LINE
  5
F8
  8
0
  6
CONTINUOUS
 62
     7
 10
311.5162836635
 20
417.1434656038
 30
0.0
 11
331.5162832164
 21
417.1434656038
 31
0.0
  0
LINE
  5
F9
  8
0
  6
CONTINUOUS
 62
     7
 10
311.5162836635
 20
341.143460597
 30
0.0
 11
331.5162832164
 21
341.143460597
 31
0.0
  0
LINE
  5
FA
  8
0
  6
CONTINUOUS
 62
     7
 10
311.5162836635
 20
347.1434578552
 30
0.0
 11
331.5162832164
 21
347.1434578552
 31
0.0
  0
LINE
  5
FB
  8
0
  6
CONTINUOUS
 62
     7
 10
381.5162876868
 20
341.143460597
 30
0.0
 11
401.5162835144
 21
341.143460597
 31
0.0
  0
LINE
  5
FC
  8
0
  6
CONTINUOUS
 62
     7
 10
381.5162876868
 20
347.1434578552
 30
0.0
 11
401.5162835144
 21
347.1434578552
 31
0.0
  0
LINE
  5
FD
  8
0
  6
CONTINUOUS
 62
     7
 10
381.5162876868
 20
411.1434534445
 30
0.0
 11
401.5162835144
 21
411.1434534445
 31
0.0
  0
LINE
  5
FE
  8
0
  6
CONTINUOUS
 62
     7
 10
381.5162876868
 20
417.1434656038
 30
0.0
 11
401.5162835144
 21
417.1434656038
 31
0.0
  0
LINE
  5
FF
  8
0
  6
CONTINUOUS
 62
     7
 10
346.5162838125
 20
271.143460299
 30
0.0
 11
366.5162870907
 21
271.143460299
 31
0.0
  0
LINE
  5
100
  8
0
  6
CONTINUOUS
 62
     7
 10
346.5162838125
 20
277.1434575572
 30
0.0
 11
366.5162870907
 21
277.1434575572
 31
0.0
  0
LINE
  5
101
  8
0
  6
CONTINUOUS
 62
     7
 10
346.5162838125
 20
341.143460597
 30
0.0
 11
366.5162870907
 21
341.143460597
 31
0.0
  0
LINE
  5
102
  8
0
  6
CONTINUOUS
 62
     7
 10
346.5162838125
 20
347.1434578552
 30
0.0
 11
366.5162870907
 21
347.1434578552
 31
0.0
  0
LINE
  5
103
  8
0
  6
CONTINUOUS
 62
     7
 10
346.5162838125
 20
411.1434534445
 30
0.0
 11
366.5162870907
 21
411.1434534445
 31
0.0
  0
LINE
  5
104
  8
0
  6
CONTINUOUS
 62
     7
 10
346.5162838125
 20
417.1434656038
 30
0.0
 11
366.5162870907
 21
417.1434656038
 31
0.0
  0
LINE
  5
105
  8
0
  6
CONTINUOUS
 62
     7
 10
311.5162836635
 20
271.143460299
 30
0.0
 11
331.5162832164
 21
271.143460299
 31
0.0
  0
LINE
  5
106
  8
0
  6
CONTINUOUS
 62
     7
 10
311.5162836635
 20
277.1434575572
 30
0.0
 11
331.5162832164
 21
277.1434575572
 31
0.0
  0
LINE
  5
107
  8
0
  6
CONTINUOUS
 62
     7
 10
416.5162841105
 20
271.143460299
 30
0.0
 11
436.5162799382
 21
271.143460299
 31
0.0
  0
LINE
  5
108
  8
0
  6
CONTINUOUS
 62
     7
 10
416.5162841105
 20
277.1434575572
 30
0.0
 11
436.5162799382
 21
277.1434575572
 31
0.0
  0
LINE
  5
109
  8
0
  6
CONTINUOUS
 62
     7
 10
451.5162805342
 20
411.1434534445
 30
0.0
 11
471.516291263
 21
411.1434534445
 31
0.0
  0
LINE
  5
10A
  8
0
  6
CONTINUOUS
 62
     7
 10
451.5162805342
 20
417.1434656038
 30
0.0
 11
471.516291263
 21
417.1434656038
 31
0.0
  0
LINE
  5
10B
  8
0
  6
CONTINUOUS
 62
     7
 10
451.5162805342
 20
341.143460597
 30
0.0
 11
471.516291263
 21
341.143460597
 31
0.0
  0
LINE
  5
10C
  8
0
  6
CONTINUOUS
 62
     7
 10
451.5162805342
 20
347.1434578552
 30
0.0
 11
471.516291263
 21
347.1434578552
 31
0.0
  0
LINE
  5
10D
  8
0
  6
CONTINUOUS
 62
     7
 10
451.5162805342
 20
271.143460299
 30
0.0
 11
471.516291263
 21
271.143460299
 31
0.0
  0
LINE
  5
10E
  8
0
  6
CONTINUOUS
 62
     7
 10
451.5162805342
 20
277.1434575572
 30
0.0
 11
471.516291263
 21
277.1434575572
 31
0.0
  0
LINE
  5
10F
  8
0
  6
CONTINUOUS
 62
     7
 10
416.5162841105
 20
341.143460597
 30
0.0
 11
436.5162799382
 21
341.143460597
 31
0.0
  0
LINE
  5
110
  8
0
  6
CONTINUOUS
 62
     7
 10
416.5162841105
 20
347.1434578552
 30
0.0
 11
436.5162799382
 21
347.1434578552
 31
0.0
  0
LINE
  5
111
  8
0
  6
CONTINUOUS
 62
     7
 10
416.5162841105
 20
411.1434534445
 30
0.0
 11
436.5162799382
 21
411.1434534445
 31
0.0
  0
LINE
  5
112
  8
0
  6
CONTINUOUS
 62
     7
 10
416.5162841105
 20
417.1434656038
 30
0.0
 11
436.5162799382
 21
417.1434656038
 31
0.0
  0
LINE
  5
113
  8
0
  6
CONTINUOUS
 62
     7
 10
381.5162876868
 20
271.143460299
 30
0.0
 11
401.5162835144
 21
271.143460299
 31
0.0
  0
LINE
  5
114
  8
0
  6
CONTINUOUS
 62
     7
 10
381.5162876868
 20
277.1434575572
 30
0.0
 11
401.5162835144
 21
277.1434575572
 31
0.0
  0
LINE
  5
115
  8
0
  6
CONTINUOUS
 62
     7
 10
394.5162842297
 20
456.6434636965
 30
0.0
 11
394.5162842297
 21
476.6434744253
 31
0.0
  0
LINE
  5
116
  8
0
  6
CONTINUOUS
 62
     7
 10
388.5162869715
 20
476.6434744253
 30
0.0
 11
388.5162869715
 21
456.6434636965
 31
0.0
  0
LINE
  5
117
  8
0
  6
CONTINUOUS
 62
     7
 10
394.5162842297
 20
421.6434672727
 30
0.0
 11
394.5162842297
 21
441.6434631004
 31
0.0
  0
LINE
  5
118
  8
0
  6
CONTINUOUS
 62
     7
 10
388.5162869715
 20
441.6434631004
 30
0.0
 11
388.5162869715
 21
421.6434672727
 31
0.0
  0
LINE
  5
119
  8
0
  6
CONTINUOUS
 62
     7
 10
394.5162842297
 20
211.6434607907
 30
0.0
 11
394.5162842297
 21
231.6434622063
 31
0.0
  0
LINE
  5
11A
  8
0
  6
CONTINUOUS
 62
     7
 10
388.5162869715
 20
231.6434622063
 30
0.0
 11
388.5162869715
 21
211.6434607907
 31
0.0
  0
LINE
  5
11B
  8
0
  6
CONTINUOUS
 62
     7
 10
394.5162842297
 20
246.6434590771
 30
0.0
 11
394.5162842297
 21
266.6434586301
 31
0.0
  0
LINE
  5
11C
  8
0
  6
CONTINUOUS
 62
     7
 10
388.5162869715
 20
266.6434586301
 30
0.0
 11
388.5162869715
 21
246.6434590771
 31
0.0
  0
LINE
  5
11D
  8
0
  6
CONTINUOUS
 62
     7
 10
394.5162842297
 20
281.6434592261
 30
0.0
 11
394.5162842297
 21
301.6434625044
 31
0.0
  0
LINE
  5
11E
  8
0
  6
CONTINUOUS
 62
     7
 10
388.5162869715
 20
301.6434625044
 30
0.0
 11
388.5162869715
 21
281.6434592261
 31
0.0
  0
LINE
  5
11F
  8
0
  6
CONTINUOUS
 62
     7
 10
394.5162842297
 20
316.6434631004
 30
0.0
 11
394.5162842297
 21
336.6434589281
 31
0.0
  0
LINE
  5
120
  8
0
  6
CONTINUOUS
 62
     7
 10
388.5162869715
 20
336.6434589281
 30
0.0
 11
388.5162869715
 21
316.6434631004
 31
0.0
  0
LINE
  5
121
  8
0
  6
CONTINUOUS
 62
     7
 10
394.5162842297
 20
351.6434595241
 30
0.0
 11
394.5162842297
 21
371.6434553518
 31
0.0
  0
LINE
  5
122
  8
0
  6
CONTINUOUS
 62
     7
 10
388.5162869715
 20
371.6434553518
 30
0.0
 11
388.5162869715
 21
351.6434595241
 31
0.0
  0
LINE
  5
123
  8
0
  6
CONTINUOUS
 62
     7
 10
394.5162842297
 20
386.6434559479
 30
0.0
 11
394.5162842297
 21
406.6434666767
 31
0.0
  0
LINE
  5
124
  8
0
  6
CONTINUOUS
 62
     7
 10
388.5162869715
 20
406.6434666767
 30
0.0
 11
388.5162869715
 21
386.6434559479
 31
0.0
  0
LINE
  5
125
  8
0
  6
CONTINUOUS
 62
     7
 10
291.5162841105
 20
197.6434603586
 30
0.0
 11
291.5162841105
 21
490.6434729948
 31
0.0
  0
LINE
  5
126
  8
0
  6
CONTINUOUS
 62
     7
 10
291.5162841105
 20
490.6434729948
 30
0.0
 11
491.5162870907
 21
490.6434729948
 31
0.0
  0
LINE
  5
127
  8
0
  6
CONTINUOUS
 62
     7
 10
491.5162870907
 20
197.6434603586
 30
0.0
 11
491.5162870907
 21
490.6434729948
 31
0.0
  0
LINE
  5
128
  8
0
  6
CONTINUOUS
 62
     7
 10
291.5162841105
 20
197.6434603586
 30
0.0
 11
491.5162870907
 21
197.6434603586
 31
0.0
  0
LINE
  5
129
  8
0
  6
CONTINUOUS
 62
     7
 10
346.5162838125
 20
482.6434567823
 30
0.0
 11
366.5162870907
 21
482.6434567823
 31
0.0
  0
LINE
  5
12A
  8
0
  6
CONTINUOUS
 62
     7
 10
346.5162838125
 20
485.6434479608
 30
0.0
 11
346.5162838125
 21
482.6434567823
 31
0.0
  0
LINE
  5
12B
  8
0
  6
CONTINUOUS
 62
     7
 10
366.5162870907
 20
485.6434479608
 30
0.0
 11
346.5162838125
 21
485.6434479608
 31
0.0
  0
LINE
  5
12C
  8
0
  6
CONTINUOUS
 62
     7
 10
366.5162870907
 20
482.6434567823
 30
0.0
 11
366.5162870907
 21
485.6434479608
 31
0.0
  0
LINE
  5
12D
  8
0
  6
CONTINUOUS
 62
     7
 10
381.5162876868
 20
482.6434567823
 30
0.0
 11
401.5162835144
 21
482.6434567823
 31
0.0
  0
LINE
  5
12E
  8
0
  6
CONTINUOUS
 62
     7
 10
381.5162876868
 20
485.6434479608
 30
0.0
 11
381.5162876868
 21
482.6434567823
 31
0.0
  0
LINE
  5
12F
  8
0
  6
CONTINUOUS
 62
     7
 10
401.5162835144
 20
485.6434479608
 30
0.0
 11
381.5162876868
 21
485.6434479608
 31
0.0
  0
LINE
  5
130
  8
0
  6
CONTINUOUS
 62
     7
 10
401.5162835144
 20
482.6434567823
 30
0.0
 11
401.5162835144
 21
485.6434479608
 31
0.0
  0
LINE
  5
131
  8
0
  6
CONTINUOUS
 62
     7
 10
416.5162841105
 20
482.6434567823
 30
0.0
 11
436.5162799382
 21
482.6434567823
 31
0.0
  0
LINE
  5
132
  8
0
  6
CONTINUOUS
 62
     7
 10
416.5162841105
 20
485.6434479608
 30
0.0
 11
416.5162841105
 21
482.6434567823
 31
0.0
  0
LINE
  5
133
  8
0
  6
CONTINUOUS
 62
     7
 10
436.5162799382
 20
485.6434479608
 30
0.0
 11
416.5162841105
 21
485.6434479608
 31
0.0
  0
LINE
  5
134
  8
0
  6
CONTINUOUS
 62
     7
 10
436.5162799382
 20
482.6434567823
 30
0.0
 11
436.5162799382
 21
485.6434479608
 31
0.0
  0
LINE
  5
135
  8
0
  6
CONTINUOUS
 62
     7
 10
451.5162805342
 20
482.6434567823
 30
0.0
 11
471.516291263
 21
482.6434567823
 31
0.0
  0
LINE
  5
136
  8
0
  6
CONTINUOUS
 62
     7
 10
451.5162805342
 20
485.6434479608
 30
0.0
 11
451.5162805342
 21
482.6434567823
 31
0.0
  0
LINE
  5
137
  8
0
  6
CONTINUOUS
 62
     7
 10
471.516291263
 20
485.6434479608
 30
0.0
 11
451.5162805342
 21
485.6434479608
 31
0.0
  0
LINE
  5
138
  8
0
  6
CONTINUOUS
 62
     7
 10
471.516291263
 20
482.6434567823
 30
0.0
 11
471.516291263
 21
485.6434479608
 31
0.0
  0
LINE
  5
139
  8
0
  6
CONTINUOUS
 62
     7
 10
311.5162836635
 20
417.1434656038
 30
0.0
 11
311.5162836635
 21
411.1434534445
 31
0.0
  0
LINE
  5
13A
  8
0
  6
CONTINUOUS
 62
     7
 10
331.5162832164
 20
411.1434534445
 30
0.0
 11
331.5162832164
 21
417.1434656038
 31
0.0
  0
LINE
  5
13B
  8
0
  6
CONTINUOUS
 62
     7
 10
346.5162838125
 20
417.1434656038
 30
0.0
 11
346.5162838125
 21
411.1434534445
 31
0.0
  0
LINE
  5
13C
  8
0
  6
CONTINUOUS
 62
     7
 10
366.5162870907
 20
411.1434534445
 30
0.0
 11
366.5162870907
 21
417.1434656038
 31
0.0
  0
LINE
  5
13D
  8
0
  6
CONTINUOUS
 62
     7
 10
381.5162876868
 20
417.1434656038
 30
0.0
 11
381.5162876868
 21
411.1434534445
 31
0.0
  0
LINE
  5
13E
  8
0
  6
CONTINUOUS
 62
     7
 10
401.5162835144
 20
411.1434534445
 30
0.0
 11
401.5162835144
 21
417.1434656038
 31
0.0
  0
LINE
  5
13F
  8
0
  6
CONTINUOUS
 62
     7
 10
416.5162841105
 20
417.1434656038
 30
0.0
 11
416.5162841105
 21
411.1434534445
 31
0.0
  0
LINE
  5
140
  8
0
  6
CONTINUOUS
 62
     7
 10
436.5162799382
 20
411.1434534445
 30
0.0
 11
436.5162799382
 21
417.1434656038
 31
0.0
  0
LINE
  5
141
  8
0
  6
CONTINUOUS
 62
     7
 10
451.5162805342
 20
417.1434656038
 30
0.0
 11
451.5162805342
 21
411.1434534445
 31
0.0
  0
LINE
  5
142
  8
0
  6
CONTINUOUS
 62
     7
 10
471.516291263
 20
411.1434534445
 30
0.0
 11
471.516291263
 21
417.1434656038
 31
0.0
  0
LINE
  5
143
  8
0
  6
CONTINUOUS
 62
     7
 10
311.5162836635
 20
347.1434578552
 30
0.0
 11
311.5162836635
 21
341.143460597
 31
0.0
  0
LINE
  5
144
  8
0
  6
CONTINUOUS
 62
     7
 10
331.5162832164
 20
341.143460597
 30
0.0
 11
331.5162832164
 21
347.1434578552
 31
0.0
  0
LINE
  5
145
  8
0
  6
CONTINUOUS
 62
     7
 10
346.5162838125
 20
347.1434578552
 30
0.0
 11
346.5162838125
 21
341.143460597
 31
0.0
  0
LINE
  5
146
  8
0
  6
CONTINUOUS
 62
     7
 10
366.5162870907
 20
341.143460597
 30
0.0
 11
366.5162870907
 21
347.1434578552
 31
0.0
  0
LINE
  5
147
  8
0
  6
CONTINUOUS
 62
     7
 10
381.5162876868
 20
347.1434578552
 30
0.0
 11
381.5162876868
 21
341.143460597
 31
0.0
  0
LINE
  5
148
  8
0
  6
CONTINUOUS
 62
     7
 10
401.5162835144
 20
341.143460597
 30
0.0
 11
401.5162835144
 21
347.1434578552
 31
0.0
  0
LINE
  5
149
  8
0
  6
CONTINUOUS
 62
     7
 10
416.5162841105
 20
347.1434578552
 30
0.0
 11
416.5162841105
 21
341.143460597
 31
0.0
  0
LINE
  5
14A
  8
0
  6
CONTINUOUS
 62
     7
 10
436.5162799382
 20
341.143460597
 30
0.0
 11
436.5162799382
 21
347.1434578552
 31
0.0
  0
LINE
  5
14B
  8
0
  6
CONTINUOUS
 62
     7
 10
451.5162805342
 20
347.1434578552
 30
0.0
 11
451.5162805342
 21
341.143460597
 31
0.0
  0
LINE
  5
14C
  8
0
  6
CONTINUOUS
 62
     7
 10
471.516291263
 20
341.143460597
 30
0.0
 11
471.516291263
 21
347.1434578552
 31
0.0
  0
LINE
  5
14D
  8
0
  6
CONTINUOUS
 62
     7
 10
311.5162836635
 20
277.1434575572
 30
0.0
 11
311.5162836635
 21
271.143460299
 31
0.0
  0
LINE
  5
14E
  8
0
  6
CONTINUOUS
 62
     7
 10
331.5162832164
 20
271.143460299
 30
0.0
 11
331.5162832164
 21
277.1434575572
 31
0.0
  0
LINE
  5
14F
  8
0
  6
CONTINUOUS
 62
     7
 10
346.5162838125
 20
277.1434575572
 30
0.0
 11
346.5162838125
 21
271.143460299
 31
0.0
  0
LINE
  5
150
  8
0
  6
CONTINUOUS
 62
     7
 10
366.5162870907
 20
271.143460299
 30
0.0
 11
366.5162870907
 21
277.1434575572
 31
0.0
  0
LINE
  5
151
  8
0
  6
CONTINUOUS
 62
     7
 10
381.5162876868
 20
277.1434575572
 30
0.0
 11
381.5162876868
 21
271.143460299
 31
0.0
  0
LINE
  5
152
  8
0
  6
CONTINUOUS
 62
     7
 10
401.5162835144
 20
271.143460299
 30
0.0
 11
401.5162835144
 21
277.1434575572
 31
0.0
  0
LINE
  5
153
  8
0
  6
CONTINUOUS
 62
     7
 10
416.5162841105
 20
277.1434575572
 30
0.0
 11
416.5162841105
 21
271.143460299
 31
0.0
  0
LINE
  5
154
  8
0
  6
CONTINUOUS
 62
     7
 10
436.5162799382
 20
271.143460299
 30
0.0
 11
436.5162799382
 21
277.1434575572
 31
0.0
  0
LINE
  5
155
  8
0
  6
CONTINUOUS
 62
     7
 10
451.5162805342
 20
277.1434575572
 30
0.0
 11
451.5162805342
 21
271.143460299
 31
0.0
  0
LINE
  5
156
  8
0
  6
CONTINUOUS
 62
     7
 10
471.516291263
 20
271.143460299
 30
0.0
 11
471.516291263
 21
277.1434575572
 31
0.0
  0
LINE
  5
157
  8
0
  6
CONTINUOUS
 62
     7
 10
311.5162836635
 20
202.6434602468
 30
0.0
 11
331.5162832164
 21
202.6434602468
 31
0.0
  0
LINE
  5
158
  8
0
  6
CONTINUOUS
 62
     7
 10
311.5162836635
 20
205.6434607386
 30
0.0
 11
311.5162836635
 21
202.6434602468
 31
0.0
  0
LINE
  5
159
  8
0
  6
CONTINUOUS
 62
     7
 10
331.5162832164
 20
205.6434607386
 30
0.0
 11
311.5162836635
 21
205.6434607386
 31
0.0
  0
LINE
  5
15A
  8
0
  6
CONTINUOUS
 62
     7
 10
331.5162832164
 20
202.6434602468
 30
0.0
 11
331.5162832164
 21
205.6434607386
 31
0.0
  0
LINE
  5
15B
  8
0
  6
CONTINUOUS
 62
     7
 10
346.5162838125
 20
202.6434602468
 30
0.0
 11
366.5162870907
 21
202.6434602468
 31
0.0
  0
LINE
  5
15C
  8
0
  6
CONTINUOUS
 62
     7
 10
346.5162838125
 20
205.6434607386
 30
0.0
 11
346.5162838125
 21
202.6434602468
 31
0.0
  0
LINE
  5
15D
  8
0
  6
CONTINUOUS
 62
     7
 10
366.5162870907
 20
205.6434607386
 30
0.0
 11
346.5162838125
 21
205.6434607386
 31
0.0
  0
LINE
  5
15E
  8
0
  6
CONTINUOUS
 62
     7
 10
366.5162870907
 20
202.6434602468
 30
0.0
 11
366.5162870907
 21
205.6434607386
 31
0.0
  0
LINE
  5
15F
  8
0
  6
CONTINUOUS
 62
     7
 10
381.5162876868
 20
202.6434602468
 30
0.0
 11
401.5162835144
 21
202.6434602468
 31
0.0
  0
LINE
  5
160
  8
0
  6
CONTINUOUS
 62
     7
 10
381.5162876868
 20
205.6434607386
 30
0.0
 11
381.5162876868
 21
202.6434602468
 31
0.0
  0
LINE
  5
161
  8
0
  6
CONTINUOUS
 62
     7
 10
401.5162835144
 20
205.6434607386
 30
0.0
 11
381.5162876868
 21
205.6434607386
 31
0.0
  0
LINE
  5
162
  8
0
  6
CONTINUOUS
 62
     7
 10
401.5162835144
 20
202.6434602468
 30
0.0
 11
401.5162835144
 21
205.6434607386
 31
0.0
  0
LINE
  5
163
  8
0
  6
CONTINUOUS
 62
     7
 10
416.5162841105
 20
202.6434602468
 30
0.0
 11
436.5162799382
 21
202.6434602468
 31
0.0
  0
LINE
  5
164
  8
0
  6
CONTINUOUS
 62
     7
 10
416.5162841105
 20
205.6434607386
 30
0.0
 11
416.5162841105
 21
202.6434602468
 31
0.0
  0
LINE
  5
165
  8
0
  6
CONTINUOUS
 62
     7
 10
436.5162799382
 20
205.6434607386
 30
0.0
 11
416.5162841105
 21
205.6434607386
 31
0.0
  0
LINE
  5
166
  8
0
  6
CONTINUOUS
 62
     7
 10
436.5162799382
 20
202.6434602468
 30
0.0
 11
436.5162799382
 21
205.6434607386
 31
0.0
  0
LINE
  5
167
  8
0
  6
CONTINUOUS
 62
     7
 10
451.5162805342
 20
202.6434602468
 30
0.0
 11
471.516291263
 21
202.6434602468
 31
0.0
  0
LINE
  5
168
  8
0
  6
CONTINUOUS
 62
     7
 10
451.5162805342
 20
205.6434607386
 30
0.0
 11
451.5162805342
 21
202.6434602468
 31
0.0
  0
LINE
  5
169
  8
0
  6
CONTINUOUS
 62
     7
 10
471.516291263
 20
205.6434607386
 30
0.0
 11
451.5162805342
 21
205.6434607386
 31
0.0
  0
LINE
  5
16A
  8
0
  6
CONTINUOUS
 62
     7
 10
471.516291263
 20
202.6434602468
 30
0.0
 11
471.516291263
 21
205.6434607386
 31
0.0
  0
LINE
  5
16B
  8
0
  6
CONTINUOUS
 62
     7
 10
394.5162842297
 20
476.6434744253
 30
0.0
 11
388.5162869715
 21
476.6434744253
 31
0.0
  0
LINE
  5
16C
  8
0
  6
CONTINUOUS
 62
     7
 10
388.5162869715
 20
456.6434636965
 30
0.0
 11
394.5162842297
 21
456.6434636965
 31
0.0
  0
LINE
  5
16D
  8
0
  6
CONTINUOUS
 62
     7
 10
483.5162857794
 20
476.6434744253
 30
0.0
 11
483.5162857794
 21
456.6434636965
 31
0.0
  0
LINE
  5
16E
  8
0
  6
CONTINUOUS
 62
     7
 10
486.5162769579
 20
456.6434636965
 30
0.0
 11
486.5162769579
 21
476.6434744253
 31
0.0
  0
LINE
  5
16F
  8
0
  6
CONTINUOUS
 62
     7
 10
486.5162769579
 20
476.6434744253
 30
0.0
 11
483.5162857794
 21
476.6434744253
 31
0.0
  0
LINE
  5
170
  8
0
  6
CONTINUOUS
 62
     7
 10
483.5162857794
 20
456.6434636965
 30
0.0
 11
486.5162769579
 21
456.6434636965
 31
0.0
  0
LINE
  5
171
  8
0
  6
CONTINUOUS
 62
     7
 10
296.5162839987
 20
441.6434631004
 30
0.0
 11
296.5162839987
 21
421.6434672727
 31
0.0
  0
LINE
  5
172
  8
0
  6
CONTINUOUS
 62
     7
 10
299.5162844905
 20
421.6434672727
 30
0.0
 11
299.5162844905
 21
441.6434631004
 31
0.0
  0
LINE
  5
173
  8
0
  6
CONTINUOUS
 62
     7
 10
299.5162844905
 20
441.6434631004
 30
0.0
 11
296.5162839987
 21
441.6434631004
 31
0.0
  0
LINE
  5
174
  8
0
  6
CONTINUOUS
 62
     7
 10
296.5162839987
 20
421.6434672727
 30
0.0
 11
299.5162844905
 21
421.6434672727
 31
0.0
  0
LINE
  5
175
  8
0
  6
CONTINUOUS
 62
     7
 10
394.5162842297
 20
441.6434631004
 30
0.0
 11
388.5162869715
 21
441.6434631004
 31
0.0
  0
LINE
  5
176
  8
0
  6
CONTINUOUS
 62
     7
 10
388.5162869715
 20
421.6434672727
 30
0.0
 11
394.5162842297
 21
421.6434672727
 31
0.0
  0
LINE
  5
177
  8
0
  6
CONTINUOUS
 62
     7
 10
483.5162857794
 20
441.6434631004
 30
0.0
 11
483.5162857794
 21
421.6434672727
 31
0.0
  0
LINE
  5
178
  8
0
  6
CONTINUOUS
 62
     7
 10
486.5162769579
 20
421.6434672727
 30
0.0
 11
486.5162769579
 21
441.6434631004
 31
0.0
  0
LINE
  5
179
  8
0
  6
CONTINUOUS
 62
     7
 10
486.5162769579
 20
441.6434631004
 30
0.0
 11
483.5162857794
 21
441.6434631004
 31
0.0
  0
LINE
  5
17A
  8
0
  6
CONTINUOUS
 62
     7
 10
483.5162857794
 20
421.6434672727
 30
0.0
 11
486.5162769579
 21
421.6434672727
 31
0.0
  0
LINE
  5
17B
  8
0
  6
CONTINUOUS
 62
     7
 10
296.5162839987
 20
406.6434666767
 30
0.0
 11
296.5162839987
 21
386.6434559479
 31
0.0
  0
LINE
  5
17C
  8
0
  6
CONTINUOUS
 62
     7
 10
299.5162844905
 20
386.6434559479
 30
0.0
 11
299.5162844905
 21
406.6434666767
 31
0.0
  0
LINE
  5
17D
  8
0
  6
CONTINUOUS
 62
     7
 10
299.5162844905
 20
406.6434666767
 30
0.0
 11
296.5162839987
 21
406.6434666767
 31
0.0
  0
LINE
  5
17E
  8
0
  6
CONTINUOUS
 62
     7
 10
296.5162839987
 20
386.6434559479
 30
0.0
 11
299.5162844905
 21
386.6434559479
 31
0.0
  0
LINE
  5
17F
  8
0
  6
CONTINUOUS
 62
     7
 10
394.5162842297
 20
406.6434666767
 30
0.0
 11
388.5162869715
 21
406.6434666767
 31
0.0
  0
LINE
  5
180
  8
0
  6
CONTINUOUS
 62
     7
 10
388.5162869715
 20
386.6434559479
 30
0.0
 11
394.5162842297
 21
386.6434559479
 31
0.0
  0
LINE
  5
181
  8
0
  6
CONTINUOUS
 62
     7
 10
483.5162857794
 20
406.6434666767
 30
0.0
 11
483.5162857794
 21
386.6434559479
 31
0.0
  0
LINE
  5
182
  8
0
  6
CONTINUOUS
 62
     7
 10
486.5162769579
 20
386.6434559479
 30
0.0
 11
486.5162769579
 21
406.6434666767
 31
0.0
  0
LINE
  5
183
  8
0
  6
CONTINUOUS
 62
     7
 10
486.5162769579
 20
406.6434666767
 30
0.0
 11
483.5162857794
 21
406.6434666767
 31
0.0
  0
LINE
  5
184
  8
0
  6
CONTINUOUS
 62
     7
 10
483.5162857794
 20
386.6434559479
 30
0.0
 11
486.5162769579
 21
386.6434559479
 31
0.0
  0
LINE
  5
185
  8
0
  6
CONTINUOUS
 62
     7
 10
296.5162839987
 20
371.6434553518
 30
0.0
 11
296.5162839987
 21
351.6434595241
 31
0.0
  0
LINE
  5
186
  8
0
  6
CONTINUOUS
 62
     7
 10
299.5162844905
 20
351.6434595241
 30
0.0
 11
299.5162844905
 21
371.6434553518
 31
0.0
  0
LINE
  5
187
  8
0
  6
CONTINUOUS
 62
     7
 10
299.5162844905
 20
371.6434553518
 30
0.0
 11
296.5162839987
 21
371.6434553518
 31
0.0
  0
LINE
  5
188
  8
0
  6
CONTINUOUS
 62
     7
 10
296.5162839987
 20
351.6434595241
 30
0.0
 11
299.5162844905
 21
351.6434595241
 31
0.0
  0
LINE
  5
189
  8
0
  6
CONTINUOUS
 62
     7
 10
394.5162842297
 20
371.6434553518
 30
0.0
 11
388.5162869715
 21
371.6434553518
 31
0.0
  0
LINE
  5
18A
  8
0
  6
CONTINUOUS
 62
     7
 10
388.5162869715
 20
351.6434595241
 30
0.0
 11
394.5162842297
 21
351.6434595241
 31
0.0
  0
LINE
  5
18B
  8
0
  6
CONTINUOUS
 62
     7
 10
483.5162857794
 20
371.6434553518
 30
0.0
 11
483.5162857794
 21
351.6434595241
 31
0.0
  0
LINE
  5
18C
  8
0
  6
CONTINUOUS
 62
     7
 10
486.5162769579
 20
351.6434595241
 30
0.0
 11
486.5162769579
 21
371.6434553518
 31
0.0
  0
LINE
  5
18D
  8
0
  6
CONTINUOUS
 62
     7
 10
486.5162769579
 20
371.6434553518
 30
0.0
 11
483.5162857794
 21
371.6434553518
 31
0.0
  0
LINE
  5
18E
  8
0
  6
CONTINUOUS
 62
     7
 10
483.5162857794
 20
351.6434595241
 30
0.0
 11
486.5162769579
 21
351.6434595241
 31
0.0
  0
LINE
  5
18F
  8
0
  6
CONTINUOUS
 62
     7
 10
296.5162839987
 20
336.6434589281
 30
0.0
 11
296.5162839987
 21
316.6434631004
 31
0.0
  0
LINE
  5
190
  8
0
  6
CONTINUOUS
 62
     7
 10
299.5162844905
 20
316.6434631004
 30
0.0
 11
299.5162844905
 21
336.6434589281
 31
0.0
  0
LINE
  5
191
  8
0
  6
CONTINUOUS
 62
     7
 10
299.5162844905
 20
336.6434589281
 30
0.0
 11
296.5162839987
 21
336.6434589281
 31
0.0
  0
LINE
  5
192
  8
0
  6
CONTINUOUS
 62
     7
 10
296.5162839987
 20
316.6434631004
 30
0.0
 11
299.5162844905
 21
316.6434631004
 31
0.0
  0
LINE
  5
193
  8
0
  6
CONTINUOUS
 62
     7
 10
394.5162842297
 20
336.6434589281
 30
0.0
 11
388.5162869715
 21
336.6434589281
 31
0.0
  0
LINE
  5
194
  8
0
  6
CONTINUOUS
 62
     7
 10
388.5162869715
 20
316.6434631004
 30
0.0
 11
394.5162842297
 21
316.6434631004
 31
0.0
  0
LINE
  5
195
  8
0
  6
CONTINUOUS
 62
     7
 10
483.5162857794
 20
336.6434589281
 30
0.0
 11
483.5162857794
 21
316.6434631004
 31
0.0
  0
LINE
  5
196
  8
0
  6
CONTINUOUS
 62
     7
 10
486.5162769579
 20
316.6434631004
 30
0.0
 11
486.5162769579
 21
336.6434589281
 31
0.0
  0
LINE
  5
197
  8
0
  6
CONTINUOUS
 62
     7
 10
486.5162769579
 20
336.6434589281
 30
0.0
 11
483.5162857794
 21
336.6434589281
 31
0.0
  0
LINE
  5
198
  8
0
  6
CONTINUOUS
 62
     7
 10
483.5162857794
 20
316.6434631004
 30
0.0
 11
486.5162769579
 21
316.6434631004
 31
0.0
  0
LINE
  5
199
  8
0
  6
CONTINUOUS
 62
     7
 10
296.5162839987
 20
301.6434625044
 30
0.0
 11
296.5162839987
 21
281.6434592261
 31
0.0
  0
LINE
  5
19A
  8
0
  6
CONTINUOUS
 62
     7
 10
299.5162844905
 20
281.6434592261
 30
0.0
 11
299.5162844905
 21
301.6434625044
 31
0.0
  0
LINE
  5
19B
  8
0
  6
CONTINUOUS
 62
     7
 10
299.5162844905
 20
301.6434625044
 30
0.0
 11
296.5162839987
 21
301.6434625044
 31
0.0
  0
LINE
  5
19C
  8
0
  6
CONTINUOUS
 62
     7
 10
296.5162839987
 20
281.6434592261
 30
0.0
 11
299.5162844905
 21
281.6434592261
 31
0.0
  0
LINE
  5
19D
  8
0
  6
CONTINUOUS
 62
     7
 10
394.5162842297
 20
301.6434625044
 30
0.0
 11
388.5162869715
 21
301.6434625044
 31
0.0
  0
LINE
  5
19E
  8
0
  6
CONTINUOUS
 62
     7
 10
388.5162869715
 20
281.6434592261
 30
0.0
 11
394.5162842297
 21
281.6434592261
 31
0.0
  0
LINE
  5
19F
  8
0
  6
CONTINUOUS
 62
     7
 10
483.5162857794
 20
301.6434625044
 30
0.0
 11
483.5162857794
 21
281.6434592261
 31
0.0
  0
LINE
  5
1A0
  8
0
  6
CONTINUOUS
 62
     7
 10
486.5162769579
 20
281.6434592261
 30
0.0
 11
486.5162769579
 21
301.6434625044
 31
0.0
  0
LINE
  5
1A1
  8
0
  6
CONTINUOUS
 62
     7
 10
486.5162769579
 20
301.6434625044
 30
0.0
 11
483.5162857794
 21
301.6434625044
 31
0.0
  0
LINE
  5
1A2
  8
0
  6
CONTINUOUS
 62
     7
 10
483.5162857794
 20
281.6434592261
 30
0.0
 11
486.5162769579
 21
281.6434592261
 31
0.0
  0
LINE
  5
1A3
  8
0
  6
CONTINUOUS
 62
     7
 10
296.5162839987
 20
266.6434586301
 30
0.0
 11
296.5162839987
 21
246.6434590771
 31
0.0
  0
LINE
  5
1A4
  8
0
  6
CONTINUOUS
 62
     7
 10
299.5162844905
 20
246.6434590771
 30
0.0
 11
299.5162844905
 21
266.6434586301
 31
0.0
  0
LINE
  5
1A5
  8
0
  6
CONTINUOUS
 62
     7
 10
299.5162844905
 20
266.6434586301
 30
0.0
 11
296.5162839987
 21
266.6434586301
 31
0.0
  0
LINE
  5
1A6
  8
0
  6
CONTINUOUS
 62
     7
 10
296.5162839987
 20
246.6434590771
 30
0.0
 11
299.5162844905
 21
246.6434590771
 31
0.0
  0
LINE
  5
1A7
  8
0
  6
CONTINUOUS
 62
     7
 10
394.5162842297
 20
266.6434586301
 30
0.0
 11
388.5162869715
 21
266.6434586301
 31
0.0
  0
LINE
  5
1A8
  8
0
  6
CONTINUOUS
 62
     7
 10
388.5162869715
 20
246.6434590771
 30
0.0
 11
394.5162842297
 21
246.6434590771
 31
0.0
  0
LINE
  5
1A9
  8
0
  6
CONTINUOUS
 62
     7
 10
483.5162857794
 20
266.6434586301
 30
0.0
 11
483.5162857794
 21
246.6434590771
 31
0.0
  0
LINE
  5
1AA
  8
0
  6
CONTINUOUS
 62
     7
 10
486.5162769579
 20
246.6434590771
 30
0.0
 11
486.5162769579
 21
266.6434586301
 31
0.0
  0
LINE
  5
1AB
  8
0
  6
CONTINUOUS
 62
     7
 10
486.5162769579
 20
266.6434586301
 30
0.0
 11
483.5162857794
 21
266.6434586301
 31
0.0
  0
LINE
  5
1AC
  8
0
  6
CONTINUOUS
 62
     7
 10
483.5162857794
 20
246.6434590771
 30
0.0
 11
486.5162769579
 21
246.6434590771
 31
0.0
  0
LINE
  5
1AD
  8
0
  6
CONTINUOUS
 62
     7
 10
296.5162839987
 20
231.6434622063
 30
0.0
 11
296.5162839987
 21
211.6434607907
 31
0.0
  0
LINE
  5
1AE
  8
0
  6
CONTINUOUS
 62
     7
 10
299.5162844905
 20
211.6434607907
 30
0.0
 11
299.5162844905
 21
231.6434622063
 31
0.0
  0
LINE
  5
1AF
  8
0
  6
CONTINUOUS
 62
     7
 10
299.5162844905
 20
231.6434622063
 30
0.0
 11
296.5162839987
 21
231.6434622063
 31
0.0
  0
LINE
  5
1B0
  8
0
  6
CONTINUOUS
 62
     7
 10
296.5162839987
 20
211.6434607907
 30
0.0
 11
299.5162844905
 21
211.6434607907
 31
0.0
  0
LINE
  5
1B1
  8
0
  6
CONTINUOUS
 62
     7
 10
394.5162842297
 20
231.6434622063
 30
0.0
 11
388.5162869715
 21
231.6434622063
 31
0.0
  0
LINE
  5
1B2
  8
0
  6
CONTINUOUS
 62
     7
 10
388.5162869715
 20
211.6434607907
 30
0.0
 11
394.5162842297
 21
211.6434607907
 31
0.0
  0
LINE
  5
1B3
  8
0
  6
CONTINUOUS
 62
     7
 10
483.5162857794
 20
231.6434622063
 30
0.0
 11
483.5162857794
 21
211.6434607907
 31
0.0
  0
LINE
  5
1B4
  8
0
  6
CONTINUOUS
 62
     7
 10
486.5162769579
 20
211.6434607907
 30
0.0
 11
486.5162769579
 21
231.6434622063
 31
0.0
  0
LINE
  5
1B5
  8
0
  6
CONTINUOUS
 62
     7
 10
486.5162769579
 20
231.6434622063
 30
0.0
 11
483.5162857794
 21
231.6434622063
 31
0.0
  0
LINE
  5
1B6
  8
0
  6
CONTINUOUS
 62
     7
 10
483.5162857794
 20
211.6434607907
 30
0.0
 11
486.5162769579
 21
211.6434607907
 31
0.0
  0
LINE
  5
1B7
  8
0
  6
CONTINUOUS
 62
     7
 10
99.7859446565
 20
221.5711096257
 30
0.0
 11
111.7859447608
 21
221.5711096257
 31
0.0
  0
LINE
  5
1B8
  8
0
  6
CONTINUOUS
 62
     7
 10
111.7859447608
 20
221.5711096257
 30
0.0
 11
111.7859447608
 21
224.5711082548
 31
0.0
  0
LINE
  5
1B9
  8
0
  6
CONTINUOUS
 62
     7
 10
111.7859447608
 20
224.5711082548
 30
0.0
 11
131.7859461764
 21
224.5711082548
 31
0.0
  0
LINE
  5
1BA
  8
0
  6
CONTINUOUS
 62
     7
 10
131.7859461764
 20
221.5711096257
 30
0.0
 11
131.7859461764
 21
224.5711082548
 31
0.0
  0
LINE
  5
1BB
  8
0
  6
CONTINUOUS
 62
     7
 10
131.7859461764
 20
221.5711096257
 30
0.0
 11
146.7859430472
 21
221.5711096257
 31
0.0
  0
LINE
  5
1BC
  8
0
  6
CONTINUOUS
 62
     7
 10
146.7859430472
 20
221.5711096257
 30
0.0
 11
146.7859430472
 21
224.5711082548
 31
0.0
  0
LINE
  5
1BD
  8
0
  6
CONTINUOUS
 62
     7
 10
146.7859430472
 20
224.5711082548
 30
0.0
 11
166.7859463255
 21
224.5711082548
 31
0.0
  0
LINE
  5
1BE
  8
0
  6
CONTINUOUS
 62
     7
 10
166.7859463255
 20
221.5711096257
 30
0.0
 11
166.7859463255
 21
224.5711082548
 31
0.0
  0
LINE
  5
1BF
  8
0
  6
CONTINUOUS
 62
     7
 10
166.7859463255
 20
221.5711096257
 30
0.0
 11
181.7859469215
 21
221.5711096257
 31
0.0
  0
LINE
  5
1C0
  8
0
  6
CONTINUOUS
 62
     7
 10
181.7859469215
 20
221.5711096257
 30
0.0
 11
181.7859469215
 21
224.5711082548
 31
0.0
  0
LINE
  5
1C1
  8
0
  6
CONTINUOUS
 62
     7
 10
181.7859469215
 20
224.5711082548
 30
0.0
 11
201.7859427492
 21
224.5711082548
 31
0.0
  0
LINE
  5
1C2
  8
0
  6
CONTINUOUS
 62
     7
 10
201.7859427492
 20
221.5711096257
 30
0.0
 11
201.7859427492
 21
224.5711082548
 31
0.0
  0
LINE
  5
1C3
  8
0
  6
CONTINUOUS
 62
     7
 10
201.7859427492
 20
221.5711096257
 30
0.0
 11
216.7859433452
 21
221.5711096257
 31
0.0
  0
LINE
  5
1C4
  8
0
  6
CONTINUOUS
 62
     7
 10
216.7859433452
 20
221.5711096257
 30
0.0
 11
216.7859433452
 21
224.5711082548
 31
0.0
  0
LINE
  5
1C5
  8
0
  6
CONTINUOUS
 62
     7
 10
216.7859433452
 20
224.5711082548
 30
0.0
 11
236.7859391729
 21
224.5711082548
 31
0.0
  0
LINE
  5
1C6
  8
0
  6
CONTINUOUS
 62
     7
 10
236.7859391729
 20
221.5711096257
 30
0.0
 11
236.7859391729
 21
224.5711082548
 31
0.0
  0
LINE
  5
1C7
  8
0
  6
CONTINUOUS
 62
     7
 10
236.7859391729
 20
221.5711096257
 30
0.0
 11
251.785939769
 21
221.5711096257
 31
0.0
  0
LINE
  5
1C8
  8
0
  6
CONTINUOUS
 62
     7
 10
251.785939769
 20
221.5711096257
 30
0.0
 11
251.785939769
 21
224.5711082548
 31
0.0
  0
LINE
  5
1C9
  8
0
  6
CONTINUOUS
 62
     7
 10
251.785939769
 20
224.5711082548
 30
0.0
 11
271.7859504978
 21
224.5711082548
 31
0.0
  0
LINE
  5
1CA
  8
0
  6
CONTINUOUS
 62
     7
 10
271.7859504978
 20
221.5711096257
 30
0.0
 11
271.7859504978
 21
224.5711082548
 31
0.0
  0
LINE
  5
1CB
  8
0
  6
CONTINUOUS
 62
     7
 10
271.7859504978
 20
221.5711096257
 30
0.0
 11
283.7859450142
 21
221.5711096257
 31
0.0
  0
LINE
  5
1CC
  8
0
  6
CONTINUOUS
 62
     7
 10
283.7859450142
 20
256.5711097747
 30
0.0
 11
283.7859450142
 21
221.5711096257
 31
0.0
  0
LINE
  5
1CD
  8
0
  6
CONTINUOUS
 62
     7
 10
271.7859504978
 20
256.5711097747
 30
0.0
 11
283.7859450142
 21
256.5711097747
 31
0.0
  0
LINE
  5
1CE
  8
0
  6
CONTINUOUS
 62
     7
 10
271.7859504978
 20
256.5711097747
 30
0.0
 11
271.7859504978
 21
259.5711098008
 31
0.0
  0
LINE
  5
1CF
  8
0
  6
CONTINUOUS
 62
     7
 10
251.785939769
 20
259.5711098008
 30
0.0
 11
271.7859504978
 21
259.5711098008
 31
0.0
  0
LINE
  5
1D0
  8
0
  6
CONTINUOUS
 62
     7
 10
251.785939769
 20
256.5711097747
 30
0.0
 11
251.785939769
 21
259.5711098008
 31
0.0
  0
LINE
  5
1D1
  8
0
  6
CONTINUOUS
 62
     7
 10
236.7859391729
 20
256.5711097747
 30
0.0
 11
251.785939769
 21
256.5711097747
 31
0.0
  0
LINE
  5
1D2
  8
0
  6
CONTINUOUS
 62
     7
 10
236.7859391729
 20
256.5711097747
 30
0.0
 11
236.7859391729
 21
259.5711098008
 31
0.0
  0
LINE
  5
1D3
  8
0
  6
CONTINUOUS
 62
     7
 10
216.7859433452
 20
259.5711098008
 30
0.0
 11
236.7859391729
 21
259.5711098008
 31
0.0
  0
LINE
  5
1D4
  8
0
  6
CONTINUOUS
 62
     7
 10
216.7859433452
 20
256.5711097747
 30
0.0
 11
216.7859433452
 21
259.5711098008
 31
0.0
  0
LINE
  5
1D5
  8
0
  6
CONTINUOUS
 62
     7
 10
201.7859427492
 20
256.5711097747
 30
0.0
 11
216.7859433452
 21
256.5711097747
 31
0.0
  0
LINE
  5
1D6
  8
0
  6
CONTINUOUS
 62
     7
 10
201.7859427492
 20
256.5711097747
 30
0.0
 11
201.7859427492
 21
259.5711098008
 31
0.0
  0
LINE
  5
1D7
  8
0
  6
CONTINUOUS
 62
     7
 10
181.7859469215
 20
259.5711098008
 30
0.0
 11
201.7859427492
 21
259.5711098008
 31
0.0
  0
LINE
  5
1D8
  8
0
  6
CONTINUOUS
 62
     7
 10
181.7859469215
 20
256.5711097747
 30
0.0
 11
181.7859469215
 21
259.5711098008
 31
0.0
  0
LINE
  5
1D9
  8
0
  6
CONTINUOUS
 62
     7
 10
166.7859463255
 20
256.5711097747
 30
0.0
 11
181.7859469215
 21
256.5711097747
 31
0.0
  0
LINE
  5
1DA
  8
0
  6
CONTINUOUS
 62
     7
 10
166.7859463255
 20
256.5711097747
 30
0.0
 11
166.7859463255
 21
259.5711098008
 31
0.0
  0
LINE
  5
1DB
  8
0
  6
CONTINUOUS
 62
     7
 10
146.7859430472
 20
259.5711098008
 30
0.0
 11
166.7859463255
 21
259.5711098008
 31
0.0
  0
LINE
  5
1DC
  8
0
  6
CONTINUOUS
 62
     7
 10
146.7859430472
 20
256.5711097747
 30
0.0
 11
146.7859430472
 21
259.5711098008
 31
0.0
  0
LINE
  5
1DD
  8
0
  6
CONTINUOUS
 62
     7
 10
131.7859461764
 20
256.5711097747
 30
0.0
 11
146.7859430472
 21
256.5711097747
 31
0.0
  0
LINE
  5
1DE
  8
0
  6
CONTINUOUS
 62
     7
 10
131.7859461764
 20
256.5711097747
 30
0.0
 11
131.7859461764
 21
259.5711098008
 31
0.0
  0
LINE
  5
1DF
  8
0
  6
CONTINUOUS
 62
     7
 10
111.7859447608
 20
259.5711098008
 30
0.0
 11
131.7859461764
 21
259.5711098008
 31
0.0
  0
LINE
  5
1E0
  8
0
  6
CONTINUOUS
 62
     7
 10
111.7859447608
 20
256.5711097747
 30
0.0
 11
111.7859447608
 21
259.5711098008
 31
0.0
  0
LINE
  5
1E1
  8
0
  6
CONTINUOUS
 62
     7
 10
99.7859446565
 20
256.5711097747
 30
0.0
 11
111.7859447608
 21
256.5711097747
 31
0.0
  0
LINE
  5
1E2
  8
0
  6
CONTINUOUS
 62
     7
 10
99.7859446565
 20
256.5711097747
 30
0.0
 11
99.7859446565
 21
221.5711096257
 31
0.0
  0
LINE
  5
1E3
  8
0
  6
CONTINUOUS
 62
     7
 10
138.1841118352
 20
17.1972724161
 30
0.0
 11
138.1841118352
 21
29.1972725205
 31
0.0
  0
LINE
  5
1E4
  8
0
  6
CONTINUOUS
 62
     7
 10
138.1841118352
 20
29.1972725205
 30
0.0
 11
135.1841132061
 21
29.1972725205
 31
0.0
  0
LINE
  5
1E5
  8
0
  6
CONTINUOUS
 62
     7
 10
135.1841132061
 20
29.1972725205
 30
0.0
 11
135.1841132061
 21
49.1972739361
 31
0.0
  0
LINE
  5
1E6
  8
0
  6
CONTINUOUS
 62
     7
 10
138.1841118352
 20
49.1972739361
 30
0.0
 11
135.1841132061
 21
49.1972739361
 31
0.0
  0
LINE
  5
1E7
  8
0
  6
CONTINUOUS
 62
     7
 10
138.1841118352
 20
49.1972739361
 30
0.0
 11
138.1841118352
 21
64.1972708068
 31
0.0
  0
LINE
  5
1E8
  8
0
  6
CONTINUOUS
 62
     7
 10
138.1841118352
 20
64.1972708068
 30
0.0
 11
135.1841132061
 21
64.1972708068
 31
0.0
  0
LINE
  5
1E9
  8
0
  6
CONTINUOUS
 62
     7
 10
135.1841132061
 20
64.1972708068
 30
0.0
 11
135.1841132061
 21
84.1972740851
 31
0.0
  0
LINE
  5
1EA
  8
0
  6
CONTINUOUS
 62
     7
 10
138.1841118352
 20
84.1972740851
 30
0.0
 11
135.1841132061
 21
84.1972740851
 31
0.0
  0
LINE
  5
1EB
  8
0
  6
CONTINUOUS
 62
     7
 10
138.1841118352
 20
84.1972740851
 30
0.0
 11
138.1841118352
 21
99.1972746811
 31
0.0
  0
LINE
  5
1EC
  8
0
  6
CONTINUOUS
 62
     7
 10
138.1841118352
 20
99.1972746811
 30
0.0
 11
135.1841132061
 21
99.1972746811
 31
0.0
  0
LINE
  5
1ED
  8
0
  6
CONTINUOUS
 62
     7
 10
135.1841132061
 20
99.1972746811
 30
0.0
 11
135.1841132061
 21
119.1972705088
 31
0.0
  0
LINE
  5
1EE
  8
0
  6
CONTINUOUS
 62
     7
 10
138.1841118352
 20
119.1972705088
 30
0.0
 11
135.1841132061
 21
119.1972705088
 31
0.0
  0
LINE
  5
1EF
  8
0
  6
CONTINUOUS
 62
     7
 10
138.1841118352
 20
119.1972705088
 30
0.0
 11
138.1841118352
 21
134.1972711048
 31
0.0
  0
LINE
  5
1F0
  8
0
  6
CONTINUOUS
 62
     7
 10
138.1841118352
 20
134.1972711048
 30
0.0
 11
135.1841132061
 21
134.1972711048
 31
0.0
  0
LINE
  5
1F1
  8
0
  6
CONTINUOUS
 62
     7
 10
135.1841132061
 20
134.1972711048
 30
0.0
 11
135.1841132061
 21
154.1972669325
 31
0.0
  0
LINE
  5
1F2
  8
0
  6
CONTINUOUS
 62
     7
 10
138.1841118352
 20
154.1972669325
 30
0.0
 11
135.1841132061
 21
154.1972669325
 31
0.0
  0
LINE
  5
1F3
  8
0
  6
CONTINUOUS
 62
     7
 10
138.1841118352
 20
154.1972669325
 30
0.0
 11
138.1841118352
 21
169.1972675286
 31
0.0
  0
LINE
  5
1F4
  8
0
  6
CONTINUOUS
 62
     7
 10
138.1841118352
 20
169.1972675286
 30
0.0
 11
135.1841132061
 21
169.1972675286
 31
0.0
  0
LINE
  5
1F5
  8
0
  6
CONTINUOUS
 62
     7
 10
135.1841132061
 20
169.1972675286
 30
0.0
 11
135.1841132061
 21
189.1972782574
 31
0.0
  0
LINE
  5
1F6
  8
0
  6
CONTINUOUS
 62
     7
 10
138.1841118352
 20
189.1972782574
 30
0.0
 11
135.1841132061
 21
189.1972782574
 31
0.0
  0
LINE
  5
1F7
  8
0
  6
CONTINUOUS
 62
     7
 10
138.1841118352
 20
189.1972782574
 30
0.0
 11
138.1841118352
 21
201.1972727738
 31
0.0
  0
LINE
  5
1F8
  8
0
  6
CONTINUOUS
 62
     7
 10
103.1841116861
 20
201.1972727738
 30
0.0
 11
138.1841118352
 21
201.1972727738
 31
0.0
  0
LINE
  5
1F9
  8
0
  6
CONTINUOUS
 62
     7
 10
103.1841116861
 20
189.1972782574
 30
0.0
 11
103.1841116861
 21
201.1972727738
 31
0.0
  0
LINE
  5
1FA
  8
0
  6
CONTINUOUS
 62
     7
 10
103.1841116861
 20
189.1972782574
 30
0.0
 11
100.1841116601
 21
189.1972782574
 31
0.0
  0
LINE
  5
1FB
  8
0
  6
CONTINUOUS
 62
     7
 10
100.1841116601
 20
169.1972675286
 30
0.0
 11
100.1841116601
 21
189.1972782574
 31
0.0
  0
LINE
  5
1FC
  8
0
  6
CONTINUOUS
 62
     7
 10
103.1841116861
 20
169.1972675286
 30
0.0
 11
100.1841116601
 21
169.1972675286
 31
0.0
  0
LINE
  5
1FD
  8
0
  6
CONTINUOUS
 62
     7
 10
103.1841116861
 20
154.1972669325
 30
0.0
 11
103.1841116861
 21
169.1972675286
 31
0.0
  0
LINE
  5
1FE
  8
0
  6
CONTINUOUS
 62
     7
 10
103.1841116861
 20
154.1972669325
 30
0.0
 11
100.1841116601
 21
154.1972669325
 31
0.0
  0
LINE
  5
1FF
  8
0
  6
CONTINUOUS
 62
     7
 10
100.1841116601
 20
134.1972711048
 30
0.0
 11
100.1841116601
 21
154.1972669325
 31
0.0
  0
LINE
  5
200
  8
0
  6
CONTINUOUS
 62
     7
 10
103.1841116861
 20
134.1972711048
 30
0.0
 11
100.1841116601
 21
134.1972711048
 31
0.0
  0
LINE
  5
201
  8
0
  6
CONTINUOUS
 62
     7
 10
103.1841116861
 20
119.1972705088
 30
0.0
 11
103.1841116861
 21
134.1972711048
 31
0.0
  0
LINE
  5
202
  8
0
  6
CONTINUOUS
 62
     7
 10
103.1841116861
 20
119.1972705088
 30
0.0
 11
100.1841116601
 21
119.1972705088
 31
0.0
  0
LINE
  5
203
  8
0
  6
CONTINUOUS
 62
     7
 10
100.1841116601
 20
99.1972746811
 30
0.0
 11
100.1841116601
 21
119.1972705088
 31
0.0
  0
LINE
  5
204
  8
0
  6
CONTINUOUS
 62
     7
 10
103.1841116861
 20
99.1972746811
 30
0.0
 11
100.1841116601
 21
99.1972746811
 31
0.0
  0
LINE
  5
205
  8
0
  6
CONTINUOUS
 62
     7
 10
103.1841116861
 20
84.1972740851
 30
0.0
 11
103.1841116861
 21
99.1972746811
 31
0.0
  0
LINE
  5
206
  8
0
  6
CONTINUOUS
 62
     7
 10
103.1841116861
 20
84.1972740851
 30
0.0
 11
100.1841116601
 21
84.1972740851
 31
0.0
  0
LINE
  5
207
  8
0
  6
CONTINUOUS
 62
     7
 10
100.1841116601
 20
64.1972708068
 30
0.0
 11
100.1841116601
 21
84.1972740851
 31
0.0
  0
LINE
  5
208
  8
0
  6
CONTINUOUS
 62
     7
 10
103.1841116861
 20
64.1972708068
 30
0.0
 11
100.1841116601
 21
64.1972708068
 31
0.0
  0
LINE
  5
209
  8
0
  6
CONTINUOUS
 62
     7
 10
103.1841116861
 20
49.1972739361
 30
0.0
 11
103.1841116861
 21
64.1972708068
 31
0.0
  0
LINE
  5
20A
  8
0
  6
CONTINUOUS
 62
     7
 10
103.1841116861
 20
49.1972739361
 30
0.0
 11
100.1841116601
 21
49.1972739361
 31
0.0
  0
LINE
  5
20B
  8
0
  6
CONTINUOUS
 62
     7
 10
100.1841116601
 20
29.1972725205
 30
0.0
 11
100.1841116601
 21
49.1972739361
 31
0.0
  0
LINE
  5
20C
  8
0
  6
CONTINUOUS
 62
     7
 10
103.1841116861
 20
29.1972725205
 30
0.0
 11
100.1841116601
 21
29.1972725205
 31
0.0
  0
LINE
  5
20D
  8
0
  6
CONTINUOUS
 62
     7
 10
103.1841116861
 20
17.1972724161
 30
0.0
 11
103.1841116861
 21
29.1972725205
 31
0.0
  0
LINE
  5
20E
  8
0
  6
CONTINUOUS
 62
     7
 10
103.1841116861
 20
17.1972724161
 30
0.0
 11
138.1841118352
 21
17.1972724161
 31
0.0
  0
LINE
  5
20F
  8
0
  6
CONTINUOUS
 62
     7
 10
283.600963862
 20
311.2640649853
 30
0.0
 11
283.600963862
 21
323.2640650896
 31
0.0
  0
LINE
  5
210
  8
0
  6
CONTINUOUS
 62
     7
 10
283.600963862
 20
323.2640650896
 30
0.0
 11
280.6009652329
 21
323.2640650896
 31
0.0
  0
LINE
  5
211
  8
0
  6
CONTINUOUS
 62
     7
 10
280.6009652329
 20
323.2640650896
 30
0.0
 11
280.6009652329
 21
343.2640665053
 31
0.0
  0
LINE
  5
212
  8
0
  6
CONTINUOUS
 62
     7
 10
283.600963862
 20
343.2640665053
 30
0.0
 11
280.6009652329
 21
343.2640665053
 31
0.0
  0
LINE
  5
213
  8
0
  6
CONTINUOUS
 62
     7
 10
283.600963862
 20
343.2640665053
 30
0.0
 11
283.600963862
 21
358.264063376
 31
0.0
  0
LINE
  5
214
  8
0
  6
CONTINUOUS
 62
     7
 10
283.600963862
 20
358.264063376
 30
0.0
 11
280.6009652329
 21
358.264063376
 31
0.0
  0
LINE
  5
215
  8
0
  6
CONTINUOUS
 62
     7
 10
280.6009652329
 20
358.264063376
 30
0.0
 11
280.6009652329
 21
378.2640666543
 31
0.0
  0
LINE
  5
216
  8
0
  6
CONTINUOUS
 62
     7
 10
283.600963862
 20
378.2640666543
 30
0.0
 11
280.6009652329
 21
378.2640666543
 31
0.0
  0
LINE
  5
217
  8
0
  6
CONTINUOUS
 62
     7
 10
283.600963862
 20
378.2640666543
 30
0.0
 11
283.600963862
 21
393.2640672503
 31
0.0
  0
LINE
  5
218
  8
0
  6
CONTINUOUS
 62
     7
 10
283.600963862
 20
393.2640672503
 30
0.0
 11
280.6009652329
 21
393.2640672503
 31
0.0
  0
LINE
  5
219
  8
0
  6
CONTINUOUS
 62
     7
 10
280.6009652329
 20
393.2640672503
 30
0.0
 11
280.6009652329
 21
413.264063078
 31
0.0
  0
LINE
  5
21A
  8
0
  6
CONTINUOUS
 62
     7
 10
283.600963862
 20
413.264063078
 30
0.0
 11
280.6009652329
 21
413.264063078
 31
0.0
  0
LINE
  5
21B
  8
0
  6
CONTINUOUS
 62
     7
 10
283.600963862
 20
413.264063078
 30
0.0
 11
283.600963862
 21
428.264063674
 31
0.0
  0
LINE
  5
21C
  8
0
  6
CONTINUOUS
 62
     7
 10
283.600963862
 20
428.264063674
 30
0.0
 11
280.6009652329
 21
428.264063674
 31
0.0
  0
LINE
  5
21D
  8
0
  6
CONTINUOUS
 62
     7
 10
280.6009652329
 20
428.264063674
 30
0.0
 11
280.6009652329
 21
448.2640595017
 31
0.0
  0
LINE
  5
21E
  8
0
  6
CONTINUOUS
 62
     7
 10
283.600963862
 20
448.2640595017
 30
0.0
 11
280.6009652329
 21
448.2640595017
 31
0.0
  0
LINE
  5
21F
  8
0
  6
CONTINUOUS
 62
     7
 10
283.600963862
 20
448.2640595017
 30
0.0
 11
283.600963862
 21
463.2640600978
 31
0.0
  0
LINE
  5
220
  8
0
  6
CONTINUOUS
 62
     7
 10
283.600963862
 20
463.2640600978
 30
0.0
 11
280.6009652329
 21
463.2640600978
 31
0.0
  0
LINE
  5
221
  8
0
  6
CONTINUOUS
 62
     7
 10
280.6009652329
 20
463.2640600978
 30
0.0
 11
280.6009652329
 21
483.2640708266
 31
0.0
  0
LINE
  5
222
  8
0
  6
CONTINUOUS
 62
     7
 10
283.600963862
 20
483.2640708266
 30
0.0
 11
280.6009652329
 21
483.2640708266
 31
0.0
  0
LINE
  5
223
  8
0
  6
CONTINUOUS
 62
     7
 10
283.600963862
 20
483.2640708266
 30
0.0
 11
283.600963862
 21
495.264065343
 31
0.0
  0
LINE
  5
224
  8
0
  6
CONTINUOUS
 62
     7
 10
248.600963713
 20
495.264065343
 30
0.0
 11
283.600963862
 21
495.264065343
 31
0.0
  0
LINE
  5
225
  8
0
  6
CONTINUOUS
 62
     7
 10
248.600963713
 20
483.2640708266
 30
0.0
 11
248.600963713
 21
495.264065343
 31
0.0
  0
LINE
  5
226
  8
0
  6
CONTINUOUS
 62
     7
 10
248.600963713
 20
483.2640708266
 30
0.0
 11
245.6009636869
 21
483.2640708266
 31
0.0
  0
LINE
  5
227
  8
0
  6
CONTINUOUS
 62
     7
 10
245.6009636869
 20
463.2640600978
 30
0.0
 11
245.6009636869
 21
483.2640708266
 31
0.0
  0
LINE
  5
228
  8
0
  6
CONTINUOUS
 62
     7
 10
248.600963713
 20
463.2640600978
 30
0.0
 11
245.6009636869
 21
463.2640600978
 31
0.0
  0
LINE
  5
229
  8
0
  6
CONTINUOUS
 62
     7
 10
248.600963713
 20
448.2640595017
 30
0.0
 11
248.600963713
 21
463.2640600978
 31
0.0
  0
LINE
  5
22A
  8
0
  6
CONTINUOUS
 62
     7
 10
248.600963713
 20
448.2640595017
 30
0.0
 11
245.6009636869
 21
448.2640595017
 31
0.0
  0
LINE
  5
22B
  8
0
  6
CONTINUOUS
 62
     7
 10
245.6009636869
 20
428.264063674
 30
0.0
 11
245.6009636869
 21
448.2640595017
 31
0.0
  0
LINE
  5
22C
  8
0
  6
CONTINUOUS
 62
     7
 10
248.600963713
 20
428.264063674
 30
0.0
 11
245.6009636869
 21
428.264063674
 31
0.0
  0
LINE
  5
22D
  8
0
  6
CONTINUOUS
 62
     7
 10
248.600963713
 20
413.264063078
 30
0.0
 11
248.600963713
 21
428.264063674
 31
0.0
  0
LINE
  5
22E
  8
0
  6
CONTINUOUS
 62
     7
 10
248.600963713
 20
413.264063078
 30
0.0
 11
245.6009636869
 21
413.264063078
 31
0.0
  0
LINE
  5
22F
  8
0
  6
CONTINUOUS
 62
     7
 10
245.6009636869
 20
393.2640672503
 30
0.0
 11
245.6009636869
 21
413.264063078
 31
0.0
  0
LINE
  5
230
  8
0
  6
CONTINUOUS
 62
     7
 10
248.600963713
 20
393.2640672503
 30
0.0
 11
245.6009636869
 21
393.2640672503
 31
0.0
  0
LINE
  5
231
  8
0
  6
CONTINUOUS
 62
     7
 10
248.600963713
 20
378.2640666543
 30
0.0
 11
248.600963713
 21
393.2640672503
 31
0.0
  0
LINE
  5
232
  8
0
  6
CONTINUOUS
 62
     7
 10
248.600963713
 20
378.2640666543
 30
0.0
 11
245.6009636869
 21
378.2640666543
 31
0.0
  0
LINE
  5
233
  8
0
  6
CONTINUOUS
 62
     7
 10
245.6009636869
 20
358.264063376
 30
0.0
 11
245.6009636869
 21
378.2640666543
 31
0.0
  0
LINE
  5
234
  8
0
  6
CONTINUOUS
 62
     7
 10
248.600963713
 20
358.264063376
 30
0.0
 11
245.6009636869
 21
358.264063376
 31
0.0
  0
LINE
  5
235
  8
0
  6
CONTINUOUS
 62
     7
 10
248.600963713
 20
343.2640665053
 30
0.0
 11
248.600963713
 21
358.264063376
 31
0.0
  0
LINE
  5
236
  8
0
  6
CONTINUOUS
 62
     7
 10
248.600963713
 20
343.2640665053
 30
0.0
 11
245.6009636869
 21
343.2640665053
 31
0.0
  0
LINE
  5
237
  8
0
  6
CONTINUOUS
 62
     7
 10
245.6009636869
 20
323.2640650896
 30
0.0
 11
245.6009636869
 21
343.2640665053
 31
0.0
  0
LINE
  5
238
  8
0
  6
CONTINUOUS
 62
     7
 10
248.600963713
 20
323.2640650896
 30
0.0
 11
245.6009636869
 21
323.2640650896
 31
0.0
  0
LINE
  5
239
  8
0
  6
CONTINUOUS
 62
     7
 10
248.600963713
 20
311.2640649853
 30
0.0
 11
248.600963713
 21
323.2640650896
 31
0.0
  0
LINE
  5
23A
  8
0
  6
CONTINUOUS
 62
     7
 10
248.600963713
 20
311.2640649853
 30
0.0
 11
283.600963862
 21
311.2640649853
 31
0.0
  0
LINE
  5
23B
  8
0
  6
CONTINUOUS
 62
     7
 10
8.6175550034
 20
218.0277894808
 30
0.0
 11
8.6175550034
 21
224.0277895329
 31
0.0
  0
LINE
  5
23C
  8
0
  6
CONTINUOUS
 62
     7
 10
8.6175550034
 20
224.0277895329
 30
0.0
 11
11.6175536325
 21
224.0277895329
 31
0.0
  0
LINE
  5
23D
  8
0
  6
CONTINUOUS
 62
     7
 10
11.6175536325
 20
224.0277895329
 30
0.0
 11
11.6175536325
 21
244.0277900172
 31
0.0
  0
LINE
  5
23E
  8
0
  6
CONTINUOUS
 62
     7
 10
8.6175550034
 20
244.0277900172
 30
0.0
 11
11.6175536325
 21
244.0277900172
 31
0.0
  0
LINE
  5
23F
  8
0
  6
CONTINUOUS
 62
     7
 10
8.6175550034
 20
244.0277900172
 30
0.0
 11
8.6175550034
 21
259.0277906133
 31
0.0
  0
LINE
  5
240
  8
0
  6
CONTINUOUS
 62
     7
 10
8.6175550034
 20
259.0277906133
 30
0.0
 11
11.6175536325
 21
259.0277906133
 31
0.0
  0
LINE
  5
241
  8
0
  6
CONTINUOUS
 62
     7
 10
11.6175536325
 20
259.0277906133
 30
0.0
 11
11.6175536325
 21
279.0277901662
 31
0.0
  0
LINE
  5
242
  8
0
  6
CONTINUOUS
 62
     7
 10
8.6175550034
 20
279.0277901662
 30
0.0
 11
11.6175536325
 21
279.0277901662
 31
0.0
  0
LINE
  5
243
  8
0
  6
CONTINUOUS
 62
     7
 10
8.6175550034
 20
279.0277901662
 30
0.0
 11
8.6175550034
 21
294.027787037
 31
0.0
  0
LINE
  5
244
  8
0
  6
CONTINUOUS
 62
     7
 10
8.6175550034
 20
294.027787037
 30
0.0
 11
11.6175536325
 21
294.027787037
 31
0.0
  0
LINE
  5
245
  8
0
  6
CONTINUOUS
 62
     7
 10
11.6175536325
 20
294.027787037
 30
0.0
 11
11.6175536325
 21
314.0277903152
 31
0.0
  0
LINE
  5
246
  8
0
  6
CONTINUOUS
 62
     7
 10
8.6175550034
 20
314.0277903152
 30
0.0
 11
11.6175536325
 21
314.0277903152
 31
0.0
  0
LINE
  5
247
  8
0
  6
CONTINUOUS
 62
     7
 10
8.6175550034
 20
314.0277903152
 30
0.0
 11
8.6175550034
 21
329.0277909113
 31
0.0
  0
LINE
  5
248
  8
0
  6
CONTINUOUS
 62
     7
 10
8.6175550034
 20
329.0277909113
 30
0.0
 11
11.6175536325
 21
329.0277909113
 31
0.0
  0
LINE
  5
249
  8
0
  6
CONTINUOUS
 62
     7
 10
11.6175536325
 20
329.0277909113
 30
0.0
 11
11.6175536325
 21
349.027786739
 31
0.0
  0
LINE
  5
24A
  8
0
  6
CONTINUOUS
 62
     7
 10
8.6175550034
 20
349.027786739
 30
0.0
 11
11.6175536325
 21
349.027786739
 31
0.0
  0
LINE
  5
24B
  8
0
  6
CONTINUOUS
 62
     7
 10
8.6175550034
 20
349.027786739
 30
0.0
 11
8.6175550034
 21
364.027787335
 31
0.0
  0
LINE
  5
24C
  8
0
  6
CONTINUOUS
 62
     7
 10
8.6175550034
 20
364.027787335
 30
0.0
 11
11.6175536325
 21
364.027787335
 31
0.0
  0
LINE
  5
24D
  8
0
  6
CONTINUOUS
 62
     7
 10
11.6175536325
 20
364.027787335
 30
0.0
 11
11.6175536325
 21
384.0277831627
 31
0.0
  0
LINE
  5
24E
  8
0
  6
CONTINUOUS
 62
     7
 10
8.6175550034
 20
384.0277831627
 30
0.0
 11
11.6175536325
 21
384.0277831627
 31
0.0
  0
LINE
  5
24F
  8
0
  6
CONTINUOUS
 62
     7
 10
8.6175550034
 20
384.0277831627
 30
0.0
 11
8.6175550034
 21
399.0277837587
 31
0.0
  0
LINE
  5
250
  8
0
  6
CONTINUOUS
 62
     7
 10
8.6175550034
 20
399.0277837587
 30
0.0
 11
11.6175536325
 21
399.0277837587
 31
0.0
  0
LINE
  5
251
  8
0
  6
CONTINUOUS
 62
     7
 10
11.6175536325
 20
399.0277837587
 30
0.0
 11
11.6175536325
 21
419.0277944876
 31
0.0
  0
LINE
  5
252
  8
0
  6
CONTINUOUS
 62
     7
 10
8.6175550034
 20
419.0277944876
 30
0.0
 11
11.6175536325
 21
419.0277944876
 31
0.0
  0
LINE
  5
253
  8
0
  6
CONTINUOUS
 62
     7
 10
8.6175550034
 20
419.0277944876
 30
0.0
 11
8.6175550034
 21
434.0277950836
 31
0.0
  0
LINE
  5
254
  8
0
  6
CONTINUOUS
 62
     7
 10
8.6175550034
 20
434.0277950836
 30
0.0
 11
11.6175536325
 21
434.0277950836
 31
0.0
  0
LINE
  5
255
  8
0
  6
CONTINUOUS
 62
     7
 10
11.6175536325
 20
434.0277950836
 30
0.0
 11
11.6175536325
 21
454.0277909113
 31
0.0
  0
LINE
  5
256
  8
0
  6
CONTINUOUS
 62
     7
 10
8.6175550034
 20
454.0277909113
 30
0.0
 11
11.6175536325
 21
454.0277909113
 31
0.0
  0
LINE
  5
257
  8
0
  6
CONTINUOUS
 62
     7
 10
8.6175550034
 20
454.0277909113
 30
0.0
 11
8.6175550034
 21
469.0277766062
 31
0.0
  0
LINE
  5
258
  8
0
  6
CONTINUOUS
 62
     7
 10
8.6175550034
 20
469.0277766062
 30
0.0
 11
11.6175536325
 21
469.0277766062
 31
0.0
  0
LINE
  5
259
  8
0
  6
CONTINUOUS
 62
     7
 10
11.6175536325
 20
469.0277766062
 30
0.0
 11
11.6175536325
 21
489.027787335
 31
0.0
  0
LINE
  5
25A
  8
0
  6
CONTINUOUS
 62
     7
 10
8.6175550034
 20
489.027787335
 30
0.0
 11
11.6175536325
 21
489.027787335
 31
0.0
  0
LINE
  5
25B
  8
0
  6
CONTINUOUS
 62
     7
 10
8.6175550034
 20
489.027787335
 30
0.0
 11
8.6175550034
 21
495.0277994943
 31
0.0
  0
LINE
  5
25C
  8
0
  6
CONTINUOUS
 62
     7
 10
43.6175551524
 20
495.0277994943
 30
0.0
 11
8.6175550034
 21
495.0277994943
 31
0.0
  0
LINE
  5
25D
  8
0
  6
CONTINUOUS
 62
     7
 10
43.6175551524
 20
489.027787335
 30
0.0
 11
43.6175551524
 21
495.0277994943
 31
0.0
  0
LINE
  5
25E
  8
0
  6
CONTINUOUS
 62
     7
 10
43.6175551524
 20
489.027787335
 30
0.0
 11
46.6175551785
 21
489.027787335
 31
0.0
  0
LINE
  5
25F
  8
0
  6
CONTINUOUS
 62
     7
 10
46.6175551785
 20
469.0277766062
 30
0.0
 11
46.6175551785
 21
489.027787335
 31
0.0
  0
LINE
  5
260
  8
0
  6
CONTINUOUS
 62
     7
 10
43.6175551524
 20
469.0277766062
 30
0.0
 11
46.6175551785
 21
469.0277766062
 31
0.0
  0
LINE
  5
261
  8
0
  6
CONTINUOUS
 62
     7
 10
43.6175551524
 20
454.0277909113
 30
0.0
 11
43.6175551524
 21
469.0277766062
 31
0.0
  0
LINE
  5
262
  8
0
  6
CONTINUOUS
 62
     7
 10
43.6175551524
 20
454.0277909113
 30
0.0
 11
46.6175551785
 21
454.0277909113
 31
0.0
  0
LINE
  5
263
  8
0
  6
CONTINUOUS
 62
     7
 10
46.6175551785
 20
434.0277950836
 30
0.0
 11
46.6175551785
 21
454.0277909113
 31
0.0
  0
LINE
  5
264
  8
0
  6
CONTINUOUS
 62
     7
 10
43.6175551524
 20
434.0277950836
 30
0.0
 11
46.6175551785
 21
434.0277950836
 31
0.0
  0
LINE
  5
265
  8
0
  6
CONTINUOUS
 62
     7
 10
43.6175551524
 20
419.0277944876
 30
0.0
 11
43.6175551524
 21
434.0277950836
 31
0.0
  0
LINE
  5
266
  8
0
  6
CONTINUOUS
 62
     7
 10
43.6175551524
 20
419.0277944876
 30
0.0
 11
46.6175551785
 21
419.0277944876
 31
0.0
  0
LINE
  5
267
  8
0
  6
CONTINUOUS
 62
     7
 10
46.6175551785
 20
399.0277837587
 30
0.0
 11
46.6175551785
 21
419.0277944876
 31
0.0
  0
LINE
  5
268
  8
0
  6
CONTINUOUS
 62
     7
 10
43.6175551524
 20
399.0277837587
 30
0.0
 11
46.6175551785
 21
399.0277837587
 31
0.0
  0
LINE
  5
269
  8
0
  6
CONTINUOUS
 62
     7
 10
43.6175551524
 20
384.0277831627
 30
0.0
 11
43.6175551524
 21
399.0277837587
 31
0.0
  0
LINE
  5
26A
  8
0
  6
CONTINUOUS
 62
     7
 10
43.6175551524
 20
384.0277831627
 30
0.0
 11
46.6175551785
 21
384.0277831627
 31
0.0
  0
LINE
  5
26B
  8
0
  6
CONTINUOUS
 62
     7
 10
46.6175551785
 20
364.027787335
 30
0.0
 11
46.6175551785
 21
384.0277831627
 31
0.0
  0
LINE
  5
26C
  8
0
  6
CONTINUOUS
 62
     7
 10
43.6175551524
 20
364.027787335
 30
0.0
 11
46.6175551785
 21
364.027787335
 31
0.0
  0
LINE
  5
26D
  8
0
  6
CONTINUOUS
 62
     7
 10
43.6175551524
 20
349.027786739
 30
0.0
 11
43.6175551524
 21
364.027787335
 31
0.0
  0
LINE
  5
26E
  8
0
  6
CONTINUOUS
 62
     7
 10
43.6175551524
 20
349.027786739
 30
0.0
 11
46.6175551785
 21
349.027786739
 31
0.0
  0
LINE
  5
26F
  8
0
  6
CONTINUOUS
 62
     7
 10
46.6175551785
 20
329.0277909113
 30
0.0
 11
46.6175551785
 21
349.027786739
 31
0.0
  0
LINE
  5
270
  8
0
  6
CONTINUOUS
 62
     7
 10
43.6175551524
 20
329.0277909113
 30
0.0
 11
46.6175551785
 21
329.0277909113
 31
0.0
  0
LINE
  5
271
  8
0
  6
CONTINUOUS
 62
     7
 10
43.6175551524
 20
314.0277903152
 30
0.0
 11
43.6175551524
 21
329.0277909113
 31
0.0
  0
LINE
  5
272
  8
0
  6
CONTINUOUS
 62
     7
 10
43.6175551524
 20
314.0277903152
 30
0.0
 11
46.6175551785
 21
314.0277903152
 31
0.0
  0
LINE
  5
273
  8
0
  6
CONTINUOUS
 62
     7
 10
46.6175551785
 20
294.027787037
 30
0.0
 11
46.6175551785
 21
314.0277903152
 31
0.0
  0
LINE
  5
274
  8
0
  6
CONTINUOUS
 62
     7
 10
43.6175551524
 20
294.027787037
 30
0.0
 11
46.6175551785
 21
294.027787037
 31
0.0
  0
LINE
  5
275
  8
0
  6
CONTINUOUS
 62
     7
 10
43.6175551524
 20
279.0277901662
 30
0.0
 11
43.6175551524
 21
294.027787037
 31
0.0
  0
LINE
  5
276
  8
0
  6
CONTINUOUS
 62
     7
 10
43.6175551524
 20
279.0277901662
 30
0.0
 11
46.6175551785
 21
279.0277901662
 31
0.0
  0
LINE
  5
277
  8
0
  6
CONTINUOUS
 62
     7
 10
46.6175551785
 20
259.0277906133
 30
0.0
 11
46.6175551785
 21
279.0277901662
 31
0.0
  0
LINE
  5
278
  8
0
  6
CONTINUOUS
 62
     7
 10
43.6175551524
 20
259.0277906133
 30
0.0
 11
46.6175551785
 21
259.0277906133
 31
0.0
  0
LINE
  5
279
  8
0
  6
CONTINUOUS
 62
     7
 10
43.6175551524
 20
244.0277900172
 30
0.0
 11
43.6175551524
 21
259.0277906133
 31
0.0
  0
LINE
  5
27A
  8
0
  6
CONTINUOUS
 62
     7
 10
43.6175551524
 20
244.0277900172
 30
0.0
 11
46.6175551785
 21
244.0277900172
 31
0.0
  0
LINE
  5
27B
  8
0
  6
CONTINUOUS
 62
     7
 10
46.6175551785
 20
224.0277895329
 30
0.0
 11
46.6175551785
 21
244.0277900172
 31
0.0
  0
LINE
  5
27C
  8
0
  6
CONTINUOUS
 62
     7
 10
43.6175551524
 20
224.0277895329
 30
0.0
 11
46.6175551785
 21
224.0277895329
 31
0.0
  0
LINE
  5
27D
  8
0
  6
CONTINUOUS
 62
     7
 10
43.6175551524
 20
218.0277894808
 30
0.0
 11
43.6175551524
 21
224.0277895329
 31
0.0
  0
LINE
  5
27E
  8
0
  6
CONTINUOUS
 62
     7
 10
43.6175551524
 20
218.0277894808
 30
0.0
 11
8.6175550034
 21
218.0277894808
 31
0.0
  0
LINE
  5
27F
  8
0
  6
CONTINUOUS
 62
     7
 10
54.4802950197
 20
219.0780632516
 30
0.0
 11
54.4802950197
 21
225.0780633038
 31
0.0
  0
LINE
  5
280
  8
0
  6
CONTINUOUS
 62
     7
 10
54.4802950197
 20
225.0780633038
 30
0.0
 11
57.4802936488
 21
225.0780633038
 31
0.0
  0
LINE
  5
281
  8
0
  6
CONTINUOUS
 62
     7
 10
57.4802936488
 20
225.0780633038
 30
0.0
 11
57.4802936488
 21
245.0780637881
 31
0.0
  0
LINE
  5
282
  8
0
  6
CONTINUOUS
 62
     7
 10
54.4802950197
 20
245.0780637881
 30
0.0
 11
57.4802936488
 21
245.0780637881
 31
0.0
  0
LINE
  5
283
  8
0
  6
CONTINUOUS
 62
     7
 10
54.4802950197
 20
245.0780637881
 30
0.0
 11
54.4802950197
 21
260.0780643841
 31
0.0
  0
LINE
  5
284
  8
0
  6
CONTINUOUS
 62
     7
 10
54.4802950197
 20
260.0780643841
 30
0.0
 11
57.4802936488
 21
260.0780643841
 31
0.0
  0
LINE
  5
285
  8
0
  6
CONTINUOUS
 62
     7
 10
57.4802936488
 20
260.0780643841
 30
0.0
 11
57.4802936488
 21
280.0780639371
 31
0.0
  0
LINE
  5
286
  8
0
  6
CONTINUOUS
 62
     7
 10
54.4802950197
 20
280.0780639371
 30
0.0
 11
57.4802936488
 21
280.0780639371
 31
0.0
  0
LINE
  5
287
  8
0
  6
CONTINUOUS
 62
     7
 10
54.4802950197
 20
280.0780639371
 30
0.0
 11
54.4802950197
 21
295.0780608078
 31
0.0
  0
LINE
  5
288
  8
0
  6
CONTINUOUS
 62
     7
 10
54.4802950197
 20
295.0780608078
 30
0.0
 11
57.4802936488
 21
295.0780608078
 31
0.0
  0
LINE
  5
289
  8
0
  6
CONTINUOUS
 62
     7
 10
57.4802936488
 20
295.0780608078
 30
0.0
 11
57.4802936488
 21
315.0780640861
 31
0.0
  0
LINE
  5
28A
  8
0
  6
CONTINUOUS
 62
     7
 10
54.4802950197
 20
315.0780640861
 30
0.0
 11
57.4802936488
 21
315.0780640861
 31
0.0
  0
LINE
  5
28B
  8
0
  6
CONTINUOUS
 62
     7
 10
54.4802950197
 20
315.0780640861
 30
0.0
 11
54.4802950197
 21
330.0780646822
 31
0.0
  0
LINE
  5
28C
  8
0
  6
CONTINUOUS
 62
     7
 10
54.4802950197
 20
330.0780646822
 30
0.0
 11
57.4802936488
 21
330.0780646822
 31
0.0
  0
LINE
  5
28D
  8
0
  6
CONTINUOUS
 62
     7
 10
57.4802936488
 20
330.0780646822
 30
0.0
 11
57.4802936488
 21
350.0780605098
 31
0.0
  0
LINE
  5
28E
  8
0
  6
CONTINUOUS
 62
     7
 10
54.4802950197
 20
350.0780605098
 30
0.0
 11
57.4802936488
 21
350.0780605098
 31
0.0
  0
LINE
  5
28F
  8
0
  6
CONTINUOUS
 62
     7
 10
54.4802950197
 20
350.0780605098
 30
0.0
 11
54.4802950197
 21
365.0780611059
 31
0.0
  0
LINE
  5
290
  8
0
  6
CONTINUOUS
 62
     7
 10
54.4802950197
 20
365.0780611059
 30
0.0
 11
57.4802936488
 21
365.0780611059
 31
0.0
  0
LINE
  5
291
  8
0
  6
CONTINUOUS
 62
     7
 10
57.4802936488
 20
365.0780611059
 30
0.0
 11
57.4802936488
 21
385.0780569335
 31
0.0
  0
LINE
  5
292
  8
0
  6
CONTINUOUS
 62
     7
 10
54.4802950197
 20
385.0780569335
 30
0.0
 11
57.4802936488
 21
385.0780569335
 31
0.0
  0
LINE
  5
293
  8
0
  6
CONTINUOUS
 62
     7
 10
54.4802950197
 20
385.0780569335
 30
0.0
 11
54.4802950197
 21
400.0780575296
 31
0.0
  0
LINE
  5
294
  8
0
  6
CONTINUOUS
 62
     7
 10
54.4802950197
 20
400.0780575296
 30
0.0
 11
57.4802936488
 21
400.0780575296
 31
0.0
  0
LINE
  5
295
  8
0
  6
CONTINUOUS
 62
     7
 10
57.4802936488
 20
400.0780575296
 30
0.0
 11
57.4802936488
 21
420.0780682584
 31
0.0
  0
LINE
  5
296
  8
0
  6
CONTINUOUS
 62
     7
 10
54.4802950197
 20
420.0780682584
 30
0.0
 11
57.4802936488
 21
420.0780682584
 31
0.0
  0
LINE
  5
297
  8
0
  6
CONTINUOUS
 62
     7
 10
54.4802950197
 20
420.0780682584
 30
0.0
 11
54.4802950197
 21
435.0780688545
 31
0.0
  0
LINE
  5
298
  8
0
  6
CONTINUOUS
 62
     7
 10
54.4802950197
 20
435.0780688545
 30
0.0
 11
57.4802936488
 21
435.0780688545
 31
0.0
  0
LINE
  5
299
  8
0
  6
CONTINUOUS
 62
     7
 10
57.4802936488
 20
435.0780688545
 30
0.0
 11
57.4802936488
 21
455.0780646822
 31
0.0
  0
LINE
  5
29A
  8
0
  6
CONTINUOUS
 62
     7
 10
54.4802950197
 20
455.0780646822
 30
0.0
 11
57.4802936488
 21
455.0780646822
 31
0.0
  0
LINE
  5
29B
  8
0
  6
CONTINUOUS
 62
     7
 10
54.4802950197
 20
455.0780646822
 30
0.0
 11
54.4802950197
 21
470.078050377
 31
0.0
  0
LINE
  5
29C
  8
0
  6
CONTINUOUS
 62
     7
 10
54.4802950197
 20
470.078050377
 30
0.0
 11
57.4802936488
 21
470.078050377
 31
0.0
  0
LINE
  5
29D
  8
0
  6
CONTINUOUS
 62
     7
 10
57.4802936488
 20
470.078050377
 30
0.0
 11
57.4802936488
 21
490.0780611059
 31
0.0
  0
LINE
  5
29E
  8
0
  6
CONTINUOUS
 62
     7
 10
54.4802950197
 20
490.0780611059
 30
0.0
 11
57.4802936488
 21
490.0780611059
 31
0.0
  0
LINE
  5
29F
  8
0
  6
CONTINUOUS
 62
     7
 10
54.4802950197
 20
490.0780611059
 30
0.0
 11
54.4802950197
 21
496.0780732652
 31
0.0
  0
LINE
  5
2A0
  8
0
  6
CONTINUOUS
 62
     7
 10
89.4802951687
 20
496.0780732652
 30
0.0
 11
54.4802950197
 21
496.0780732652
 31
0.0
  0
LINE
  5
2A1
  8
0
  6
CONTINUOUS
 62
     7
 10
89.4802951687
 20
490.0780611059
 30
0.0
 11
89.4802951687
 21
496.0780732652
 31
0.0
  0
LINE
  5
2A2
  8
0
  6
CONTINUOUS
 62
     7
 10
89.4802951687
 20
490.0780611059
 30
0.0
 11
92.4802951948
 21
490.0780611059
 31
0.0
  0
LINE
  5
2A3
  8
0
  6
CONTINUOUS
 62
     7
 10
92.4802951948
 20
470.078050377
 30
0.0
 11
92.4802951948
 21
490.0780611059
 31
0.0
  0
LINE
  5
2A4
  8
0
  6
CONTINUOUS
 62
     7
 10
89.4802951687
 20
470.078050377
 30
0.0
 11
92.4802951948
 21
470.078050377
 31
0.0
  0
LINE
  5
2A5
  8
0
  6
CONTINUOUS
 62
     7
 10
89.4802951687
 20
455.0780646822
 30
0.0
 11
89.4802951687
 21
470.078050377
 31
0.0
  0
LINE
  5
2A6
  8
0
  6
CONTINUOUS
 62
     7
 10
89.4802951687
 20
455.0780646822
 30
0.0
 11
92.4802951948
 21
455.0780646822
 31
0.0
  0
LINE
  5
2A7
  8
0
  6
CONTINUOUS
 62
     7
 10
92.4802951948
 20
435.0780688545
 30
0.0
 11
92.4802951948
 21
455.0780646822
 31
0.0
  0
LINE
  5
2A8
  8
0
  6
CONTINUOUS
 62
     7
 10
89.4802951687
 20
435.0780688545
 30
0.0
 11
92.4802951948
 21
435.0780688545
 31
0.0
  0
LINE
  5
2A9
  8
0
  6
CONTINUOUS
 62
     7
 10
89.4802951687
 20
420.0780682584
 30
0.0
 11
89.4802951687
 21
435.0780688545
 31
0.0
  0
LINE
  5
2AA
  8
0
  6
CONTINUOUS
 62
     7
 10
89.4802951687
 20
420.0780682584
 30
0.0
 11
92.4802951948
 21
420.0780682584
 31
0.0
  0
LINE
  5
2AB
  8
0
  6
CONTINUOUS
 62
     7
 10
92.4802951948
 20
400.0780575296
 30
0.0
 11
92.4802951948
 21
420.0780682584
 31
0.0
  0
LINE
  5
2AC
  8
0
  6
CONTINUOUS
 62
     7
 10
89.4802951687
 20
400.0780575296
 30
0.0
 11
92.4802951948
 21
400.0780575296
 31
0.0
  0
LINE
  5
2AD
  8
0
  6
CONTINUOUS
 62
     7
 10
89.4802951687
 20
385.0780569335
 30
0.0
 11
89.4802951687
 21
400.0780575296
 31
0.0
  0
LINE
  5
2AE
  8
0
  6
CONTINUOUS
 62
     7
 10
89.4802951687
 20
385.0780569335
 30
0.0
 11
92.4802951948
 21
385.0780569335
 31
0.0
  0
LINE
  5
2AF
  8
0
  6
CONTINUOUS
 62
     7
 10
92.4802951948
 20
365.0780611059
 30
0.0
 11
92.4802951948
 21
385.0780569335
 31
0.0
  0
LINE
  5
2B0
  8
0
  6
CONTINUOUS
 62
     7
 10
89.4802951687
 20
365.0780611059
 30
0.0
 11
92.4802951948
 21
365.0780611059
 31
0.0
  0
LINE
  5
2B1
  8
0
  6
CONTINUOUS
 62
     7
 10
89.4802951687
 20
350.0780605098
 30
0.0
 11
89.4802951687
 21
365.0780611059
 31
0.0
  0
LINE
  5
2B2
  8
0
  6
CONTINUOUS
 62
     7
 10
89.4802951687
 20
350.0780605098
 30
0.0
 11
92.4802951948
 21
350.0780605098
 31
0.0
  0
LINE
  5
2B3
  8
0
  6
CONTINUOUS
 62
     7
 10
92.4802951948
 20
330.0780646822
 30
0.0
 11
92.4802951948
 21
350.0780605098
 31
0.0
  0
LINE
  5
2B4
  8
0
  6
CONTINUOUS
 62
     7
 10
89.4802951687
 20
330.0780646822
 30
0.0
 11
92.4802951948
 21
330.0780646822
 31
0.0
  0
LINE
  5
2B5
  8
0
  6
CONTINUOUS
 62
     7
 10
89.4802951687
 20
315.0780640861
 30
0.0
 11
89.4802951687
 21
330.0780646822
 31
0.0
  0
LINE
  5
2B6
  8
0
  6
CONTINUOUS
 62
     7
 10
89.4802951687
 20
315.0780640861
 30
0.0
 11
92.4802951948
 21
315.0780640861
 31
0.0
  0
LINE
  5
2B7
  8
0
  6
CONTINUOUS
 62
     7
 10
92.4802951948
 20
295.0780608078
 30
0.0
 11
92.4802951948
 21
315.0780640861
 31
0.0
  0
LINE
  5
2B8
  8
0
  6
CONTINUOUS
 62
     7
 10
89.4802951687
 20
295.0780608078
 30
0.0
 11
92.4802951948
 21
295.0780608078
 31
0.0
  0
LINE
  5
2B9
  8
0
  6
CONTINUOUS
 62
     7
 10
89.4802951687
 20
280.0780639371
 30
0.0
 11
89.4802951687
 21
295.0780608078
 31
0.0
  0
LINE
  5
2BA
  8
0
  6
CONTINUOUS
 62
     7
 10
89.4802951687
 20
280.0780639371
 30
0.0
 11
92.4802951948
 21
280.0780639371
 31
0.0
  0
LINE
  5
2BB
  8
0
  6
CONTINUOUS
 62
     7
 10
92.4802951948
 20
260.0780643841
 30
0.0
 11
92.4802951948
 21
280.0780639371
 31
0.0
  0
LINE
  5
2BC
  8
0
  6
CONTINUOUS
 62
     7
 10
89.4802951687
 20
260.0780643841
 30
0.0
 11
92.4802951948
 21
260.0780643841
 31
0.0
  0
LINE
  5
2BD
  8
0
  6
CONTINUOUS
 62
     7
 10
89.4802951687
 20
245.0780637881
 30
0.0
 11
89.4802951687
 21
260.0780643841
 31
0.0
  0
LINE
  5
2BE
  8
0
  6
CONTINUOUS
 62
     7
 10
89.4802951687
 20
245.0780637881
 30
0.0
 11
92.4802951948
 21
245.0780637881
 31
0.0
  0
LINE
  5
2BF
  8
0
  6
CONTINUOUS
 62
     7
 10
92.4802951948
 20
225.0780633038
 30
0.0
 11
92.4802951948
 21
245.0780637881
 31
0.0
  0
LINE
  5
2C0
  8
0
  6
CONTINUOUS
 62
     7
 10
89.4802951687
 20
225.0780633038
 30
0.0
 11
92.4802951948
 21
225.0780633038
 31
0.0
  0
LINE
  5
2C1
  8
0
  6
CONTINUOUS
 62
     7
 10
89.4802951687
 20
219.0780632516
 30
0.0
 11
89.4802951687
 21
225.0780633038
 31
0.0
  0
LINE
  5
2C2
  8
0
  6
CONTINUOUS
 62
     7
 10
89.4802951687
 20
219.0780632516
 30
0.0
 11
54.4802950197
 21
219.0780632516
 31
0.0
  0
LINE
  5
2C3
  8
0
  6
CONTINUOUS
 62
     7
 10
167.9297072952
 20
492.7091708385
 30
0.0
 11
167.9297072952
 21
457.7091706895
 31
0.0
  0
LINE
  5
2C4
  8
0
  6
CONTINUOUS
 62
     7
 10
102.4297086661
 20
492.7091708385
 30
0.0
 11
108.4297087183
 21
492.7091708385
 31
0.0
  0
LINE
  5
2C5
  8
0
  6
CONTINUOUS
 62
     7
 10
108.4297087183
 20
492.7091708385
 30
0.0
 11
108.4297087183
 21
489.7091722094
 31
0.0
  0
LINE
  5
2C6
  8
0
  6
CONTINUOUS
 62
     7
 10
108.4297087183
 20
489.7091722094
 30
0.0
 11
128.4297092025
 21
489.7091722094
 31
0.0
  0
LINE
  5
2C7
  8
0
  6
CONTINUOUS
 62
     7
 10
128.4297092025
 20
492.7091708385
 30
0.0
 11
128.4297092025
 21
489.7091722094
 31
0.0
  0
LINE
  5
2C8
  8
0
  6
CONTINUOUS
 62
     7
 10
128.4297092025
 20
492.7091708385
 30
0.0
 11
143.4297097986
 21
492.7091708385
 31
0.0
  0
LINE
  5
2C9
  8
0
  6
CONTINUOUS
 62
     7
 10
143.4297097986
 20
492.7091708385
 30
0.0
 11
143.4297097986
 21
489.7091722094
 31
0.0
  0
LINE
  5
2CA
  8
0
  6
CONTINUOUS
 62
     7
 10
143.4297097986
 20
489.7091722094
 30
0.0
 11
163.4297093516
 21
489.7091722094
 31
0.0
  0
LINE
  5
2CB
  8
0
  6
CONTINUOUS
 62
     7
 10
163.4297093516
 20
492.7091708385
 30
0.0
 11
163.4297093516
 21
489.7091722094
 31
0.0
  0
LINE
  5
2CC
  8
0
  6
CONTINUOUS
 62
     7
 10
163.4297093516
 20
492.7091708385
 30
0.0
 11
167.9297072952
 21
492.7091708385
 31
0.0
  0
LINE
  5
2CD
  8
0
  6
CONTINUOUS
 62
     7
 10
163.4297093516
 20
457.7091706895
 30
0.0
 11
167.9297072952
 21
457.7091706895
 31
0.0
  0
LINE
  5
2CE
  8
0
  6
CONTINUOUS
 62
     7
 10
163.4297093516
 20
457.7091706895
 30
0.0
 11
163.4297093516
 21
454.7091706634
 31
0.0
  0
LINE
  5
2CF
  8
0
  6
CONTINUOUS
 62
     7
 10
143.4297097986
 20
454.7091706634
 30
0.0
 11
163.4297093516
 21
454.7091706634
 31
0.0
  0
LINE
  5
2D0
  8
0
  6
CONTINUOUS
 62
     7
 10
143.4297097986
 20
457.7091706895
 30
0.0
 11
143.4297097986
 21
454.7091706634
 31
0.0
  0
LINE
  5
2D1
  8
0
  6
CONTINUOUS
 62
     7
 10
128.4297092025
 20
457.7091706895
 30
0.0
 11
143.4297097986
 21
457.7091706895
 31
0.0
  0
LINE
  5
2D2
  8
0
  6
CONTINUOUS
 62
     7
 10
128.4297092025
 20
457.7091706895
 30
0.0
 11
128.4297092025
 21
454.7091706634
 31
0.0
  0
LINE
  5
2D3
  8
0
  6
CONTINUOUS
 62
     7
 10
108.4297087183
 20
454.7091706634
 30
0.0
 11
128.4297092025
 21
454.7091706634
 31
0.0
  0
LINE
  5
2D4
  8
0
  6
CONTINUOUS
 62
     7
 10
108.4297087183
 20
457.7091706895
 30
0.0
 11
108.4297087183
 21
454.7091706634
 31
0.0
  0
LINE
  5
2D5
  8
0
  6
CONTINUOUS
 62
     7
 10
102.4297086661
 20
457.7091706895
 30
0.0
 11
108.4297087183
 21
457.7091706895
 31
0.0
  0
LINE
  5
2D6
  8
0
  6
CONTINUOUS
 62
     7
 10
102.4297086661
 20
457.7091706895
 30
0.0
 11
102.4297086661
 21
492.7091708385
 31
0.0
  0
LINE
  5
2D7
  8
0
  6
CONTINUOUS
 62
     7
 10
165.7791257913
 20
447.5469592574
 30
0.0
 11
165.7791257913
 21
412.5469591084
 31
0.0
  0
LINE
  5
2D8
  8
0
  6
CONTINUOUS
 62
     7
 10
100.2791271622
 20
447.5469592574
 30
0.0
 11
106.2791272144
 21
447.5469592574
 31
0.0
  0
LINE
  5
2D9
  8
0
  6
CONTINUOUS
 62
     7
 10
106.2791272144
 20
447.5469592574
 30
0.0
 11
106.2791272144
 21
444.5469606283
 31
0.0
  0
LINE
  5
2DA
  8
0
  6
CONTINUOUS
 62
     7
 10
106.2791272144
 20
444.5469606283
 30
0.0
 11
126.2791276987
 21
444.5469606283
 31
0.0
  0
LINE
  5
2DB
  8
0
  6
CONTINUOUS
 62
     7
 10
126.2791276987
 20
447.5469592574
 30
0.0
 11
126.2791276987
 21
444.5469606283
 31
0.0
  0
LINE
  5
2DC
  8
0
  6
CONTINUOUS
 62
     7
 10
126.2791276987
 20
447.5469592574
 30
0.0
 11
141.2791282947
 21
447.5469592574
 31
0.0
  0
LINE
  5
2DD
  8
0
  6
CONTINUOUS
 62
     7
 10
141.2791282947
 20
447.5469592574
 30
0.0
 11
141.2791282947
 21
444.5469606283
 31
0.0
  0
LINE
  5
2DE
  8
0
  6
CONTINUOUS
 62
     7
 10
141.2791282947
 20
444.5469606283
 30
0.0
 11
161.2791278477
 21
444.5469606283
 31
0.0
  0
LINE
  5
2DF
  8
0
  6
CONTINUOUS
 62
     7
 10
161.2791278477
 20
447.5469592574
 30
0.0
 11
161.2791278477
 21
444.5469606283
 31
0.0
  0
LINE
  5
2E0
  8
0
  6
CONTINUOUS
 62
     7
 10
161.2791278477
 20
447.5469592574
 30
0.0
 11
165.7791257913
 21
447.5469592574
 31
0.0
  0
LINE
  5
2E1
  8
0
  6
CONTINUOUS
 62
     7
 10
161.2791278477
 20
412.5469591084
 30
0.0
 11
165.7791257913
 21
412.5469591084
 31
0.0
  0
LINE
  5
2E2
  8
0
  6
CONTINUOUS
 62
     7
 10
161.2791278477
 20
412.5469591084
 30
0.0
 11
161.2791278477
 21
409.5469590823
 31
0.0
  0
LINE
  5
2E3
  8
0
  6
CONTINUOUS
 62
     7
 10
141.2791282947
 20
409.5469590823
 30
0.0
 11
161.2791278477
 21
409.5469590823
 31
0.0
  0
LINE
  5
2E4
  8
0
  6
CONTINUOUS
 62
     7
 10
141.2791282947
 20
412.5469591084
 30
0.0
 11
141.2791282947
 21
409.5469590823
 31
0.0
  0
LINE
  5
2E5
  8
0
  6
CONTINUOUS
 62
     7
 10
126.2791276987
 20
412.5469591084
 30
0.0
 11
141.2791282947
 21
412.5469591084
 31
0.0
  0
LINE
  5
2E6
  8
0
  6
CONTINUOUS
 62
     7
 10
126.2791276987
 20
412.5469591084
 30
0.0
 11
126.2791276987
 21
409.5469590823
 31
0.0
  0
LINE
  5
2E7
  8
0
  6
CONTINUOUS
 62
     7
 10
106.2791272144
 20
409.5469590823
 30
0.0
 11
126.2791276987
 21
409.5469590823
 31
0.0
  0
LINE
  5
2E8
  8
0
  6
CONTINUOUS
 62
     7
 10
106.2791272144
 20
412.5469591084
 30
0.0
 11
106.2791272144
 21
409.5469590823
 31
0.0
  0
LINE
  5
2E9
  8
0
  6
CONTINUOUS
 62
     7
 10
100.2791271622
 20
412.5469591084
 30
0.0
 11
106.2791272144
 21
412.5469591084
 31
0.0
  0
LINE
  5
2EA
  8
0
  6
CONTINUOUS
 62
     7
 10
100.2791271622
 20
412.5469591084
 30
0.0
 11
100.2791271622
 21
447.5469592574
 31
0.0
  0
LINE
  5
2EB
  8
0
  6
CONTINUOUS
 62
     7
 10
167.9297072952
 20
404.1052128794
 30
0.0
 11
167.9297072952
 21
369.1052127304
 31
0.0
  0
LINE
  5
2EC
  8
0
  6
CONTINUOUS
 62
     7
 10
102.4297086661
 20
404.1052128794
 30
0.0
 11
108.4297087183
 21
404.1052128794
 31
0.0
  0
LINE
  5
2ED
  8
0
  6
CONTINUOUS
 62
     7
 10
108.4297087183
 20
404.1052128794
 30
0.0
 11
108.4297087183
 21
401.1052142503
 31
0.0
  0
LINE
  5
2EE
  8
0
  6
CONTINUOUS
 62
     7
 10
108.4297087183
 20
401.1052142503
 30
0.0
 11
128.4297092025
 21
401.1052142503
 31
0.0
  0
LINE
  5
2EF
  8
0
  6
CONTINUOUS
 62
     7
 10
128.4297092025
 20
404.1052128794
 30
0.0
 11
128.4297092025
 21
401.1052142503
 31
0.0
  0
LINE
  5
2F0
  8
0
  6
CONTINUOUS
 62
     7
 10
128.4297092025
 20
404.1052128794
 30
0.0
 11
143.4297097986
 21
404.1052128794
 31
0.0
  0
LINE
  5
2F1
  8
0
  6
CONTINUOUS
 62
     7
 10
143.4297097986
 20
404.1052128794
 30
0.0
 11
143.4297097986
 21
401.1052142503
 31
0.0
  0
LINE
  5
2F2
  8
0
  6
CONTINUOUS
 62
     7
 10
143.4297097986
 20
401.1052142503
 30
0.0
 11
163.4297093516
 21
401.1052142503
 31
0.0
  0
LINE
  5
2F3
  8
0
  6
CONTINUOUS
 62
     7
 10
163.4297093516
 20
404.1052128794
 30
0.0
 11
163.4297093516
 21
401.1052142503
 31
0.0
  0
LINE
  5
2F4
  8
0
  6
CONTINUOUS
 62
     7
 10
163.4297093516
 20
404.1052128794
 30
0.0
 11
167.9297072952
 21
404.1052128794
 31
0.0
  0
LINE
  5
2F5
  8
0
  6
CONTINUOUS
 62
     7
 10
163.4297093516
 20
369.1052127304
 30
0.0
 11
167.9297072952
 21
369.1052127304
 31
0.0
  0
LINE
  5
2F6
  8
0
  6
CONTINUOUS
 62
     7
 10
163.4297093516
 20
369.1052127304
 30
0.0
 11
163.4297093516
 21
366.1052127043
 31
0.0
  0
LINE
  5
2F7
  8
0
  6
CONTINUOUS
 62
     7
 10
143.4297097986
 20
366.1052127043
 30
0.0
 11
163.4297093516
 21
366.1052127043
 31
0.0
  0
LINE
  5
2F8
  8
0
  6
CONTINUOUS
 62
     7
 10
143.4297097986
 20
369.1052127304
 30
0.0
 11
143.4297097986
 21
366.1052127043
 31
0.0
  0
LINE
  5
2F9
  8
0
  6
CONTINUOUS
 62
     7
 10
128.4297092025
 20
369.1052127304
 30
0.0
 11
143.4297097986
 21
369.1052127304
 31
0.0
  0
LINE
  5
2FA
  8
0
  6
CONTINUOUS
 62
     7
 10
128.4297092025
 20
369.1052127304
 30
0.0
 11
128.4297092025
 21
366.1052127043
 31
0.0
  0
LINE
  5
2FB
  8
0
  6
CONTINUOUS
 62
     7
 10
108.4297087183
 20
366.1052127043
 30
0.0
 11
128.4297092025
 21
366.1052127043
 31
0.0
  0
LINE
  5
2FC
  8
0
  6
CONTINUOUS
 62
     7
 10
108.4297087183
 20
369.1052127304
 30
0.0
 11
108.4297087183
 21
366.1052127043
 31
0.0
  0
LINE
  5
2FD
  8
0
  6
CONTINUOUS
 62
     7
 10
102.4297086661
 20
369.1052127304
 30
0.0
 11
108.4297087183
 21
369.1052127304
 31
0.0
  0
LINE
  5
2FE
  8
0
  6
CONTINUOUS
 62
     7
 10
102.4297086661
 20
369.1052127304
 30
0.0
 11
102.4297086661
 21
404.1052128794
 31
0.0
  0
LINE
  5
2FF
  8
0
  6
CONTINUOUS
 62
     7
 10
169.6501724983
 20
357.2225360952
 30
0.0
 11
169.6501724983
 21
322.2225359462
 31
0.0
  0
LINE
  5
300
  8
0
  6
CONTINUOUS
 62
     7
 10
104.1501738692
 20
357.2225360952
 30
0.0
 11
110.1501739213
 21
357.2225360952
 31
0.0
  0
LINE
  5
301
  8
0
  6
CONTINUOUS
 62
     7
 10
110.1501739213
 20
357.2225360952
 30
0.0
 11
110.1501739213
 21
354.2225374661
 31
0.0
  0
LINE
  5
302
  8
0
  6
CONTINUOUS
 62
     7
 10
110.1501739213
 20
354.2225374661
 30
0.0
 11
130.1501744056
 21
354.2225374661
 31
0.0
  0
LINE
  5
303
  8
0
  6
CONTINUOUS
 62
     7
 10
130.1501744056
 20
357.2225360952
 30
0.0
 11
130.1501744056
 21
354.2225374661
 31
0.0
  0
LINE
  5
304
  8
0
  6
CONTINUOUS
 62
     7
 10
130.1501744056
 20
357.2225360952
 30
0.0
 11
145.1501750017
 21
357.2225360952
 31
0.0
  0
LINE
  5
305
  8
0
  6
CONTINUOUS
 62
     7
 10
145.1501750017
 20
357.2225360952
 30
0.0
 11
145.1501750017
 21
354.2225374661
 31
0.0
  0
LINE
  5
306
  8
0
  6
CONTINUOUS
 62
     7
 10
145.1501750017
 20
354.2225374661
 30
0.0
 11
165.1501745546
 21
354.2225374661
 31
0.0
  0
LINE
  5
307
  8
0
  6
CONTINUOUS
 62
     7
 10
165.1501745546
 20
357.2225360952
 30
0.0
 11
165.1501745546
 21
354.2225374661
 31
0.0
  0
LINE
  5
308
  8
0
  6
CONTINUOUS
 62
     7
 10
165.1501745546
 20
357.2225360952
 30
0.0
 11
169.6501724983
 21
357.2225360952
 31
0.0
  0
LINE
  5
309
  8
0
  6
CONTINUOUS
 62
     7
 10
165.1501745546
 20
322.2225359462
 30
0.0
 11
169.6501724983
 21
322.2225359462
 31
0.0
  0
LINE
  5
30A
  8
0
  6
CONTINUOUS
 62
     7
 10
165.1501745546
 20
322.2225359462
 30
0.0
 11
165.1501745546
 21
319.2225359201
 31
0.0
  0
LINE
  5
30B
  8
0
  6
CONTINUOUS
 62
     7
 10
145.1501750017
 20
319.2225359201
 30
0.0
 11
165.1501745546
 21
319.2225359201
 31
0.0
  0
LINE
  5
30C
  8
0
  6
CONTINUOUS
 62
     7
 10
145.1501750017
 20
322.2225359462
 30
0.0
 11
145.1501750017
 21
319.2225359201
 31
0.0
  0
LINE
  5
30D
  8
0
  6
CONTINUOUS
 62
     7
 10
130.1501744056
 20
322.2225359462
 30
0.0
 11
145.1501750017
 21
322.2225359462
 31
0.0
  0
LINE
  5
30E
  8
0
  6
CONTINUOUS
 62
     7
 10
130.1501744056
 20
322.2225359462
 30
0.0
 11
130.1501744056
 21
319.2225359201
 31
0.0
  0
LINE
  5
30F
  8
0
  6
CONTINUOUS
 62
     7
 10
110.1501739213
 20
319.2225359201
 30
0.0
 11
130.1501744056
 21
319.2225359201
 31
0.0
  0
LINE
  5
310
  8
0
  6
CONTINUOUS
 62
     7
 10
110.1501739213
 20
322.2225359462
 30
0.0
 11
110.1501739213
 21
319.2225359201
 31
0.0
  0
LINE
  5
311
  8
0
  6
CONTINUOUS
 62
     7
 10
104.1501738692
 20
322.2225359462
 30
0.0
 11
110.1501739213
 21
322.2225359462
 31
0.0
  0
LINE
  5
312
  8
0
  6
CONTINUOUS
 62
     7
 10
104.1501738692
 20
322.2225359462
 30
0.0
 11
104.1501738692
 21
357.2225360952
 31
0.0
  0
LINE
  5
313
  8
0
  6
CONTINUOUS
 62
     7
 10
44.0699356684
 20
11.5512454392
 30
0.0
 11
44.0699356684
 21
31.5512454392
 31
0.0
  0
LINE
  5
314
  8
0
  6
CONTINUOUS
 62
     7
 10
44.0699356684
 20
31.5512454392
 30
0.0
 11
41.0699356684
 21
31.5512454392
 31
0.0
  0
LINE
  5
315
  8
0
  6
CONTINUOUS
 62
     7
 10
41.0699356684
 20
31.5512454392
 30
0.0
 11
41.0699356684
 21
51.5512454392
 31
0.0
  0
LINE
  5
316
  8
0
  6
CONTINUOUS
 62
     7
 10
44.0699356684
 20
51.5512454392
 30
0.0
 11
41.0699356684
 21
51.5512454392
 31
0.0
  0
LINE
  5
317
  8
0
  6
CONTINUOUS
 62
     7
 10
44.0699356684
 20
51.5512454392
 30
0.0
 11
44.0699356684
 21
66.5512454392
 31
0.0
  0
LINE
  5
318
  8
0
  6
CONTINUOUS
 62
     7
 10
44.0699356684
 20
66.5512454392
 30
0.0
 11
41.0699356684
 21
66.5512454392
 31
0.0
  0
LINE
  5
319
  8
0
  6
CONTINUOUS
 62
     7
 10
41.0699356684
 20
66.5512454392
 30
0.0
 11
41.0699356684
 21
86.5512454392
 31
0.0
  0
LINE
  5
31A
  8
0
  6
CONTINUOUS
 62
     7
 10
44.0699356684
 20
86.5512454392
 30
0.0
 11
41.0699356684
 21
86.5512454392
 31
0.0
  0
LINE
  5
31B
  8
0
  6
CONTINUOUS
 62
     7
 10
44.0699356684
 20
86.5512454392
 30
0.0
 11
44.0699356684
 21
101.5512454392
 31
0.0
  0
LINE
  5
31C
  8
0
  6
CONTINUOUS
 62
     7
 10
44.0699356684
 20
101.5512454392
 30
0.0
 11
41.0699356684
 21
101.5512454392
 31
0.0
  0
LINE
  5
31D
  8
0
  6
CONTINUOUS
 62
     7
 10
41.0699356684
 20
101.5512454392
 30
0.0
 11
41.0699356684
 21
121.5512454392
 31
0.0
  0
LINE
  5
31E
  8
0
  6
CONTINUOUS
 62
     7
 10
44.0699356684
 20
121.5512454392
 30
0.0
 11
41.0699356684
 21
121.5512454392
 31
0.0
  0
LINE
  5
31F
  8
0
  6
CONTINUOUS
 62
     7
 10
44.0699356684
 20
121.5512454392
 30
0.0
 11
44.0699356684
 21
136.5512454392
 31
0.0
  0
LINE
  5
320
  8
0
  6
CONTINUOUS
 62
     7
 10
44.0699356684
 20
136.5512454392
 30
0.0
 11
41.0699356684
 21
136.5512454392
 31
0.0
  0
LINE
  5
321
  8
0
  6
CONTINUOUS
 62
     7
 10
41.0699356684
 20
136.5512454392
 30
0.0
 11
41.0699356684
 21
156.5512454392
 31
0.0
  0
LINE
  5
322
  8
0
  6
CONTINUOUS
 62
     7
 10
44.0699356684
 20
156.5512454392
 30
0.0
 11
41.0699356684
 21
156.5512454392
 31
0.0
  0
LINE
  5
323
  8
0
  6
CONTINUOUS
 62
     7
 10
44.0699356684
 20
156.5512454392
 30
0.0
 11
44.0699356684
 21
171.5512454392
 31
0.0
  0
LINE
  5
324
  8
0
  6
CONTINUOUS
 62
     7
 10
44.0699356684
 20
171.5512454392
 30
0.0
 11
41.0699356684
 21
171.5512454392
 31
0.0
  0
LINE
  5
325
  8
0
  6
CONTINUOUS
 62
     7
 10
41.0699356684
 20
171.5512454392
 30
0.0
 11
41.0699356684
 21
191.5512454392
 31
0.0
  0
LINE
  5
326
  8
0
  6
CONTINUOUS
 62
     7
 10
44.0699356684
 20
191.5512454392
 30
0.0
 11
41.0699356684
 21
191.5512454392
 31
0.0
  0
LINE
  5
327
  8
0
  6
CONTINUOUS
 62
     7
 10
44.0699356684
 20
191.5512454392
 30
0.0
 11
44.0699356684
 21
211.5512454392
 31
0.0
  0
LINE
  5
328
  8
0
  6
CONTINUOUS
 62
     7
 10
9.0699356684
 20
211.5512454392
 30
0.0
 11
44.0699356684
 21
211.5512454392
 31
0.0
  0
LINE
  5
329
  8
0
  6
CONTINUOUS
 62
     7
 10
9.0699356684
 20
191.5512454392
 30
0.0
 11
9.0699356684
 21
211.5512454392
 31
0.0
  0
LINE
  5
32A
  8
0
  6
CONTINUOUS
 62
     7
 10
9.0699356684
 20
191.5512454392
 30
0.0
 11
6.0699356684
 21
191.5512454392
 31
0.0
  0
LINE
  5
32B
  8
0
  6
CONTINUOUS
 62
     7
 10
6.0699356684
 20
171.5512454392
 30
0.0
 11
6.0699356684
 21
191.5512454392
 31
0.0
  0
LINE
  5
32C
  8
0
  6
CONTINUOUS
 62
     7
 10
9.0699356684
 20
171.5512454392
 30
0.0
 11
6.0699356684
 21
171.5512454392
 31
0.0
  0
LINE
  5
32D
  8
0
  6
CONTINUOUS
 62
     7
 10
9.0699356684
 20
156.5512454392
 30
0.0
 11
9.0699356684
 21
171.5512454392
 31
0.0
  0
LINE
  5
32E
  8
0
  6
CONTINUOUS
 62
     7
 10
9.0699356684
 20
156.5512454392
 30
0.0
 11
6.0699356684
 21
156.5512454392
 31
0.0
  0
LINE
  5
32F
  8
0
  6
CONTINUOUS
 62
     7
 10
6.0699356684
 20
136.5512454392
 30
0.0
 11
6.0699356684
 21
156.5512454392
 31
0.0
  0
LINE
  5
330
  8
0
  6
CONTINUOUS
 62
     7
 10
9.0699356684
 20
136.5512454392
 30
0.0
 11
6.0699356684
 21
136.5512454392
 31
0.0
  0
LINE
  5
331
  8
0
  6
CONTINUOUS
 62
     7
 10
9.0699356684
 20
121.5512454392
 30
0.0
 11
9.0699356684
 21
136.5512454392
 31
0.0
  0
LINE
  5
332
  8
0
  6
CONTINUOUS
 62
     7
 10
9.0699356684
 20
121.5512454392
 30
0.0
 11
6.0699356684
 21
121.5512454392
 31
0.0
  0
LINE
  5
333
  8
0
  6
CONTINUOUS
 62
     7
 10
6.0699356684
 20
101.5512454392
 30
0.0
 11
6.0699356684
 21
121.5512454392
 31
0.0
  0
LINE
  5
334
  8
0
  6
CONTINUOUS
 62
     7
 10
9.0699356684
 20
101.5512454392
 30
0.0
 11
6.0699356684
 21
101.5512454392
 31
0.0
  0
LINE
  5
335
  8
0
  6
CONTINUOUS
 62
     7
 10
9.0699356684
 20
86.5512454392
 30
0.0
 11
9.0699356684
 21
101.5512454392
 31
0.0
  0
LINE
  5
336
  8
0
  6
CONTINUOUS
 62
     7
 10
9.0699356684
 20
86.5512454392
 30
0.0
 11
6.0699356684
 21
86.5512454392
 31
0.0
  0
LINE
  5
337
  8
0
  6
CONTINUOUS
 62
     7
 10
6.0699356684
 20
66.5512454392
 30
0.0
 11
6.0699356684
 21
86.5512454392
 31
0.0
  0
LINE
  5
338
  8
0
  6
CONTINUOUS
 62
     7
 10
9.0699356684
 20
66.5512454392
 30
0.0
 11
6.0699356684
 21
66.5512454392
 31
0.0
  0
LINE
  5
339
  8
0
  6
CONTINUOUS
 62
     7
 10
9.0699356684
 20
51.5512454392
 30
0.0
 11
9.0699356684
 21
66.5512454392
 31
0.0
  0
LINE
  5
33A
  8
0
  6
CONTINUOUS
 62
     7
 10
9.0699356684
 20
51.5512454392
 30
0.0
 11
6.0699356684
 21
51.5512454392
 31
0.0
  0
LINE
  5
33B
  8
0
  6
CONTINUOUS
 62
     7
 10
6.0699356684
 20
31.5512454392
 30
0.0
 11
6.0699356684
 21
51.5512454392
 31
0.0
  0
LINE
  5
33C
  8
0
  6
CONTINUOUS
 62
     7
 10
9.0699356684
 20
31.5512454392
 30
0.0
 11
6.0699356684
 21
31.5512454392
 31
0.0
  0
LINE
  5
33D
  8
0
  6
CONTINUOUS
 62
     7
 10
9.0699356684
 20
11.5512454392
 30
0.0
 11
9.0699356684
 21
31.5512454392
 31
0.0
  0
LINE
  5
33E
  8
0
  6
CONTINUOUS
 62
     7
 10
9.0699356684
 20
11.5512454392
 30
0.0
 11
44.0699356684
 21
11.5512454392
 31
0.0
  0
LINE
  5
33F
  8
0
  6
CONTINUOUS
 62
     7
 10
182.9975009669
 20
18.2608965369
 30
0.0
 11
182.9975009669
 21
30.2608966412
 31
0.0
  0
LINE
  5
340
  8
0
  6
CONTINUOUS
 62
     7
 10
182.9975009669
 20
30.2608966412
 30
0.0
 11
179.9975023378
 21
30.2608966412
 31
0.0
  0
LINE
  5
341
  8
0
  6
CONTINUOUS
 62
     7
 10
179.9975023378
 20
30.2608966412
 30
0.0
 11
179.9975023378
 21
50.2608980568
 31
0.0
  0
LINE
  5
342
  8
0
  6
CONTINUOUS
 62
     7
 10
182.9975009669
 20
50.2608980568
 30
0.0
 11
179.9975023378
 21
50.2608980568
 31
0.0
  0
LINE
  5
343
  8
0
  6
CONTINUOUS
 62
     7
 10
182.9975009669
 20
50.2608980568
 30
0.0
 11
182.9975009669
 21
65.2608949275
 31
0.0
  0
LINE
  5
344
  8
0
  6
CONTINUOUS
 62
     7
 10
182.9975009669
 20
65.2608949275
 30
0.0
 11
179.9975023378
 21
65.2608949275
 31
0.0
  0
LINE
  5
345
  8
0
  6
CONTINUOUS
 62
     7
 10
179.9975023378
 20
65.2608949275
 30
0.0
 11
179.9975023378
 21
85.2608982058
 31
0.0
  0
LINE
  5
346
  8
0
  6
CONTINUOUS
 62
     7
 10
182.9975009669
 20
85.2608982058
 30
0.0
 11
179.9975023378
 21
85.2608982058
 31
0.0
  0
LINE
  5
347
  8
0
  6
CONTINUOUS
 62
     7
 10
182.9975009669
 20
85.2608982058
 30
0.0
 11
182.9975009669
 21
100.2608988018
 31
0.0
  0
LINE
  5
348
  8
0
  6
CONTINUOUS
 62
     7
 10
182.9975009669
 20
100.2608988018
 30
0.0
 11
179.9975023378
 21
100.2608988018
 31
0.0
  0
LINE
  5
349
  8
0
  6
CONTINUOUS
 62
     7
 10
179.9975023378
 20
100.2608988018
 30
0.0
 11
179.9975023378
 21
120.2608946295
 31
0.0
  0
LINE
  5
34A
  8
0
  6
CONTINUOUS
 62
     7
 10
182.9975009669
 20
120.2608946295
 30
0.0
 11
179.9975023378
 21
120.2608946295
 31
0.0
  0
LINE
  5
34B
  8
0
  6
CONTINUOUS
 62
     7
 10
182.9975009669
 20
120.2608946295
 30
0.0
 11
182.9975009669
 21
135.2608952256
 31
0.0
  0
LINE
  5
34C
  8
0
  6
CONTINUOUS
 62
     7
 10
182.9975009669
 20
135.2608952256
 30
0.0
 11
179.9975023378
 21
135.2608952256
 31
0.0
  0
LINE
  5
34D
  8
0
  6
CONTINUOUS
 62
     7
 10
179.9975023378
 20
135.2608952256
 30
0.0
 11
179.9975023378
 21
155.2608910532
 31
0.0
  0
LINE
  5
34E
  8
0
  6
CONTINUOUS
 62
     7
 10
182.9975009669
 20
155.2608910532
 30
0.0
 11
179.9975023378
 21
155.2608910532
 31
0.0
  0
LINE
  5
34F
  8
0
  6
CONTINUOUS
 62
     7
 10
182.9975009669
 20
155.2608910532
 30
0.0
 11
182.9975009669
 21
170.2608916493
 31
0.0
  0
LINE
  5
350
  8
0
  6
CONTINUOUS
 62
     7
 10
182.9975009669
 20
170.2608916493
 30
0.0
 11
179.9975023378
 21
170.2608916493
 31
0.0
  0
LINE
  5
351
  8
0
  6
CONTINUOUS
 62
     7
 10
179.9975023378
 20
170.2608916493
 30
0.0
 11
179.9975023378
 21
190.2609023781
 31
0.0
  0
LINE
  5
352
  8
0
  6
CONTINUOUS
 62
     7
 10
182.9975009669
 20
190.2609023781
 30
0.0
 11
179.9975023378
 21
190.2609023781
 31
0.0
  0
LINE
  5
353
  8
0
  6
CONTINUOUS
 62
     7
 10
182.9975009669
 20
190.2609023781
 30
0.0
 11
182.9975009669
 21
202.2608968945
 31
0.0
  0
LINE
  5
354
  8
0
  6
CONTINUOUS
 62
     7
 10
147.9975008178
 20
202.2608968945
 30
0.0
 11
182.9975009669
 21
202.2608968945
 31
0.0
  0
LINE
  5
355
  8
0
  6
CONTINUOUS
 62
     7
 10
147.9975008178
 20
190.2609023781
 30
0.0
 11
147.9975008178
 21
202.2608968945
 31
0.0
  0
LINE
  5
356
  8
0
  6
CONTINUOUS
 62
     7
 10
147.9975008178
 20
190.2609023781
 30
0.0
 11
144.9975007918
 21
190.2609023781
 31
0.0
  0
LINE
  5
357
  8
0
  6
CONTINUOUS
 62
     7
 10
144.9975007918
 20
170.2608916493
 30
0.0
 11
144.9975007918
 21
190.2609023781
 31
0.0
  0
LINE
  5
358
  8
0
  6
CONTINUOUS
 62
     7
 10
147.9975008178
 20
170.2608916493
 30
0.0
 11
144.9975007918
 21
170.2608916493
 31
0.0
  0
LINE
  5
359
  8
0
  6
CONTINUOUS
 62
     7
 10
147.9975008178
 20
155.2608910532
 30
0.0
 11
147.9975008178
 21
170.2608916493
 31
0.0
  0
LINE
  5
35A
  8
0
  6
CONTINUOUS
 62
     7
 10
147.9975008178
 20
155.2608910532
 30
0.0
 11
144.9975007918
 21
155.2608910532
 31
0.0
  0
LINE
  5
35B
  8
0
  6
CONTINUOUS
 62
     7
 10
144.9975007918
 20
135.2608952256
 30
0.0
 11
144.9975007918
 21
155.2608910532
 31
0.0
  0
LINE
  5
35C
  8
0
  6
CONTINUOUS
 62
     7
 10
147.9975008178
 20
135.2608952256
 30
0.0
 11
144.9975007918
 21
135.2608952256
 31
0.0
  0
LINE
  5
35D
  8
0
  6
CONTINUOUS
 62
     7
 10
147.9975008178
 20
120.2608946295
 30
0.0
 11
147.9975008178
 21
135.2608952256
 31
0.0
  0
LINE
  5
35E
  8
0
  6
CONTINUOUS
 62
     7
 10
147.9975008178
 20
120.2608946295
 30
0.0
 11
144.9975007918
 21
120.2608946295
 31
0.0
  0
LINE
  5
35F
  8
0
  6
CONTINUOUS
 62
     7
 10
144.9975007918
 20
100.2608988018
 30
0.0
 11
144.9975007918
 21
120.2608946295
 31
0.0
  0
LINE
  5
360
  8
0
  6
CONTINUOUS
 62
     7
 10
147.9975008178
 20
100.2608988018
 30
0.0
 11
144.9975007918
 21
100.2608988018
 31
0.0
  0
LINE
  5
361
  8
0
  6
CONTINUOUS
 62
     7
 10
147.9975008178
 20
85.2608982058
 30
0.0
 11
147.9975008178
 21
100.2608988018
 31
0.0
  0
LINE
  5
362
  8
0
  6
CONTINUOUS
 62
     7
 10
147.9975008178
 20
85.2608982058
 30
0.0
 11
144.9975007918
 21
85.2608982058
 31
0.0
  0
LINE
  5
363
  8
0
  6
CONTINUOUS
 62
     7
 10
144.9975007918
 20
65.2608949275
 30
0.0
 11
144.9975007918
 21
85.2608982058
 31
0.0
  0
LINE
  5
364
  8
0
  6
CONTINUOUS
 62
     7
 10
147.9975008178
 20
65.2608949275
 30
0.0
 11
144.9975007918
 21
65.2608949275
 31
0.0
  0
LINE
  5
365
  8
0
  6
CONTINUOUS
 62
     7
 10
147.9975008178
 20
50.2608980568
 30
0.0
 11
147.9975008178
 21
65.2608949275
 31
0.0
  0
LINE
  5
366
  8
0
  6
CONTINUOUS
 62
     7
 10
147.9975008178
 20
50.2608980568
 30
0.0
 11
144.9975007918
 21
50.2608980568
 31
0.0
  0
LINE
  5
367
  8
0
  6
CONTINUOUS
 62
     7
 10
144.9975007918
 20
30.2608966412
 30
0.0
 11
144.9975007918
 21
50.2608980568
 31
0.0
  0
LINE
  5
368
  8
0
  6
CONTINUOUS
 62
     7
 10
147.9975008178
 20
30.2608966412
 30
0.0
 11
144.9975007918
 21
30.2608966412
 31
0.0
  0
LINE
  5
369
  8
0
  6
CONTINUOUS
 62
     7
 10
147.9975008178
 20
18.2608965369
 30
0.0
 11
147.9975008178
 21
30.2608966412
 31
0.0
  0
LINE
  5
36A
  8
0
  6
CONTINUOUS
 62
     7
 10
147.9975008178
 20
18.2608965369
 30
0.0
 11
182.9975009669
 21
18.2608965369
 31
0.0
  0
LINE
  5
36B
  8
0
  6
CONTINUOUS
 62
     7
 10
226.0091310441
 20
18.2608965369
 30
0.0
 11
226.0091310441
 21
30.2608966412
 31
0.0
  0
LINE
  5
36C
  8
0
  6
CONTINUOUS
 62
     7
 10
226.0091310441
 20
30.2608966412
 30
0.0
 11
223.009132415
 21
30.2608966412
 31
0.0
  0
LINE
  5
36D
  8
0
  6
CONTINUOUS
 62
     7
 10
223.009132415
 20
30.2608966412
 30
0.0
 11
223.009132415
 21
50.2608980568
 31
0.0
  0
LINE
  5
36E
  8
0
  6
CONTINUOUS
 62
     7
 10
226.0091310441
 20
50.2608980568
 30
0.0
 11
223.009132415
 21
50.2608980568
 31
0.0
  0
LINE
  5
36F
  8
0
  6
CONTINUOUS
 62
     7
 10
226.0091310441
 20
50.2608980568
 30
0.0
 11
226.0091310441
 21
65.2608949275
 31
0.0
  0
LINE
  5
370
  8
0
  6
CONTINUOUS
 62
     7
 10
226.0091310441
 20
65.2608949275
 30
0.0
 11
223.009132415
 21
65.2608949275
 31
0.0
  0
LINE
  5
371
  8
0
  6
CONTINUOUS
 62
     7
 10
223.009132415
 20
65.2608949275
 30
0.0
 11
223.009132415
 21
85.2608982058
 31
0.0
  0
LINE
  5
372
  8
0
  6
CONTINUOUS
 62
     7
 10
226.0091310441
 20
85.2608982058
 30
0.0
 11
223.009132415
 21
85.2608982058
 31
0.0
  0
LINE
  5
373
  8
0
  6
CONTINUOUS
 62
     7
 10
226.0091310441
 20
85.2608982058
 30
0.0
 11
226.0091310441
 21
100.2608988018
 31
0.0
  0
LINE
  5
374
  8
0
  6
CONTINUOUS
 62
     7
 10
226.0091310441
 20
100.2608988018
 30
0.0
 11
223.009132415
 21
100.2608988018
 31
0.0
  0
LINE
  5
375
  8
0
  6
CONTINUOUS
 62
     7
 10
223.009132415
 20
100.2608988018
 30
0.0
 11
223.009132415
 21
120.2608946295
 31
0.0
  0
LINE
  5
376
  8
0
  6
CONTINUOUS
 62
     7
 10
226.0091310441
 20
120.2608946295
 30
0.0
 11
223.009132415
 21
120.2608946295
 31
0.0
  0
LINE
  5
377
  8
0
  6
CONTINUOUS
 62
     7
 10
226.0091310441
 20
120.2608946295
 30
0.0
 11
226.0091310441
 21
135.2608952256
 31
0.0
  0
LINE
  5
378
  8
0
  6
CONTINUOUS
 62
     7
 10
226.0091310441
 20
135.2608952256
 30
0.0
 11
223.009132415
 21
135.2608952256
 31
0.0
  0
LINE
  5
379
  8
0
  6
CONTINUOUS
 62
     7
 10
223.009132415
 20
135.2608952256
 30
0.0
 11
223.009132415
 21
155.2608910532
 31
0.0
  0
LINE
  5
37A
  8
0
  6
CONTINUOUS
 62
     7
 10
226.0091310441
 20
155.2608910532
 30
0.0
 11
223.009132415
 21
155.2608910532
 31
0.0
  0
LINE
  5
37B
  8
0
  6
CONTINUOUS
 62
     7
 10
226.0091310441
 20
155.2608910532
 30
0.0
 11
226.0091310441
 21
170.2608916493
 31
0.0
  0
LINE
  5
37C
  8
0
  6
CONTINUOUS
 62
     7
 10
226.0091310441
 20
170.2608916493
 30
0.0
 11
223.009132415
 21
170.2608916493
 31
0.0
  0
LINE
  5
37D
  8
0
  6
CONTINUOUS
 62
     7
 10
223.009132415
 20
170.2608916493
 30
0.0
 11
223.009132415
 21
190.2609023781
 31
0.0
  0
LINE
  5
37E
  8
0
  6
CONTINUOUS
 62
     7
 10
226.0091310441
 20
190.2609023781
 30
0.0
 11
223.009132415
 21
190.2609023781
 31
0.0
  0
LINE
  5
37F
  8
0
  6
CONTINUOUS
 62
     7
 10
226.0091310441
 20
190.2609023781
 30
0.0
 11
226.0091310441
 21
202.2608968945
 31
0.0
  0
LINE
  5
380
  8
0
  6
CONTINUOUS
 62
     7
 10
191.0091308951
 20
202.2608968945
 30
0.0
 11
226.0091310441
 21
202.2608968945
 31
0.0
  0
LINE
  5
381
  8
0
  6
CONTINUOUS
 62
     7
 10
191.0091308951
 20
190.2609023781
 30
0.0
 11
191.0091308951
 21
202.2608968945
 31
0.0
  0
LINE
  5
382
  8
0
  6
CONTINUOUS
 62
     7
 10
191.0091308951
 20
190.2609023781
 30
0.0
 11
188.009130869
 21
190.2609023781
 31
0.0
  0
LINE
  5
383
  8
0
  6
CONTINUOUS
 62
     7
 10
188.009130869
 20
170.2608916493
 30
0.0
 11
188.009130869
 21
190.2609023781
 31
0.0
  0
LINE
  5
384
  8
0
  6
CONTINUOUS
 62
     7
 10
191.0091308951
 20
170.2608916493
 30
0.0
 11
188.009130869
 21
170.2608916493
 31
0.0
  0
LINE
  5
385
  8
0
  6
CONTINUOUS
 62
     7
 10
191.0091308951
 20
155.2608910532
 30
0.0
 11
191.0091308951
 21
170.2608916493
 31
0.0
  0
LINE
  5
386
  8
0
  6
CONTINUOUS
 62
     7
 10
191.0091308951
 20
155.2608910532
 30
0.0
 11
188.009130869
 21
155.2608910532
 31
0.0
  0
LINE
  5
387
  8
0
  6
CONTINUOUS
 62
     7
 10
188.009130869
 20
135.2608952256
 30
0.0
 11
188.009130869
 21
155.2608910532
 31
0.0
  0
LINE
  5
388
  8
0
  6
CONTINUOUS
 62
     7
 10
191.0091308951
 20
135.2608952256
 30
0.0
 11
188.009130869
 21
135.2608952256
 31
0.0
  0
LINE
  5
389
  8
0
  6
CONTINUOUS
 62
     7
 10
191.0091308951
 20
120.2608946295
 30
0.0
 11
191.0091308951
 21
135.2608952256
 31
0.0
  0
LINE
  5
38A
  8
0
  6
CONTINUOUS
 62
     7
 10
191.0091308951
 20
120.2608946295
 30
0.0
 11
188.009130869
 21
120.2608946295
 31
0.0
  0
LINE
  5
38B
  8
0
  6
CONTINUOUS
 62
     7
 10
188.009130869
 20
100.2608988018
 30
0.0
 11
188.009130869
 21
120.2608946295
 31
0.0
  0
LINE
  5
38C
  8
0
  6
CONTINUOUS
 62
     7
 10
191.0091308951
 20
100.2608988018
 30
0.0
 11
188.009130869
 21
100.2608988018
 31
0.0
  0
LINE
  5
38D
  8
0
  6
CONTINUOUS
 62
     7
 10
191.0091308951
 20
85.2608982058
 30
0.0
 11
191.0091308951
 21
100.2608988018
 31
0.0
  0
LINE
  5
38E
  8
0
  6
CONTINUOUS
 62
     7
 10
191.0091308951
 20
85.2608982058
 30
0.0
 11
188.009130869
 21
85.2608982058
 31
0.0
  0
LINE
  5
38F
  8
0
  6
CONTINUOUS
 62
     7
 10
188.009130869
 20
65.2608949275
 30
0.0
 11
188.009130869
 21
85.2608982058
 31
0.0
  0
LINE
  5
390
  8
0
  6
CONTINUOUS
 62
     7
 10
191.0091308951
 20
65.2608949275
 30
0.0
 11
188.009130869
 21
65.2608949275
 31
0.0
  0
LINE
  5
391
  8
0
  6
CONTINUOUS
 62
     7
 10
191.0091308951
 20
50.2608980568
 30
0.0
 11
191.0091308951
 21
65.2608949275
 31
0.0
  0
LINE
  5
392
  8
0
  6
CONTINUOUS
 62
     7
 10
191.0091308951
 20
50.2608980568
 30
0.0
 11
188.009130869
 21
50.2608980568
 31
0.0
  0
LINE
  5
393
  8
0
  6
CONTINUOUS
 62
     7
 10
188.009130869
 20
30.2608966412
 30
0.0
 11
188.009130869
 21
50.2608980568
 31
0.0
  0
LINE
  5
394
  8
0
  6
CONTINUOUS
 62
     7
 10
191.0091308951
 20
30.2608966412
 30
0.0
 11
188.009130869
 21
30.2608966412
 31
0.0
  0
LINE
  5
395
  8
0
  6
CONTINUOUS
 62
     7
 10
191.0091308951
 20
18.2608965369
 30
0.0
 11
191.0091308951
 21
30.2608966412
 31
0.0
  0
LINE
  5
396
  8
0
  6
CONTINUOUS
 62
     7
 10
191.0091308951
 20
18.2608965369
 30
0.0
 11
226.0091310441
 21
18.2608965369
 31
0.0
  0
LINE
  5
397
  8
0
  6
CONTINUOUS
 62
     7
 10
91.8128450541
 20
11.98136174
 30
0.0
 11
91.8128450541
 21
31.98136174
 31
0.0
  0
LINE
  5
398
  8
0
  6
CONTINUOUS
 62
     7
 10
91.8128450541
 20
31.98136174
 30
0.0
 11
88.8128450541
 21
31.98136174
 31
0.0
  0
LINE
  5
399
  8
0
  6
CONTINUOUS
 62
     7
 10
88.8128450541
 20
31.98136174
 30
0.0
 11
88.8128450541
 21
51.98136174
 31
0.0
  0
LINE
  5
39A
  8
0
  6
CONTINUOUS
 62
     7
 10
91.8128450541
 20
51.98136174
 30
0.0
 11
88.8128450541
 21
51.98136174
 31
0.0
  0
LINE
  5
39B
  8
0
  6
CONTINUOUS
 62
     7
 10
91.8128450541
 20
51.98136174
 30
0.0
 11
91.8128450541
 21
66.98136174
 31
0.0
  0
LINE
  5
39C
  8
0
  6
CONTINUOUS
 62
     7
 10
91.8128450541
 20
66.98136174
 30
0.0
 11
88.8128450541
 21
66.98136174
 31
0.0
  0
LINE
  5
39D
  8
0
  6
CONTINUOUS
 62
     7
 10
88.8128450541
 20
66.98136174
 30
0.0
 11
88.8128450541
 21
86.98136174
 31
0.0
  0
LINE
  5
39E
  8
0
  6
CONTINUOUS
 62
     7
 10
91.8128450541
 20
86.98136174
 30
0.0
 11
88.8128450541
 21
86.98136174
 31
0.0
  0
LINE
  5
39F
  8
0
  6
CONTINUOUS
 62
     7
 10
91.8128450541
 20
86.98136174
 30
0.0
 11
91.8128450541
 21
101.98136174
 31
0.0
  0
LINE
  5
3A0
  8
0
  6
CONTINUOUS
 62
     7
 10
91.8128450541
 20
101.98136174
 30
0.0
 11
88.8128450541
 21
101.98136174
 31
0.0
  0
LINE
  5
3A1
  8
0
  6
CONTINUOUS
 62
     7
 10
88.8128450541
 20
101.98136174
 30
0.0
 11
88.8128450541
 21
121.98136174
 31
0.0
  0
LINE
  5
3A2
  8
0
  6
CONTINUOUS
 62
     7
 10
91.8128450541
 20
121.98136174
 30
0.0
 11
88.8128450541
 21
121.98136174
 31
0.0
  0
LINE
  5
3A3
  8
0
  6
CONTINUOUS
 62
     7
 10
91.8128450541
 20
121.98136174
 30
0.0
 11
91.8128450541
 21
136.98136174
 31
0.0
  0
LINE
  5
3A4
  8
0
  6
CONTINUOUS
 62
     7
 10
91.8128450541
 20
136.98136174
 30
0.0
 11
88.8128450541
 21
136.98136174
 31
0.0
  0
LINE
  5
3A5
  8
0
  6
CONTINUOUS
 62
     7
 10
88.8128450541
 20
136.98136174
 30
0.0
 11
88.8128450541
 21
156.98136174
 31
0.0
  0
LINE
  5
3A6
  8
0
  6
CONTINUOUS
 62
     7
 10
91.8128450541
 20
156.98136174
 30
0.0
 11
88.8128450541
 21
156.98136174
 31
0.0
  0
LINE
  5
3A7
  8
0
  6
CONTINUOUS
 62
     7
 10
91.8128450541
 20
156.98136174
 30
0.0
 11
91.8128450541
 21
171.98136174
 31
0.0
  0
LINE
  5
3A8
  8
0
  6
CONTINUOUS
 62
     7
 10
91.8128450541
 20
171.98136174
 30
0.0
 11
88.8128450541
 21
171.98136174
 31
0.0
  0
LINE
  5
3A9
  8
0
  6
CONTINUOUS
 62
     7
 10
88.8128450541
 20
171.98136174
 30
0.0
 11
88.8128450541
 21
191.98136174
 31
0.0
  0
LINE
  5
3AA
  8
0
  6
CONTINUOUS
 62
     7
 10
91.8128450541
 20
191.98136174
 30
0.0
 11
88.8128450541
 21
191.98136174
 31
0.0
  0
LINE
  5
3AB
  8
0
  6
CONTINUOUS
 62
     7
 10
91.8128450541
 20
191.98136174
 30
0.0
 11
91.8128450541
 21
211.98136174
 31
0.0
  0
LINE
  5
3AC
  8
0
  6
CONTINUOUS
 62
     7
 10
56.8128450541
 20
211.98136174
 30
0.0
 11
91.8128450541
 21
211.98136174
 31
0.0
  0
LINE
  5
3AD
  8
0
  6
CONTINUOUS
 62
     7
 10
56.8128450541
 20
191.98136174
 30
0.0
 11
56.8128450541
 21
211.98136174
 31
0.0
  0
LINE
  5
3AE
  8
0
  6
CONTINUOUS
 62
     7
 10
56.8128450541
 20
191.98136174
 30
0.0
 11
53.8128450541
 21
191.98136174
 31
0.0
  0
LINE
  5
3AF
  8
0
  6
CONTINUOUS
 62
     7
 10
53.8128450541
 20
171.98136174
 30
0.0
 11
53.8128450541
 21
191.98136174
 31
0.0
  0
LINE
  5
3B0
  8
0
  6
CONTINUOUS
 62
     7
 10
56.8128450541
 20
171.98136174
 30
0.0
 11
53.8128450541
 21
171.98136174
 31
0.0
  0
LINE
  5
3B1
  8
0
  6
CONTINUOUS
 62
     7
 10
56.8128450541
 20
156.98136174
 30
0.0
 11
56.8128450541
 21
171.98136174
 31
0.0
  0
LINE
  5
3B2
  8
0
  6
CONTINUOUS
 62
     7
 10
56.8128450541
 20
156.98136174
 30
0.0
 11
53.8128450541
 21
156.98136174
 31
0.0
  0
LINE
  5
3B3
  8
0
  6
CONTINUOUS
 62
     7
 10
53.8128450541
 20
136.98136174
 30
0.0
 11
53.8128450541
 21
156.98136174
 31
0.0
  0
LINE
  5
3B4
  8
0
  6
CONTINUOUS
 62
     7
 10
56.8128450541
 20
136.98136174
 30
0.0
 11
53.8128450541
 21
136.98136174
 31
0.0
  0
LINE
  5
3B5
  8
0
  6
CONTINUOUS
 62
     7
 10
56.8128450541
 20
121.98136174
 30
0.0
 11
56.8128450541
 21
136.98136174
 31
0.0
  0
LINE
  5
3B6
  8
0
  6
CONTINUOUS
 62
     7
 10
56.8128450541
 20
121.98136174
 30
0.0
 11
53.8128450541
 21
121.98136174
 31
0.0
  0
LINE
  5
3B7
  8
0
  6
CONTINUOUS
 62
     7
 10
53.8128450541
 20
101.98136174
 30
0.0
 11
53.8128450541
 21
121.98136174
 31
0.0
  0
LINE
  5
3B8
  8
0
  6
CONTINUOUS
 62
     7
 10
56.8128450541
 20
101.98136174
 30
0.0
 11
53.8128450541
 21
101.98136174
 31
0.0
  0
LINE
  5
3B9
  8
0
  6
CONTINUOUS
 62
     7
 10
56.8128450541
 20
86.98136174
 30
0.0
 11
56.8128450541
 21
101.98136174
 31
0.0
  0
LINE
  5
3BA
  8
0
  6
CONTINUOUS
 62
     7
 10
56.8128450541
 20
86.98136174
 30
0.0
 11
53.8128450541
 21
86.98136174
 31
0.0
  0
LINE
  5
3BB
  8
0
  6
CONTINUOUS
 62
     7
 10
53.8128450541
 20
66.98136174
 30
0.0
 11
53.8128450541
 21
86.98136174
 31
0.0
  0
LINE
  5
3BC
  8
0
  6
CONTINUOUS
 62
     7
 10
56.8128450541
 20
66.98136174
 30
0.0
 11
53.8128450541
 21
66.98136174
 31
0.0
  0
LINE
  5
3BD
  8
0
  6
CONTINUOUS
 62
     7
 10
56.8128450541
 20
51.98136174
 30
0.0
 11
56.8128450541
 21
66.98136174
 31
0.0
  0
LINE
  5
3BE
  8
0
  6
CONTINUOUS
 62
     7
 10
56.8128450541
 20
51.98136174
 30
0.0
 11
53.8128450541
 21
51.98136174
 31
0.0
  0
LINE
  5
3BF
  8
0
  6
CONTINUOUS
 62
     7
 10
53.8128450541
 20
31.98136174
 30
0.0
 11
53.8128450541
 21
51.98136174
 31
0.0
  0
LINE
  5
3C0
  8
0
  6
CONTINUOUS
 62
     7
 10
56.8128450541
 20
31.98136174
 30
0.0
 11
53.8128450541
 21
31.98136174
 31
0.0
  0
LINE
  5
3C1
  8
0
  6
CONTINUOUS
 62
     7
 10
56.8128450541
 20
11.98136174
 30
0.0
 11
56.8128450541
 21
31.98136174
 31
0.0
  0
LINE
  5
3C2
  8
0
  6
CONTINUOUS
 62
     7
 10
56.8128450541
 20
11.98136174
 30
0.0
 11
91.8128450541
 21
11.98136174
 31
0.0
  0
LINE
  5
3C3
  8
0
  6
CONTINUOUS
 62
     7
 10
371.3934396229
 20
96.4468278763
 30
0.0
 11
378.3934396229
 21
96.4468278763
 31
0.0
  0
LINE
  5
3C4
  8
0
  6
CONTINUOUS
 62
     7
 10
371.3934396229
 20
99.4468278763
 30
0.0
 11
371.3934396229
 21
96.4468278763
 31
0.0
  0
LINE
  5
3C5
  8
0
  6
CONTINUOUS
 62
     7
 10
356.3934396229
 20
99.4468278763
 30
0.0
 11
371.3934396229
 21
99.4468278763
 31
0.0
  0
LINE
  5
3C6
  8
0
  6
CONTINUOUS
 62
     7
 10
356.3934396229
 20
96.4468278763
 30
0.0
 11
356.3934396229
 21
99.4468278763
 31
0.0
  0
LINE
  5
3C7
  8
0
  6
CONTINUOUS
 62
     7
 10
336.3934396229
 20
96.4468278763
 30
0.0
 11
356.3934396229
 21
96.4468278763
 31
0.0
  0
LINE
  5
3C8
  8
0
  6
CONTINUOUS
 62
     7
 10
336.3934396229
 20
99.4468278763
 30
0.0
 11
336.3934396229
 21
96.4468278763
 31
0.0
  0
LINE
  5
3C9
  8
0
  6
CONTINUOUS
 62
     7
 10
321.3934396229
 20
99.4468278763
 30
0.0
 11
336.3934396229
 21
99.4468278763
 31
0.0
  0
LINE
  5
3CA
  8
0
  6
CONTINUOUS
 62
     7
 10
321.3934396229
 20
96.4468278763
 30
0.0
 11
321.3934396229
 21
99.4468278763
 31
0.0
  0
LINE
  5
3CB
  8
0
  6
CONTINUOUS
 62
     7
 10
301.3934396229
 20
96.4468278763
 30
0.0
 11
321.3934396229
 21
96.4468278763
 31
0.0
  0
LINE
  5
3CC
  8
0
  6
CONTINUOUS
 62
     7
 10
301.3934396229
 20
99.4468278763
 30
0.0
 11
301.3934396229
 21
96.4468278763
 31
0.0
  0
LINE
  5
3CD
  8
0
  6
CONTINUOUS
 62
     7
 10
289.3934396229
 20
99.4468278763
 30
0.0
 11
301.3934396229
 21
99.4468278763
 31
0.0
  0
LINE
  5
3CE
  8
0
  6
CONTINUOUS
 62
     7
 10
289.3934396229
 20
103.9468278763
 30
0.0
 11
289.3934396229
 21
99.4468278763
 31
0.0
  0
LINE
  5
3CF
  8
0
  6
CONTINUOUS
 62
     7
 10
286.3934396229
 20
103.9468278763
 30
0.0
 11
289.3934396229
 21
103.9468278763
 31
0.0
  0
LINE
  5
3D0
  8
0
  6
CONTINUOUS
 62
     7
 10
286.3934396229
 20
123.9468278763
 30
0.0
 11
286.3934396229
 21
103.9468278763
 31
0.0
  0
LINE
  5
3D1
  8
0
  6
CONTINUOUS
 62
     7
 10
289.3934396229
 20
123.9468278763
 30
0.0
 11
286.3934396229
 21
123.9468278763
 31
0.0
  0
LINE
  5
3D2
  8
0
  6
CONTINUOUS
 62
     7
 10
289.3934396229
 20
138.9468278763
 30
0.0
 11
289.3934396229
 21
123.9468278763
 31
0.0
  0
LINE
  5
3D3
  8
0
  6
CONTINUOUS
 62
     7
 10
286.3934396229
 20
138.9468278763
 30
0.0
 11
289.3934396229
 21
138.9468278763
 31
0.0
  0
LINE
  5
3D4
  8
0
  6
CONTINUOUS
 62
     7
 10
286.3934396229
 20
158.9468278763
 30
0.0
 11
286.3934396229
 21
138.9468278763
 31
0.0
  0
LINE
  5
3D5
  8
0
  6
CONTINUOUS
 62
     7
 10
289.3934396229
 20
158.9468278763
 30
0.0
 11
286.3934396229
 21
158.9468278763
 31
0.0
  0
LINE
  5
3D6
  8
0
  6
CONTINUOUS
 62
     7
 10
289.3934396229
 20
164.9468278763
 30
0.0
 11
289.3934396229
 21
158.9468278763
 31
0.0
  0
LINE
  5
3D7
  8
0
  6
CONTINUOUS
 62
     7
 10
301.3934396229
 20
164.9468278763
 30
0.0
 11
289.3934396229
 21
164.9468278763
 31
0.0
  0
LINE
  5
3D8
  8
0
  6
CONTINUOUS
 62
     7
 10
301.3934396229
 20
167.9468278763
 30
0.0
 11
301.3934396229
 21
164.9468278763
 31
0.0
  0
LINE
  5
3D9
  8
0
  6
CONTINUOUS
 62
     7
 10
321.3934396229
 20
167.9468278763
 30
0.0
 11
301.3934396229
 21
167.9468278763
 31
0.0
  0
LINE
  5
3DA
  8
0
  6
CONTINUOUS
 62
     7
 10
321.3934396229
 20
164.9468278763
 30
0.0
 11
321.3934396229
 21
167.9468278763
 31
0.0
  0
LINE
  5
3DB
  8
0
  6
CONTINUOUS
 62
     7
 10
336.3934396229
 20
164.9468278763
 30
0.0
 11
321.3934396229
 21
164.9468278763
 31
0.0
  0
LINE
  5
3DC
  8
0
  6
CONTINUOUS
 62
     7
 10
336.3934396229
 20
167.9468278763
 30
0.0
 11
336.3934396229
 21
164.9468278763
 31
0.0
  0
LINE
  5
3DD
  8
0
  6
CONTINUOUS
 62
     7
 10
356.3934396229
 20
167.9468278763
 30
0.0
 11
336.3934396229
 21
167.9468278763
 31
0.0
  0
LINE
  5
3DE
  8
0
  6
CONTINUOUS
 62
     7
 10
356.3934396229
 20
164.9468278763
 30
0.0
 11
356.3934396229
 21
167.9468278763
 31
0.0
  0
LINE
  5
3DF
  8
0
  6
CONTINUOUS
 62
     7
 10
371.3934396229
 20
164.9468278763
 30
0.0
 11
356.3934396229
 21
164.9468278763
 31
0.0
  0
LINE
  5
3E0
  8
0
  6
CONTINUOUS
 62
     7
 10
371.3934396229
 20
167.9468278763
 30
0.0
 11
371.3934396229
 21
164.9468278763
 31
0.0
  0
LINE
  5
3E1
  8
0
  6
CONTINUOUS
 62
     7
 10
378.3934396229
 20
167.9468278763
 30
0.0
 11
371.3934396229
 21
167.9468278763
 31
0.0
  0
LINE
  5
3E2
  8
0
  6
CONTINUOUS
 62
     7
 10
378.3934396229
 20
158.9468278763
 30
0.0
 11
378.3934396229
 21
167.9468278763
 31
0.0
  0
LINE
  5
3E3
  8
0
  6
CONTINUOUS
 62
     7
 10
381.3934396229
 20
158.9468278763
 30
0.0
 11
378.3934396229
 21
158.9468278763
 31
0.0
  0
LINE
  5
3E4
  8
0
  6
CONTINUOUS
 62
     7
 10
381.3934396229
 20
138.9468278763
 30
0.0
 11
381.3934396229
 21
158.9468278763
 31
0.0
  0
LINE
  5
3E5
  8
0
  6
CONTINUOUS
 62
     7
 10
378.3934396229
 20
138.9468278763
 30
0.0
 11
381.3934396229
 21
138.9468278763
 31
0.0
  0
LINE
  5
3E6
  8
0
  6
CONTINUOUS
 62
     7
 10
378.3934396229
 20
123.9468278763
 30
0.0
 11
378.3934396229
 21
138.9468278763
 31
0.0
  0
LINE
  5
3E7
  8
0
  6
CONTINUOUS
 62
     7
 10
381.3934396229
 20
123.9468278763
 30
0.0
 11
378.3934396229
 21
123.9468278763
 31
0.0
  0
LINE
  5
3E8
  8
0
  6
CONTINUOUS
 62
     7
 10
381.3934396229
 20
103.9468278763
 30
0.0
 11
381.3934396229
 21
123.9468278763
 31
0.0
  0
LINE
  5
3E9
  8
0
  6
CONTINUOUS
 62
     7
 10
378.3934396229
 20
103.9468278763
 30
0.0
 11
381.3934396229
 21
103.9468278763
 31
0.0
  0
LINE
  5
3EA
  8
0
  6
CONTINUOUS
 62
     7
 10
378.3934396229
 20
96.4468278763
 30
0.0
 11
378.3934396229
 21
103.9468278763
 31
0.0
  0
ENDSEC
  0
EOF
